<svg version="1.1" xmlns="http://www.w3.org/2000/svg" viewBox="0 0 904.6907601376506 662.9885422094088" width="904.6907601376506" height="662.9885422094088">
  <!-- svg-source:excalidraw -->
  
  <defs>
    <style class="style-fonts">
      @font-face {
        font-family: "Virgil";
        src: url("https://excalidraw.com/Virgil.woff2");
      }
      @font-face {
        font-family: "Cascadia";
        src: url("https://excalidraw.com/Cascadia.woff2");
      }
      @font-face {
        font-family: "Assistant";
        src: url("https://excalidraw.com/Assistant-Regular.woff2");
      }
    </style>
    
  </defs>
  <rect x="0" y="0" width="904.6907601376506" height="662.9885422094088" fill="#ffffff"></rect><g stroke-linecap="round" transform="translate(10 10) rotate(0 442.3453800688253 321.4942711047044)"><path d="M32 0 C282.64 0, 533.27 0, 852.69 0 C874.02 0, 884.69 10.67, 884.69 32 C884.69 213.04, 884.69 394.07, 884.69 610.99 C884.69 632.32, 874.02 642.99, 852.69 642.99 C575.48 642.99, 298.27 642.99, 32 642.99 C10.67 642.99, 0 632.32, 0 610.99 C0 385.98, 0 160.97, 0 32 C0 10.67, 10.67 0, 32 0" stroke="none" stroke-width="0" fill="#ffffff"></path><path d="M32 0 C264.27 0, 496.53 0, 852.69 0 M32 0 C205.25 0, 378.51 0, 852.69 0 M852.69 0 C874.02 0, 884.69 10.67, 884.69 32 M852.69 0 C874.02 0, 884.69 10.67, 884.69 32 M884.69 32 C884.69 225.03, 884.69 418.05, 884.69 610.99 M884.69 32 C884.69 232.63, 884.69 433.26, 884.69 610.99 M884.69 610.99 C884.69 632.32, 874.02 642.99, 852.69 642.99 M884.69 610.99 C884.69 632.32, 874.02 642.99, 852.69 642.99 M852.69 642.99 C646.83 642.99, 440.97 642.99, 32 642.99 M852.69 642.99 C661.93 642.99, 471.16 642.99, 32 642.99 M32 642.99 C10.67 642.99, 0 632.32, 0 610.99 M32 642.99 C10.67 642.99, 0 632.32, 0 610.99 M0 610.99 C0 392.53, 0 174.08, 0 32 M0 610.99 C0 397.11, 0 183.24, 0 32 M0 32 C0 10.67, 10.67 0, 32 0 M0 32 C0 10.67, 10.67 0, 32 0" stroke="#1e1e1e" stroke-width="4" fill="none"></path></g><g stroke-linecap="round" transform="translate(326.3641763984424 131.62402895333162) rotate(0 146.26840781591955 186.17844927729948)"><path d="M32 0 C105.93 0, 179.87 0, 260.54 0 C281.87 0, 292.54 10.67, 292.54 32 C292.54 152.43, 292.54 272.86, 292.54 340.36 C292.54 361.69, 281.87 372.36, 260.54 372.36 C187.9 372.36, 115.25 372.36, 32 372.36 C10.67 372.36, 0 361.69, 0 340.36 C0 237.29, 0 134.23, 0 32 C0 10.67, 10.67 0, 32 0" stroke="none" stroke-width="0" fill="#fff9db"></path><path d="M32 0 C82.8 0, 133.6 0, 260.54 0 M260.54 0 C281.87 0, 292.54 10.67, 292.54 32 M292.54 32 C292.54 153.47, 292.54 274.95, 292.54 340.36 M292.54 340.36 C292.54 361.69, 281.87 372.36, 260.54 372.36 M260.54 372.36 C213.21 372.36, 165.89 372.36, 32 372.36 M32 372.36 C10.67 372.36, 0 361.69, 0 340.36 M0 340.36 C0 256.11, 0 171.86, 0 32 M0 32 C0 10.67, 10.67 0, 32 0" stroke="#1e1e1e" stroke-width="1.5" fill="none" stroke-dasharray="1.5 7"></path></g><g transform="translate(346.07008421436194 479.7809275079305) rotate(0 126.5625 9.600000000000023)"><text x="126.5625" y="0" font-family="Cascadia, Segoe UI Emoji" font-size="16px" fill="#1e1e1e" text-anchor="middle" style="white-space: pre;" direction="ltr" dominant-baseline="text-before-edge">"content addressed network"</text></g><g stroke-linecap="round" transform="translate(132.94744720494873 199.90197756879024) rotate(0 21.5 19)"><path d="M25.7 -0.16 C30.19 0.16, 35.38 3.37, 38.32 6.52 C41.27 9.68, 43.44 14.58, 43.37 18.77 C43.3 22.97, 40.98 28.58, 37.93 31.69 C34.87 34.8, 29.6 36.72, 25.04 37.42 C20.47 38.12, 14.52 37.92, 10.54 35.89 C6.57 33.87, 2.71 29.16, 1.19 25.28 C-0.32 21.39, -0.08 16.37, 1.45 12.56 C2.97 8.75, 6.18 4.41, 10.33 2.42 C14.48 0.43, 23.59 0.82, 26.34 0.61 C29.08 0.41, 26.86 0.96, 26.78 1.2 M16.5 0.81 C20.53 -0.22, 26.65 1.11, 30.82 2.92 C35 4.72, 39.58 8.07, 41.56 11.66 C43.54 15.24, 44.23 20.6, 42.7 24.41 C41.18 28.23, 36.33 32.42, 32.39 34.56 C28.44 36.69, 23.43 37.74, 19.06 37.21 C14.68 36.68, 9.41 34.42, 6.14 31.39 C2.87 28.36, -0.28 22.92, -0.56 19.02 C-0.85 15.12, 1.4 11.09, 4.43 8.01 C7.46 4.93, 15.41 1.73, 17.61 0.53 C19.8 -0.68, 17.55 0.55, 17.6 0.78" stroke="none" stroke-width="0" fill="#f08c00"></path><path d="M24.83 0.13 C29.2 0.58, 35.42 3.98, 38.41 7.08 C41.4 10.17, 42.92 14.77, 42.78 18.71 C42.64 22.65, 40.52 27.49, 37.57 30.71 C34.63 33.93, 29.67 37.2, 25.12 38.01 C20.58 38.81, 14.21 37.59, 10.31 35.55 C6.41 33.52, 3.21 29.68, 1.73 25.8 C0.25 21.92, -0.09 16.17, 1.42 12.28 C2.93 8.38, 6.63 4.48, 10.78 2.45 C14.93 0.43, 23.59 0.42, 26.33 0.15 C29.07 -0.12, 27.4 0.53, 27.24 0.83 M21.35 -0.45 C25.62 -0.88, 31.59 1.15, 35.26 3.91 C38.94 6.67, 42.74 12.05, 43.4 16.13 C44.07 20.2, 41.72 24.92, 39.25 28.38 C36.78 31.84, 32.79 35.43, 28.57 36.88 C24.34 38.33, 18.21 38.5, 13.89 37.07 C9.56 35.64, 4.78 31.95, 2.61 28.32 C0.44 24.7, -0.06 19.28, 0.88 15.31 C1.82 11.35, 4.77 7.11, 8.24 4.55 C11.71 1.99, 19.37 0.62, 21.72 -0.02 C24.06 -0.66, 22.36 0.26, 22.32 0.7" stroke="#000000" stroke-width="1" fill="none"></path></g><g stroke-linecap="round"><g transform="translate(152.94744720494873 236.90197756879024) rotate(0 0.5 38)"><path d="M0.83 0.9 C0.92 13.46, 1.51 62.41, 1.47 75.11 M-0.19 0.32 C-0.3 13.03, 0.8 63.68, 0.78 76.18" stroke="#000000" stroke-width="1" fill="none"></path></g></g><mask></mask><g stroke-linecap="round"><g transform="translate(152.94744720494873 310.90197756879024) rotate(0 -15 23)"><path d="M0.47 -0.89 C-4.72 6.81, -25.4 39.37, -30.36 47.1 M-0.74 1.26 C-6.2 8.57, -26.68 38.01, -31.5 45.55" stroke="#000000" stroke-width="1" fill="none"></path></g></g><mask></mask><g stroke-linecap="round"><g transform="translate(184.94744720494873 358.90197756879024) rotate(0 -15 -23.5)"><path d="M-0.36 1.1 C-5.31 -6.68, -24.21 -39.35, -29.25 -47.53 M1.65 0.63 C-3.44 -6.91, -24.25 -38.3, -29.81 -46.27" stroke="#000000" stroke-width="1" fill="none"></path></g></g><mask></mask><g stroke-linecap="round"><g transform="translate(125.94744720495055 275.90197756879024) rotate(0 29 -11.5)"><path d="M0.75 -0.53 C10.37 -4.71, 48.03 -20.2, 57.38 -24 M-0.32 1.81 C9.73 -1.75, 49.86 -18.99, 59.76 -22.99" stroke="#000000" stroke-width="1" fill="none"></path></g></g><mask></mask><g stroke-linecap="round" transform="translate(764.3394746773984 306.1970724630345) rotate(0 19.005175694322816 16.795271543820206)"><path d="M15.92 0.41 C19.78 -0.39, 25.52 0.38, 28.99 2.22 C32.46 4.06, 35.44 7.95, 36.72 11.43 C38.01 14.91, 38.1 19.68, 36.68 23.09 C35.26 26.51, 31.75 30.29, 28.21 31.94 C24.67 33.59, 19.48 33.79, 15.44 33.01 C11.41 32.22, 6.54 30.07, 4.01 27.23 C1.48 24.39, 0.18 19.61, 0.25 15.96 C0.32 12.31, 1.75 8, 4.43 5.34 C7.11 2.68, 14.28 0.79, 16.35 0.01 C18.41 -0.78, 16.77 0.3, 16.84 0.65 M18.24 0.43 C22.04 0.15, 26.87 2.07, 30.17 4.28 C33.47 6.49, 37.08 10.32, 38.04 13.67 C39 17.03, 37.84 21.32, 35.92 24.39 C33.99 27.46, 30.36 30.59, 26.49 32.1 C22.62 33.62, 16.55 34.54, 12.69 33.48 C8.83 32.43, 5.31 28.94, 3.32 25.76 C1.33 22.58, 0.23 17.87, 0.74 14.4 C1.24 10.93, 3.46 7.24, 6.35 4.95 C9.23 2.66, 16.11 1.33, 18.05 0.65 C19.98 -0.02, 17.86 0.69, 17.97 0.9" stroke="none" stroke-width="0" fill="#a5d8ff"></path><path d="M22.3 -0.05 C26.24 0.21, 30.97 2.68, 33.54 5.38 C36.12 8.09, 37.8 12.46, 37.76 16.2 C37.71 19.94, 35.85 24.92, 33.26 27.83 C30.67 30.74, 26.14 33.04, 22.21 33.66 C18.29 34.28, 13.25 33.36, 9.7 31.55 C6.16 29.74, 2.31 26.23, 0.94 22.8 C-0.42 19.37, 0.16 14.33, 1.51 10.95 C2.85 7.57, 5.45 4.21, 9.04 2.52 C12.63 0.83, 20.62 1.06, 23.05 0.82 C25.47 0.57, 23.62 0.92, 23.58 1.05 M20.3 0.24 C24.11 0.1, 28.93 1.29, 31.91 3.69 C34.9 6.09, 37.76 10.85, 38.21 14.65 C38.66 18.45, 36.98 23.51, 34.61 26.48 C32.23 29.46, 27.89 31.41, 23.96 32.47 C20.02 33.54, 14.69 34.07, 10.99 32.86 C7.3 31.66, 3.55 28.46, 1.79 25.25 C0.03 22.04, -0.46 17.33, 0.45 13.62 C1.36 9.9, 4.11 5.24, 7.24 2.97 C10.38 0.69, 17.11 0.44, 19.27 -0.04 C21.43 -0.52, 20.08 -0.25, 20.22 0.08" stroke="#000000" stroke-width="1" fill="none"></path></g><g stroke-linecap="round"><g transform="translate(784.9724786737652 338.9036538904737) rotate(0 -0.44198083010041955 33.590543087640356)"><path d="M0.76 -0.78 C0.5 10.59, -0.56 56.5, -0.94 67.9 M-0.3 1.43 C-0.77 12.48, -1.53 55.47, -1.92 66.15" stroke="#000000" stroke-width="1" fill="none"></path></g></g><mask></mask><g stroke-linecap="round"><g transform="translate(784.8618987142208 404.3168167453523) rotate(0 13.259424903015997 20.331118184624415)"><path d="M-0.05 0.72 C4.13 7.7, 21.63 34.54, 25.89 41.09 M-1.54 0.05 C2.98 6.73, 23.37 32.36, 28.28 39.2" stroke="#000000" stroke-width="1" fill="none"></path></g></g><mask></mask><g stroke-linecap="round"><g transform="translate(755.962514498543 446.7469764350034) rotate(0 13.259424903015997 -20.77309901472495)"><path d="M-0.62 0.43 C3.64 -6.71, 21.15 -34.96, 25.54 -42.15 M1.25 -0.39 C5.89 -7.44, 23.25 -33.99, 27.74 -40.93" stroke="#000000" stroke-width="1" fill="none"></path></g></g><mask></mask><g stroke-linecap="round"><g transform="translate(808.3235112924094 373.3781586383152) rotate(0 -25.6348881458307 -10.165559092312208)"><path d="M-0.98 -0.61 C-9.55 -4.27, -43.84 -18.08, -52.04 -21.53 M0.71 1.69 C-7.42 -1.91, -41.22 -16.92, -49.74 -20.62" stroke="#000000" stroke-width="1" fill="none"></path></g></g><mask></mask><g stroke-linecap="round"><g transform="translate(181.29026799874373 230.32422426364155) rotate(0 73.24024048745241 0.8063749289318594)"><path d="M0 0 C11.68 0.27, 45.69 1.39, 70.1 1.61 C94.52 1.84, 133.75 1.41, 146.48 1.37 M0 0 C11.68 0.27, 45.69 1.39, 70.1 1.61 C94.52 1.84, 133.75 1.41, 146.48 1.37" stroke="#f08c00" stroke-width="4" fill="none"></path></g><g transform="translate(181.29026799874373 230.32422426364155) rotate(0 73.24024048745241 0.8063749289318594)"><path d="M123.04 10.07 C132.2 6.67, 141.35 3.27, 146.48 1.37 M123.04 10.07 C128.08 8.2, 133.11 6.33, 146.48 1.37" stroke="#f08c00" stroke-width="4" fill="none"></path></g><g transform="translate(181.29026799874373 230.32422426364155) rotate(0 73.24024048745241 0.8063749289318594)"><path d="M122.93 -7.03 C132.13 -3.75, 141.33 -0.47, 146.48 1.37 M122.93 -7.03 C127.99 -5.23, 133.05 -3.42, 146.48 1.37" stroke="#f08c00" stroke-width="4" fill="none"></path></g></g><mask></mask><g stroke-linecap="round"><g transform="translate(625.0039573032618 230.8810173811105) rotate(0 69.31016815526709 37.631171007438695)"><path d="M0 0 C14.31 2.02, 62.74 -0.4, 85.84 12.14 C108.94 24.68, 129.82 64.74, 138.62 75.26 M0 0 C14.31 2.02, 62.74 -0.4, 85.84 12.14 C108.94 24.68, 129.82 64.74, 138.62 75.26" stroke="#f08c00" stroke-width="4" fill="none"></path></g><g transform="translate(625.0039573032618 230.8810173811105) rotate(0 69.31016815526709 37.631171007438695)"><path d="M118.28 60.73 C125.61 65.97, 132.94 71.21, 138.62 75.26 M118.28 60.73 C122.9 64.03, 127.51 67.33, 138.62 75.26" stroke="#f08c00" stroke-width="4" fill="none"></path></g><g transform="translate(625.0039573032618 230.8810173811105) rotate(0 69.31016815526709 37.631171007438695)"><path d="M132.38 51.05 C134.63 59.78, 136.88 68.51, 138.62 75.26 M132.38 51.05 C133.8 56.55, 135.21 62.05, 138.62 75.26" stroke="#f08c00" stroke-width="4" fill="none"></path></g></g><mask></mask><g stroke-linecap="round" transform="translate(344.3733989930588 221.0846707956099) rotate(0 131.95578300241255 113)"><path d="M32 0 C75.34 -3.79, 112.93 -2.25, 231.91 0 C255.25 3.03, 266.91 9.44, 263.91 32 C265.15 94.21, 263 162.64, 263.91 194 C267.01 216.68, 253.7 224.73, 231.91 226 C163.02 229.02, 92.55 227.33, 32 226 C13.44 222.63, 0.81 217.42, 0 194 C0.82 146.95, 2.57 96.64, 0 32 C-0.6 8.28, 10.23 0.52, 32 0" stroke="none" stroke-width="0" fill="#ffffff"></path><path d="M32 0 C83.12 -3.49, 129.72 -1.84, 231.91 0 M231.91 0 C251.47 1.78, 263.53 11.08, 263.91 32 M263.91 32 C263.61 88.16, 264.49 140.75, 263.91 194 M263.91 194 C265.76 214.66, 253.13 226.2, 231.91 226 M231.91 226 C169.45 226.23, 106.8 228.08, 32 226 M32 226 C10.31 224.93, 0.27 215.94, 0 194 M0 194 C-0.7 133.62, 0.65 69.43, 0 32 M0 32 C1.57 10.46, 10.03 0.55, 32 0" stroke="#1971c2" stroke-width="4.5" fill="none" stroke-dasharray="8 12"></path></g><g transform="translate(349.3733989930588 226.0846707956099) rotate(0 90.234375 100.80000000000001)"><text x="0" y="0" font-family="Cascadia, Segoe UI Emoji" font-size="28px" fill="#1971c2" text-anchor="start" style="white-space: pre;" direction="ltr" dominant-baseline="text-before-edge"></text><text x="0" y="33.6" font-family="Cascadia, Segoe UI Emoji" font-size="28px" fill="#1971c2" text-anchor="start" style="white-space: pre;" direction="ltr" dominant-baseline="text-before-edge"></text><text x="0" y="67.2" font-family="Cascadia, Segoe UI Emoji" font-size="28px" fill="#1971c2" text-anchor="start" style="white-space: pre;" direction="ltr" dominant-baseline="text-before-edge">- new email</text><text x="0" y="100.80000000000001" font-family="Cascadia, Segoe UI Emoji" font-size="28px" fill="#1971c2" text-anchor="start" style="white-space: pre;" direction="ltr" dominant-baseline="text-before-edge">- phone</text><text x="0" y="134.4" font-family="Cascadia, Segoe UI Emoji" font-size="28px" fill="#1971c2" text-anchor="start" style="white-space: pre;" direction="ltr" dominant-baseline="text-before-edge">- keys, </text><text x="0" y="168" font-family="Cascadia, Segoe UI Emoji" font-size="28px" fill="#1971c2" text-anchor="start" style="white-space: pre;" direction="ltr" dominant-baseline="text-before-edge">- data</text></g><g stroke-linecap="round"><g transform="translate(770.4021399273197 351.76652546171795) rotate(0 -79.78541008429829 35.328993204453695)"><path d="M0 0 C-10.42 7.76, -35.92 34.78, -62.52 46.56 C-89.11 58.33, -143.39 66.64, -159.57 70.66 M0 0 C-10.42 7.76, -35.92 34.78, -62.52 46.56 C-89.11 58.33, -143.39 66.64, -159.57 70.66" stroke="#1971c2" stroke-width="4" fill="none"></path></g><g transform="translate(770.4021399273197 351.76652546171795) rotate(0 -79.78541008429829 35.328993204453695)"><path d="M-138.29 57.54 C-146.3 62.48, -154.32 67.42, -159.57 70.66 M-138.29 57.54 C-144.44 61.34, -150.6 65.13, -159.57 70.66" stroke="#1971c2" stroke-width="4" fill="none"></path></g><g transform="translate(770.4021399273197 351.76652546171795) rotate(0 -79.78541008429829 35.328993204453695)"><path d="M-134.84 74.29 C-144.15 72.92, -153.46 71.56, -159.57 70.66 M-134.84 74.29 C-141.99 73.24, -149.14 72.19, -159.57 70.66" stroke="#1971c2" stroke-width="4" fill="none"></path></g></g><mask></mask><g stroke-linecap="round" transform="translate(342.63916560134203 176.02150474810787) rotate(0 133.12045977922799 55.830408686004944)"><path d="M27.92 0 C91.09 2.54, 153.65 3.02, 238.33 0 C259.56 -1.32, 266.45 10.31, 266.24 27.92 C270.48 42.47, 267.9 51.67, 266.24 83.75 C265.93 102.84, 254.02 108.95, 238.33 111.66 C189.46 112.13, 142.47 108.39, 27.92 111.66 C10.57 108.16, 0.89 99.98, 0 83.75 C-3.02 67.64, 0.67 55.03, 0 27.92 C3.07 9.39, 8.18 -3.06, 27.92 0" stroke="none" stroke-width="0" fill="#ffffff"></path><path d="M27.92 0 C81.23 -1.07, 135.03 -1.8, 238.33 0 M27.92 0 C102.33 2.02, 176.22 1.9, 238.33 0 M238.33 0 C258.15 1.69, 265.8 8.43, 266.24 27.92 M238.33 0 C258.43 -1.92, 265.33 9.34, 266.24 27.92 M266.24 27.92 C266.72 42.07, 264.49 56.72, 266.24 83.75 M266.24 27.92 C266.19 45.47, 265.05 62.47, 266.24 83.75 M266.24 83.75 C266.14 103.52, 257.33 110.47, 238.33 111.66 M266.24 83.75 C265.51 101.75, 256.49 111.04, 238.33 111.66 M238.33 111.66 C176.69 110.08, 116.1 108.73, 27.92 111.66 M238.33 111.66 C168.58 112.41, 99.01 110.96, 27.92 111.66 M27.92 111.66 C8.72 111.37, 1.8 101.11, 0 83.75 M27.92 111.66 C8.64 109.66, -0.73 102.22, 0 83.75 M0 83.75 C-0.87 69.64, -1.83 54.98, 0 27.92 M0 83.75 C-0.73 61.07, 0.31 39.43, 0 27.92 M0 27.92 C0.56 11.28, 8.12 -1.98, 27.92 0 M0 27.92 C-0.59 8.63, 9.54 -1.27, 27.92 0" stroke="#f08c00" stroke-width="4" fill="none"></path></g><g transform="translate(347.63916560134203 181.02150474810787) rotate(0 57.421875 50.39999999999998)"><text x="0" y="0" font-family="Cascadia, Segoe UI Emoji" font-size="28px" fill="#f08c00" text-anchor="start" style="white-space: pre;" direction="ltr" dominant-baseline="text-before-edge">- name</text><text x="0" y="33.6" font-family="Cascadia, Segoe UI Emoji" font-size="28px" fill="#f08c00" text-anchor="start" style="white-space: pre;" direction="ltr" dominant-baseline="text-before-edge">- email</text><text x="0" y="67.2" font-family="Cascadia, Segoe UI Emoji" font-size="28px" fill="#f08c00" text-anchor="start" style="white-space: pre;" direction="ltr" dominant-baseline="text-before-edge">- pic</text></g><g transform="translate(214.34182434330432 177.97858160448504) rotate(0 32.462617875045 7.649237545269102)" stroke="none"><path d="M0.7 0.38 C-1.49 0.36, -10.16 -0.76, -13.63 -0.71 C-17.09 -0.65, -19.94 -0.22, -20.09 0.73 C-20.24 1.68, -17.23 3.41, -14.54 5.01 C-11.86 6.61, -4.95 8.7, -3.99 10.32 C-3.03 11.95, -6.52 12.43, -8.8 14.77 C-11.07 17.11, -19.18 22.15, -17.65 24.37 C-16.11 26.6, -2.88 25.86, 0.41 28.13 C3.7 30.39, 1.62 35.37, 2.08 37.98 C2.55 40.59, 2.83 42.98, 3.2 43.79 C3.56 44.6, 3.35 43.56, 4.25 42.85 C5.15 42.14, 6.02 40.2, 8.61 39.55 C11.21 38.89, 17.12 38.32, 19.84 38.93 C22.56 39.54, 24.27 41.92, 24.92 43.22 C25.57 44.52, 22.55 46.83, 23.75 46.75 C24.96 46.67, 30.39 44.2, 32.16 42.73 C33.94 41.27, 33.44 39.59, 34.41 37.97 C35.38 36.34, 37.33 34.02, 37.99 33 C38.64 31.97, 36.26 30.17, 38.35 31.8 C40.44 33.43, 48.48 40.5, 50.52 42.8 C52.55 45.1, 49.21 47.37, 50.55 45.61 C51.9 43.86, 53.87 33.66, 58.6 32.27 C63.33 30.88, 75.36 37.53, 78.95 37.27 C82.53 37.02, 81.3 32.83, 80.11 30.74 C78.91 28.66, 73.03 26.94, 71.8 24.75 C70.56 22.56, 70.75 19.47, 72.72 17.61 C74.69 15.74, 81.19 14.78, 83.63 13.56 C86.08 12.34, 86.66 10.58, 87.38 10.26 C88.1 9.95, 91.13 12.45, 87.93 11.68 C84.73 10.91, 71.7 9.52, 68.2 5.62 C64.7 1.73, 68.3 -10.02, 66.91 -11.71 C65.51 -13.4, 62.22 -5.68, 59.82 -4.52 C57.41 -3.36, 54.61 -1.9, 52.45 -4.74 C50.29 -7.59, 48.58 -19.51, 46.87 -21.59 C45.16 -23.68, 44.31 -18.7, 42.19 -17.25 C40.06 -15.8, 38.09 -10.57, 34.12 -12.89 C30.15 -15.21, 21.77 -28.82, 18.36 -31.19 C14.94 -33.55, 14.63 -30.15, 13.62 -27.08 C12.62 -24.01, 14.76 -14.17, 12.33 -12.75 C9.9 -11.34, 2.16 -17.16, -0.96 -18.57 C-4.09 -19.97, -5.87 -22.28, -6.41 -21.21 C-6.96 -20.15, -5.1 -15.93, -4.24 -12.17 C-3.37 -8.41, -2.09 -0.69, -1.21 1.35" stroke="none" stroke-width="0" fill="#ffd43b" fill-rule="evenodd"></path><path fill="#1e1e1e" d="M -0.17,2.58 Q -0.17,2.58 -0.97,2.57 -1.78,2.56 -3.21,2.55 -4.63,2.54 -5.94,2.62 -7.24,2.70 -8.60,2.78 -9.96,2.85 -11.34,2.91 -12.73,2.96 -13.95,3.11 -15.18,3.26 -16.65,3.45 -18.12,3.64 -17.78,2.00 -17.45,0.37 -16.24,1.00 -15.03,1.64 -14.08,2.15 -13.12,2.67 -11.99,3.17 -10.87,3.68 -9.42,4.27 -7.97,4.85 -6.14,5.62 -4.31,6.38 -3.30,6.79 -2.30,7.21 -1.18,8.47 -0.07,9.74 0.10,10.94 0.28,12.13 -0.70,13.51 -1.69,14.88 -2.98,15.72 -4.28,16.55 -5.05,17.42 -5.82,18.29 -6.72,19.55 -7.62,20.81 -8.37,21.69 -9.13,22.57 -10.11,23.69 -11.09,24.81 -12.10,26.16 -13.11,27.51 -13.23,27.70 -13.36,27.90 -13.75,28.13 -14.15,28.36 -14.58,28.49 -15.02,28.61 -15.48,28.63 -15.93,28.65 -16.38,28.56 -16.82,28.46 -17.23,28.27 -17.64,28.07 -18.00,27.78 -18.35,27.50 -18.62,27.13 -18.90,26.77 -19.07,26.35 -19.25,25.93 -19.32,25.48 -19.40,25.03 -19.36,24.58 -19.32,24.12 -19.18,23.69 -19.03,23.26 -18.79,22.88 -18.55,22.49 -18.22,22.18 -17.89,21.86 -16.26,21.53 -14.64,21.20 -13.21,21.23 -11.79,21.25 -10.26,21.25 -8.72,21.26 -7.50,21.33 -6.27,21.40 -5.15,21.71 -4.03,22.03 -2.88,22.28 -1.72,22.54 -0.54,22.54 0.62,22.55 2.37,23.17 4.12,23.80 4.76,24.67 5.40,25.54 5.71,26.90 6.01,28.27 6.02,29.63 6.02,30.98 6.02,32.18 6.02,33.39 6.02,34.46 6.02,35.53 6.02,36.74 6.03,37.96 5.95,39.44 5.88,40.93 5.60,42.05 5.33,43.18 4.45,42.53 3.56,41.87 3.86,40.69 4.16,39.52 5.08,38.59 6.01,37.67 7.05,36.80 8.09,35.94 9.49,35.24 10.88,34.53 12.30,34.18 13.72,33.83 14.93,33.66 16.14,33.49 17.46,33.35 18.78,33.20 20.00,33.40 21.22,33.60 22.17,34.16 23.12,34.71 23.95,35.65 24.77,36.58 25.40,37.58 26.02,38.57 26.56,39.80 27.10,41.03 27.41,42.11 27.72,43.19 28.07,44.27 28.43,45.34 27.47,44.44 26.51,43.54 25.45,43.22 24.40,42.91 25.54,42.08 26.68,41.26 27.21,40.33 27.74,39.40 28.41,38.43 29.09,37.46 29.99,36.42 30.89,35.37 32.03,34.37 33.18,33.36 34.03,32.70 34.88,32.04 36.13,31.29 37.37,30.54 39.00,30.43 40.62,30.32 41.75,30.81 42.87,31.31 43.80,32.24 44.73,33.18 46.12,34.74 47.50,36.29 48.66,37.41 49.82,38.54 51.02,39.69 52.22,40.85 52.86,41.79 53.49,42.74 54.03,43.62 54.57,44.50 54.73,44.90 54.90,45.31 54.96,45.74 55.02,46.17 54.98,46.60 54.93,47.03 54.79,47.44 54.64,47.85 54.40,48.21 54.16,48.57 53.85,48.87 53.53,49.16 53.15,49.37 52.77,49.58 52.35,49.70 51.93,49.81 51.49,49.82 51.06,49.83 50.63,49.73 50.21,49.64 49.82,49.44 49.43,49.25 49.10,48.97 48.77,48.69 48.52,48.34 48.26,47.98 48.79,45.74 49.32,43.49 49.55,42.16 49.79,40.84 50.19,39.73 50.59,38.63 51.24,37.17 51.89,35.70 52.39,34.14 52.89,32.58 53.47,31.52 54.04,30.45 55.11,29.21 56.18,27.96 58.08,27.86 59.98,27.75 61.73,28.18 63.48,28.61 65.13,28.88 66.78,29.16 67.92,29.29 69.06,29.41 70.14,29.58 71.22,29.76 72.54,29.87 73.86,29.97 75.09,30.17 76.32,30.37 77.53,30.64 78.73,30.91 80.05,31.06 81.37,31.22 79.68,31.98 77.99,32.74 76.51,32.35 75.02,31.97 74.28,31.19 73.54,30.41 72.52,29.25 71.49,28.10 70.75,27.02 70.01,25.95 69.49,24.95 68.98,23.96 68.46,22.83 67.94,21.69 67.86,20.61 67.77,19.53 67.91,18.38 68.05,17.22 68.98,16.42 69.90,15.61 71.68,15.02 73.46,14.44 74.71,14.11 75.97,13.78 77.20,13.16 78.43,12.54 79.60,11.91 80.77,11.29 81.65,10.52 82.53,9.76 82.73,11.20 82.94,12.64 81.44,12.24 79.94,11.83 78.82,11.52 77.69,11.21 76.58,10.89 75.47,10.57 74.27,10.31 73.07,10.05 72.05,9.70 71.04,9.34 69.90,8.97 68.76,8.61 67.57,7.75 66.37,6.89 65.79,5.51 65.22,4.14 65.16,2.98 65.10,1.82 65.09,0.74 65.09,-0.33 65.02,-1.51 64.94,-2.68 64.76,-4.19 64.58,-5.69 64.39,-7.12 64.20,-8.55 64.07,-9.69 63.95,-10.82 65.92,-9.74 67.90,-8.66 67.39,-7.71 66.87,-6.76 65.48,-5.82 64.09,-4.89 62.84,-4.23 61.60,-3.56 60.51,-3.10 59.42,-2.63 58.17,-2.30 56.91,-1.98 55.84,-1.83 54.77,-1.67 53.55,-1.79 52.34,-1.92 51.08,-2.83 49.83,-3.75 49.18,-4.88 48.53,-6.01 48.05,-7.30 47.58,-8.59 47.23,-9.99 46.87,-11.38 46.37,-12.69 45.86,-13.99 45.30,-15.47 44.73,-16.94 44.34,-18.19 43.94,-19.44 43.57,-20.53 43.20,-21.63 43.09,-22.07 42.97,-22.50 42.97,-22.96 42.97,-23.41 43.07,-23.85 43.18,-24.29 43.38,-24.70 43.59,-25.10 43.89,-25.44 44.19,-25.78 44.56,-26.04 44.93,-26.30 45.35,-26.47 45.77,-26.63 46.22,-26.69 46.67,-26.75 47.12,-26.70 47.57,-26.65 48.00,-26.49 48.42,-26.33 48.80,-26.08 49.17,-25.82 49.48,-25.49 49.78,-25.15 49.99,-24.75 50.21,-24.35 48.96,-21.86 47.71,-19.36 46.73,-18.38 45.75,-17.40 44.53,-16.39 43.32,-15.38 42.32,-14.77 41.33,-14.17 39.88,-13.61 38.43,-13.05 37.45,-12.55 36.47,-12.05 35.31,-11.72 34.15,-11.39 32.73,-11.71 31.32,-12.03 30.05,-13.09 28.79,-14.15 28.09,-15.03 27.39,-15.91 26.60,-16.89 25.81,-17.87 24.80,-19.06 23.78,-20.25 22.70,-21.40 21.61,-22.55 20.45,-23.78 19.29,-25.02 18.45,-26.06 17.60,-27.10 18.64,-27.55 19.69,-28.00 19.25,-26.86 18.80,-25.72 18.43,-24.56 18.05,-23.40 17.68,-22.28 17.31,-21.15 16.88,-20.03 16.44,-18.91 16.14,-17.87 15.83,-16.84 15.52,-15.58 15.21,-14.31 13.80,-12.72 12.38,-11.13 11.24,-10.95 10.10,-10.76 8.87,-11.12 7.65,-11.49 6.27,-12.19 4.90,-12.89 3.43,-13.47 1.96,-14.06 1.03,-14.58 0.09,-15.11 -0.97,-15.74 -2.04,-16.37 -3.40,-16.63 -4.76,-16.89 -3.78,-18.12 -2.80,-19.34 -2.95,-18.08 -3.10,-16.81 -3.11,-15.52 -3.12,-14.22 -2.77,-12.94 -2.42,-11.66 -1.72,-10.35 -1.01,-9.05 -0.35,-8.09 0.31,-7.13 0.99,-6.13 1.67,-5.12 2.28,-3.83 2.90,-2.54 3.13,-1.97 3.37,-1.40 3.41,-0.78 3.45,-0.17 3.29,0.41 3.13,1.01 2.79,1.52 2.45,2.04 1.96,2.41 1.48,2.79 0.90,2.99 0.32,3.20 -0.29,3.20 -0.91,3.21 -1.49,3.02 -2.08,2.83 -2.57,2.46 -3.06,2.10 -3.42,1.59 -3.77,1.08 -3.94,0.49 -4.11,-0.09 -4.08,-0.70 -4.05,-1.32 -3.83,-1.89 -3.61,-2.47 -3.22,-2.94 -2.82,-3.41 -2.30,-3.74 -1.78,-4.06 -1.18,-4.20 -0.58,-4.34 0.02,-4.28 0.64,-4.22 1.20,-3.96 1.76,-3.71 2.21,-3.29 2.66,-2.87 2.96,-2.33 3.25,-1.79 3.36,-1.19 3.46,-0.58 3.37,0.02 3.28,0.63 2.99,1.17 2.71,1.72 2.27,2.15 1.83,2.58 1.27,2.84 0.72,3.10 0.10,3.18 -0.50,3.25 -1.10,3.12 -1.70,3.00 -2.23,2.69 -2.76,2.38 -3.17,1.91 -3.57,1.45 -3.57,1.45 -3.57,1.45 -4.69,-0.56 -5.81,-2.58 -6.41,-3.47 -7.01,-4.35 -7.71,-5.59 -8.42,-6.82 -9.03,-8.01 -9.64,-9.19 -10.06,-10.73 -10.49,-12.27 -10.58,-13.86 -10.66,-15.45 -10.64,-16.82 -10.61,-18.19 -10.32,-19.90 -10.04,-21.61 -9.30,-22.40 -8.56,-23.19 -6.80,-23.90 -5.03,-24.60 -3.61,-24.33 -2.19,-24.06 -1.01,-23.84 0.16,-23.63 1.29,-23.07 2.42,-22.52 3.40,-21.88 4.37,-21.24 5.47,-20.83 6.57,-20.41 7.60,-19.90 8.63,-19.39 9.67,-18.84 10.71,-18.29 9.49,-17.79 8.27,-17.29 8.57,-18.48 8.88,-19.67 9.26,-20.92 9.63,-22.17 10.08,-23.24 10.53,-24.31 10.90,-25.41 11.26,-26.50 11.63,-27.71 12.00,-28.92 12.47,-29.96 12.94,-31.00 13.58,-31.98 14.21,-32.97 15.29,-33.84 16.37,-34.71 17.57,-34.82 18.76,-34.93 20.47,-33.99 22.18,-33.05 23.03,-32.12 23.88,-31.18 24.63,-30.24 25.38,-29.30 26.14,-28.54 26.91,-27.78 27.73,-26.95 28.56,-26.12 29.65,-24.91 30.75,-23.70 31.60,-22.68 32.46,-21.66 33.05,-20.33 33.64,-18.99 35.04,-19.59 36.44,-20.18 37.51,-20.69 38.59,-21.20 39.57,-22.01 40.56,-22.81 41.53,-23.64 42.51,-24.47 43.74,-25.41 44.97,-26.34 44.09,-23.99 43.20,-21.63 43.09,-22.06 42.97,-22.50 42.97,-22.96 42.97,-23.41 43.07,-23.85 43.18,-24.29 43.38,-24.70 43.59,-25.10 43.89,-25.44 44.19,-25.78 44.56,-26.04 44.93,-26.30 45.35,-26.47 45.77,-26.63 46.22,-26.69 46.67,-26.75 47.12,-26.70 47.57,-26.65 48.00,-26.49 48.42,-26.33 48.80,-26.08 49.17,-25.82 49.48,-25.49 49.78,-25.15 49.99,-24.75 50.21,-24.35 50.39,-23.74 50.58,-23.13 50.93,-22.07 51.27,-21.01 51.64,-19.93 52.00,-18.85 52.46,-17.71 52.92,-16.57 53.31,-15.48 53.71,-14.39 54.12,-12.98 54.53,-11.57 54.83,-10.45 55.12,-9.34 56.25,-9.61 57.38,-9.89 58.60,-10.50 59.82,-11.11 60.83,-11.78 61.84,-12.44 62.97,-13.25 64.10,-14.05 65.60,-14.52 67.11,-14.98 69.24,-13.01 71.37,-11.04 71.62,-9.54 71.87,-8.03 71.97,-6.94 72.07,-5.85 72.25,-4.46 72.43,-3.06 72.51,-1.70 72.59,-0.34 71.88,0.65 71.17,1.66 72.70,2.20 74.23,2.75 75.36,3.03 76.50,3.32 77.90,3.71 79.31,4.11 80.71,4.46 82.12,4.82 83.57,5.27 85.03,5.72 86.57,6.50 88.10,7.28 88.72,8.19 89.34,9.11 89.43,10.48 89.52,11.86 88.78,13.23 88.03,14.60 86.98,15.57 85.94,16.54 84.82,17.35 83.71,18.16 82.45,18.80 81.18,19.44 80.18,19.92 79.19,20.41 78.06,20.81 76.93,21.21 75.59,21.24 74.24,21.26 74.46,20.02 74.67,18.77 75.23,19.84 75.79,20.91 76.28,21.89 76.77,22.87 77.66,23.91 78.55,24.95 79.63,26.12 80.71,27.29 81.51,28.06 82.31,28.83 83.16,29.99 84.01,31.14 84.39,32.64 84.76,34.14 84.43,35.35 84.10,36.57 83.14,37.14 82.19,37.72 81.01,38.02 79.83,38.32 78.72,38.21 77.62,38.10 76.02,37.69 74.42,37.29 73.34,37.14 72.27,37.00 71.17,36.88 70.07,36.76 68.67,36.52 67.28,36.27 65.60,36.11 63.91,35.95 62.84,35.80 61.77,35.65 60.69,35.06 59.61,34.48 60.34,33.61 61.08,32.73 60.39,34.02 59.71,35.32 59.35,36.40 59.00,37.49 58.38,39.00 57.75,40.50 57.29,41.61 56.84,42.71 56.44,43.76 56.04,44.81 55.59,45.86 55.13,46.91 54.47,47.86 53.81,48.81 54.19,46.65 54.57,44.50 54.73,44.90 54.90,45.31 54.96,45.74 55.02,46.17 54.98,46.60 54.93,47.03 54.79,47.44 54.64,47.85 54.40,48.21 54.16,48.57 53.85,48.87 53.53,49.16 53.15,49.37 52.77,49.58 52.35,49.70 51.93,49.81 51.49,49.82 51.06,49.83 50.64,49.73 50.21,49.64 49.82,49.44 49.43,49.25 49.10,48.97 48.77,48.69 48.52,48.34 48.26,47.98 48.15,47.70 48.04,47.42 47.47,46.43 46.90,45.44 46.13,44.66 45.36,43.88 43.88,42.56 42.41,41.24 41.59,40.45 40.77,39.67 40.06,38.76 39.35,37.86 38.25,38.73 37.15,39.61 36.23,40.57 35.31,41.52 34.71,42.41 34.10,43.29 33.51,44.27 32.91,45.25 31.81,46.50 30.71,47.75 29.42,48.65 28.14,49.55 27.12,49.99 26.11,50.42 24.23,49.80 22.36,49.18 21.67,48.19 20.98,47.19 20.68,46.00 20.39,44.80 20.04,43.73 19.69,42.66 19.10,41.65 18.50,40.63 17.38,40.78 16.26,40.93 15.00,41.19 13.73,41.45 12.68,42.09 11.62,42.72 10.79,43.50 9.96,44.27 8.86,45.21 7.76,46.16 6.80,46.69 5.84,47.22 4.58,47.65 3.31,48.09 2.20,48.20 1.08,48.31 0.00,47.70 -1.07,47.10 -1.75,45.73 -2.44,44.36 -2.21,42.71 -1.99,41.05 -1.77,39.50 -1.55,37.96 -1.55,36.74 -1.54,35.53 -1.54,34.46 -1.54,33.39 -1.54,32.19 -1.55,30.99 -1.55,29.66 -1.54,28.33 -0.79,29.19 -0.04,30.05 -1.38,30.05 -2.72,30.05 -4.08,29.79 -5.44,29.54 -6.56,29.14 -7.68,28.73 -9.25,28.73 -10.81,28.73 -11.99,28.74 -13.17,28.75 -14.38,28.72 -15.58,28.69 -14.47,28.30 -13.36,27.90 -13.75,28.13 -14.15,28.36 -14.58,28.48 -15.02,28.61 -15.48,28.63 -15.93,28.65 -16.38,28.56 -16.82,28.46 -17.23,28.27 -17.64,28.07 -18.00,27.78 -18.35,27.50 -18.62,27.13 -18.90,26.77 -19.07,26.35 -19.25,25.93 -19.32,25.48 -19.40,25.03 -19.36,24.58 -19.32,24.12 -19.18,23.69 -19.03,23.26 -18.79,22.88 -18.55,22.49 -18.22,22.18 -17.89,21.86 -18.17,22.08 -18.44,22.30 -17.31,20.86 -16.18,19.42 -15.41,18.48 -14.64,17.53 -13.85,16.52 -13.07,15.52 -12.23,14.32 -11.39,13.12 -10.27,11.99 -9.15,10.86 -8.03,10.54 -6.91,10.22 -6.74,11.89 -6.56,13.56 -7.60,13.01 -8.65,12.45 -9.94,12.01 -11.23,11.56 -12.29,11.14 -13.34,10.72 -14.43,10.19 -15.52,9.66 -16.87,9.04 -18.21,8.43 -19.34,7.49 -20.46,6.56 -21.55,5.51 -22.64,4.47 -23.52,3.12 -24.41,1.77 -24.29,0.64 -24.17,-0.49 -23.26,-1.40 -22.35,-2.32 -21.25,-2.74 -20.14,-3.16 -18.98,-3.24 -17.81,-3.32 -16.66,-3.48 -15.52,-3.64 -14.32,-3.68 -13.13,-3.73 -11.90,-3.68 -10.67,-3.63 -9.51,-3.57 -8.35,-3.52 -7.22,-3.44 -6.10,-3.37 -4.89,-3.24 -3.68,-3.11 -2.55,-2.95 -1.43,-2.78 -0.62,-2.68 0.17,-2.58 0.47,-2.53 0.78,-2.47 1.07,-2.34 1.35,-2.21 1.60,-2.01 1.84,-1.82 2.03,-1.57 2.22,-1.32 2.35,-1.04 2.48,-0.75 2.53,-0.44 2.59,-0.14 2.57,0.17 2.54,0.48 2.45,0.78 2.35,1.07 2.19,1.34 2.03,1.61 1.81,1.83 1.58,2.05 1.31,2.21 1.05,2.37 0.75,2.46 0.45,2.55 0.13,2.57 -0.17,2.58 -0.17,2.58 L -0.17,2.58 Z"></path></g><g transform="translate(213.46889322622883 174.80694652473903) rotate(0 32.10828399658203 14.018700394658026)"><text x="32.10828399658203" y="0" font-family="Virgil, Segoe UI Emoji" font-size="22.429920631452774px" fill="#1e1e1e" text-anchor="middle" style="white-space: pre;" direction="ltr" dominant-baseline="text-before-edge">Invite</text></g><g stroke-linecap="round"><g transform="translate(339.1638332036787 374.1605997730095) rotate(0 -75.81376350912842 -30.641457879737914)"><path d="M0 0 C-13.46 -0.87, -55.51 4.98, -80.78 -5.24 C-106.05 -15.45, -139.82 -51.94, -151.63 -61.28" stroke="#1971c2" stroke-width="4.5" fill="none" stroke-dasharray="8 12"></path></g><g transform="translate(339.1638332036787 374.1605997730095) rotate(0 -75.81376350912842 -30.641457879737914)"><path d="M-128.49 -51.81 C-133.85 -54.01, -139.21 -56.2, -151.63 -61.28" stroke="#1971c2" stroke-width="4.5" fill="none"></path></g><g transform="translate(339.1638332036787 374.1605997730095) rotate(0 -75.81376350912842 -30.641457879737914)"><path d="M-139.99 -39.16 C-142.68 -44.28, -145.38 -49.4, -151.63 -61.28" stroke="#1971c2" stroke-width="4.5" fill="none"></path></g></g><mask></mask><g transform="translate(203.54065201499634 413.81264088885825) rotate(0 37.96037024313307 8.944684942347351)" stroke="none"><path d="M1.44 2.29 C-1.64 2.54, -13.7 1.57, -17.7 1.17 C-21.7 0.77, -22.39 -1.14, -22.54 -0.12 C-22.7 0.9, -22.15 4.82, -18.64 7.28 C-15.14 9.73, -2.82 12.84, -1.51 14.59 C-0.19 16.34, -7.67 15.74, -10.76 17.78 C-13.84 19.81, -20.42 24.84, -20.02 26.81 C-19.61 28.79, -10.78 28.63, -8.33 29.62 C-5.88 30.6, -7.37 32.24, -5.31 32.72 C-3.24 33.21, 2.4 32.51, 4.06 32.53 C5.71 32.55, 4.82 30.73, 4.61 32.84 C4.4 34.94, 3.64 42.06, 2.79 45.18 C1.95 48.29, -1.37 50.43, -0.48 51.55 C0.4 52.67, 5.56 53.29, 8.12 51.91 C10.67 50.52, 12.17 44.44, 14.84 43.25 C17.51 42.06, 22.03 44.32, 24.14 44.78 C26.25 45.25, 26.65 44.65, 27.49 46.04 C28.32 47.43, 27.93 52.66, 29.15 53.13 C30.37 53.59, 33.05 50.49, 34.81 48.83 C36.57 47.18, 38.26 44.93, 39.7 43.21 C41.14 41.49, 42.41 38.98, 43.42 38.51 C44.44 38.05, 43.31 38.68, 45.8 40.42 C48.28 42.17, 55.59 47, 58.32 48.98 C61.04 50.97, 60.62 54.63, 62.16 52.31 C63.7 50, 61.87 37.32, 67.54 35.12 C73.21 32.92, 91.47 38.43, 96.18 39.12 C100.89 39.81, 97.23 40.99, 95.79 39.27 C94.36 37.55, 90.04 31.9, 87.56 28.78 C85.09 25.65, 79.75 22.23, 80.93 20.52 C82.11 18.81, 91.55 19.56, 94.65 18.52 C97.75 17.48, 98.6 15.57, 99.53 14.28 C100.47 12.98, 103.2 11.81, 100.27 10.75 C97.33 9.69, 85.08 12.24, 81.9 7.92 C78.72 3.6, 83.5 -12.24, 81.18 -15.18 C78.86 -18.13, 70.75 -10.8, 67.97 -9.74 C65.2 -8.67, 66.96 -5.93, 64.56 -8.79 C62.15 -11.64, 56.42 -24.83, 53.55 -26.87 C50.69 -28.91, 49.59 -22.97, 47.38 -21.05 C45.16 -19.12, 44.32 -12.58, 40.26 -15.34 C36.19 -18.11, 26.43 -35.16, 22.99 -37.66 C19.55 -40.16, 21.05 -34.09, 19.64 -30.32 C18.22 -26.56, 17.67 -16.5, 14.49 -15.05 C11.32 -13.6, 4.21 -19.8, 0.58 -21.62 C-3.05 -23.43, -6.01 -27.3, -7.31 -25.96 C-8.6 -24.62, -8.34 -17.59, -7.17 -13.57 C-6.01 -9.55, -1.54 -4.45, -0.32 -1.84" stroke="none" stroke-width="0" fill="#a5d8ff" fill-rule="evenodd"></path><path fill="#1971c2" d="M -0.17,2.61 Q -0.17,2.61 -1.11,2.58 -2.06,2.56 -3.70,2.53 -5.34,2.51 -6.58,2.57 -7.83,2.64 -9.06,2.70 -10.30,2.77 -11.39,2.81 -12.48,2.86 -13.68,2.89 -14.88,2.93 -16.37,3.10 -17.85,3.27 -19.00,3.45 -20.15,3.62 -21.47,3.79 -22.80,3.95 -22.06,3.04 -21.32,2.14 -21.28,0.87 -21.25,-0.39 -20.04,0.64 -18.84,1.67 -17.88,2.45 -16.93,3.23 -15.63,3.76 -14.34,4.28 -13.21,4.80 -12.09,5.31 -10.82,5.80 -9.55,6.28 -8.37,6.67 -7.20,7.06 -5.74,7.79 -4.28,8.52 -2.46,10.06 -0.64,11.60 -0.47,12.81 -0.29,14.02 -0.82,14.97 -1.35,15.92 -2.48,16.80 -3.61,17.69 -4.62,18.38 -5.64,19.06 -6.39,19.83 -7.15,20.59 -7.95,21.76 -8.75,22.92 -9.57,23.99 -10.38,25.05 -11.19,25.97 -12.00,26.89 -12.72,27.70 -13.44,28.51 -14.06,29.40 -14.68,30.30 -15.35,31.19 -16.03,32.09 -16.42,32.31 -16.81,32.54 -17.24,32.66 -17.67,32.78 -18.12,32.80 -18.57,32.82 -19.01,32.73 -19.46,32.64 -19.86,32.45 -20.27,32.25 -20.62,31.97 -20.97,31.68 -21.24,31.32 -21.51,30.96 -21.68,30.55 -21.86,30.13 -21.93,29.69 -22.00,29.24 -21.96,28.79 -21.93,28.35 -21.78,27.92 -21.64,27.49 -21.40,27.11 -21.16,26.73 -20.83,26.42 -20.51,26.11 -18.86,25.79 -17.20,25.47 -15.50,25.51 -13.79,25.54 -12.55,25.54 -11.32,25.54 -10.15,25.55 -8.97,25.56 -7.37,25.86 -5.76,26.16 -4.60,26.59 -3.44,27.02 -2.21,27.04 -0.98,27.06 0.10,27.06 1.19,27.05 2.76,27.69 4.34,28.33 5.03,29.26 5.72,30.19 6.01,31.23 6.30,32.26 6.33,33.40 6.36,34.54 6.36,35.88 6.35,37.22 6.35,38.57 6.35,39.92 6.35,41.14 6.35,42.37 6.36,43.66 6.37,44.95 6.28,46.35 6.20,47.75 5.88,49.06 5.56,50.37 5.30,51.45 5.04,52.54 4.39,50.99 3.74,49.43 4.47,48.13 5.19,46.82 6.34,45.70 7.48,44.58 8.69,43.58 9.90,42.58 11.45,41.80 12.99,41.03 14.59,40.64 16.19,40.26 17.57,40.06 18.94,39.87 20.10,39.71 21.27,39.55 22.93,39.75 24.59,39.95 25.60,40.55 26.61,41.15 27.51,42.17 28.41,43.19 29.13,44.34 29.84,45.48 30.30,46.47 30.76,47.46 31.11,48.49 31.46,49.52 31.73,50.58 32.00,51.65 30.56,51.26 29.13,50.87 29.99,50.18 30.85,49.49 31.62,48.48 32.39,47.47 33.19,46.31 33.99,45.14 34.83,44.01 35.67,42.89 36.89,41.71 38.10,40.53 39.19,39.64 40.28,38.76 41.42,37.87 42.56,36.98 44.04,36.47 45.52,35.97 47.59,36.55 49.66,37.13 50.74,38.22 51.81,39.30 52.59,40.21 53.38,41.11 54.19,42.03 55.01,42.96 55.79,43.80 56.57,44.64 57.64,45.55 58.72,46.45 59.61,47.35 60.51,48.25 61.22,49.29 61.93,50.34 62.56,51.36 63.19,52.38 63.35,52.77 63.51,53.16 63.57,53.58 63.63,54.00 63.59,54.42 63.55,54.84 63.40,55.24 63.26,55.64 63.03,55.99 62.80,56.34 62.49,56.63 62.18,56.92 61.81,57.12 61.44,57.32 61.03,57.43 60.62,57.54 60.20,57.55 59.78,57.56 59.36,57.47 58.95,57.38 58.57,57.19 58.20,57.00 57.87,56.73 57.55,56.45 57.30,56.11 57.06,55.77 57.59,53.57 58.12,51.38 58.26,50.26 58.40,49.14 58.94,47.74 59.48,46.35 59.90,45.29 60.31,44.23 60.82,43.13 61.32,42.03 61.67,40.84 62.02,39.65 62.54,38.45 63.06,37.25 63.82,35.88 64.58,34.52 66.21,33.67 67.83,32.83 68.92,32.97 70.00,33.12 72.03,33.63 74.06,34.15 76.03,34.49 78.00,34.83 79.32,34.97 80.64,35.12 81.91,35.32 83.17,35.51 84.36,35.62 85.55,35.74 86.91,35.90 88.27,36.07 90.05,36.43 91.83,36.80 93.42,36.99 95.00,37.18 93.39,37.91 91.78,38.64 90.48,38.29 89.18,37.94 88.44,37.15 87.70,36.37 86.59,35.17 85.48,33.97 84.64,33.01 83.79,32.05 83.13,31.04 82.48,30.03 81.88,28.89 81.29,27.74 80.70,26.45 80.10,25.17 79.96,24.00 79.83,22.84 79.98,21.67 80.13,20.50 81.10,19.67 82.07,18.85 84.08,18.20 86.09,17.56 87.58,17.17 89.06,16.78 90.55,16.03 92.04,15.28 93.09,14.77 94.14,14.26 95.09,13.48 96.03,12.69 96.75,13.49 97.47,14.28 96.32,13.97 95.17,13.65 93.68,13.17 92.19,12.69 90.83,12.33 89.47,11.97 88.05,11.62 86.64,11.28 85.39,10.93 84.14,10.59 82.96,10.18 81.78,9.77 80.58,9.30 79.38,8.84 78.55,7.88 77.72,6.93 77.33,5.83 76.94,4.73 76.87,3.43 76.81,2.13 76.80,0.86 76.80,-0.39 76.72,-1.78 76.63,-3.17 76.47,-4.33 76.32,-5.48 76.24,-6.61 76.17,-7.73 75.97,-8.90 75.76,-10.07 75.61,-11.37 75.46,-12.67 77.40,-11.68 79.33,-10.69 78.58,-9.59 77.82,-8.49 76.84,-7.78 75.86,-7.07 74.41,-6.24 72.96,-5.40 71.68,-4.81 70.41,-4.21 69.19,-3.75 67.97,-3.29 66.78,-3.11 65.60,-2.92 64.52,-2.77 63.44,-2.62 61.67,-3.17 59.90,-3.72 58.95,-4.88 58.00,-6.04 57.40,-7.36 56.80,-8.69 56.40,-10.02 55.99,-11.35 55.74,-12.41 55.49,-13.48 55.11,-14.49 54.72,-15.51 54.17,-16.90 53.62,-18.30 53.15,-19.67 52.68,-21.04 52.25,-22.25 51.81,-23.47 51.49,-24.51 51.16,-25.54 51.05,-25.97 50.94,-26.41 50.94,-26.85 50.93,-27.30 51.04,-27.73 51.14,-28.17 51.34,-28.56 51.55,-28.96 51.84,-29.30 52.14,-29.63 52.50,-29.89 52.87,-30.15 53.28,-30.31 53.70,-30.47 54.14,-30.53 54.58,-30.58 55.03,-30.53 55.47,-30.48 55.89,-30.33 56.31,-30.17 56.68,-29.92 57.05,-29.67 57.34,-29.34 57.64,-29.01 57.85,-28.62 58.06,-28.22 56.80,-25.76 55.54,-23.29 54.31,-22.10 53.08,-20.91 52.13,-20.11 51.18,-19.31 50.10,-18.53 49.02,-17.74 47.84,-17.19 46.66,-16.63 45.44,-16.18 44.22,-15.72 43.05,-15.11 41.88,-14.49 39.99,-14.35 38.10,-14.21 36.81,-14.92 35.52,-15.64 34.40,-16.87 33.27,-18.11 32.51,-19.11 31.75,-20.11 30.69,-21.37 29.63,-22.63 28.58,-23.83 27.53,-25.03 26.65,-25.95 25.77,-26.86 24.90,-27.75 24.03,-28.63 23.18,-29.66 22.32,-30.69 21.48,-31.67 20.64,-32.65 21.70,-32.99 22.76,-33.34 22.24,-32.41 21.72,-31.48 21.34,-30.19 20.96,-28.91 20.52,-27.59 20.09,-26.27 19.61,-25.12 19.13,-23.97 18.73,-22.74 18.34,-21.51 17.96,-20.15 17.58,-18.80 17.07,-17.31 16.56,-15.82 15.38,-14.73 14.20,-13.63 13.03,-13.45 11.87,-13.26 10.52,-13.68 9.17,-14.09 7.62,-14.88 6.07,-15.68 4.91,-16.14 3.74,-16.60 2.68,-17.06 1.62,-17.52 0.51,-18.22 -0.59,-18.91 -1.59,-19.47 -2.59,-20.03 -4.01,-20.23 -5.42,-20.43 -6.60,-20.67 -7.79,-20.91 -6.44,-21.57 -5.09,-22.23 -4.71,-20.96 -4.33,-19.68 -4.34,-18.49 -4.35,-17.31 -4.26,-16.13 -4.17,-14.96 -3.63,-13.68 -3.08,-12.41 -2.45,-11.36 -1.81,-10.30 -1.14,-9.23 -0.47,-8.16 0.26,-7.22 1.00,-6.27 1.90,-4.44 2.80,-2.61 3.04,-2.04 3.27,-1.48 3.31,-0.87 3.35,-0.27 3.19,0.31 3.03,0.90 2.70,1.41 2.36,1.92 1.88,2.29 1.40,2.66 0.83,2.86 0.25,3.06 -0.35,3.07 -0.96,3.08 -1.54,2.89 -2.11,2.70 -2.60,2.34 -3.09,1.97 -3.44,1.47 -3.79,0.97 -3.95,0.39 -4.12,-0.19 -4.10,-0.79 -4.07,-1.40 -3.85,-1.97 -3.63,-2.54 -3.24,-3.01 -2.85,-3.47 -2.34,-3.79 -1.82,-4.11 -1.23,-4.25 -0.63,-4.39 -0.03,-4.33 0.57,-4.27 1.12,-4.02 1.68,-3.77 2.13,-3.35 2.57,-2.94 2.86,-2.41 3.15,-1.87 3.26,-1.27 3.36,-0.67 3.27,-0.07 3.18,0.52 2.90,1.06 2.62,1.60 2.18,2.03 1.75,2.45 1.20,2.71 0.65,2.97 0.04,3.04 -0.55,3.12 -1.15,2.99 -1.74,2.87 -2.27,2.56 -2.79,2.25 -3.19,1.79 -3.59,1.33 -3.59,1.33 -3.59,1.33 -4.31,-0.14 -5.03,-1.63 -5.65,-2.54 -6.26,-3.45 -6.94,-4.45 -7.61,-5.46 -8.36,-6.76 -9.11,-8.07 -9.65,-9.09 -10.20,-10.12 -10.65,-11.12 -11.10,-12.13 -11.34,-13.31 -11.59,-14.49 -11.68,-15.91 -11.78,-17.34 -11.77,-18.63 -11.75,-19.93 -11.66,-21.40 -11.57,-22.87 -11.32,-23.97 -11.08,-25.07 -10.34,-25.89 -9.60,-26.71 -7.77,-27.39 -5.95,-28.08 -4.87,-27.89 -3.79,-27.71 -2.51,-27.49 -1.24,-27.27 -0.19,-26.94 0.85,-26.62 1.94,-26.00 3.04,-25.38 4.44,-24.55 5.84,-23.71 6.86,-23.36 7.89,-23.00 9.28,-22.27 10.67,-21.54 11.70,-21.15 12.73,-20.76 11.67,-20.94 10.61,-21.11 10.94,-22.29 11.26,-23.47 11.59,-24.57 11.92,-25.68 12.45,-26.96 12.99,-28.24 13.41,-29.53 13.84,-30.81 14.26,-32.19 14.69,-33.57 15.21,-34.74 15.74,-35.91 16.44,-37.01 17.15,-38.10 18.28,-39.02 19.42,-39.94 20.62,-40.07 21.83,-40.19 22.86,-39.86 23.89,-39.53 24.92,-38.58 25.95,-37.62 26.66,-36.82 27.36,-36.03 28.27,-34.90 29.18,-33.76 30.07,-32.88 30.97,-31.99 31.93,-31.03 32.89,-30.07 34.15,-28.67 35.42,-27.28 36.14,-26.39 36.87,-25.50 37.69,-24.49 38.50,-23.47 39.12,-22.56 39.73,-21.64 40.76,-22.17 41.78,-22.70 42.92,-23.12 44.06,-23.54 45.08,-24.11 46.10,-24.68 46.99,-25.41 47.87,-26.14 49.03,-27.12 50.19,-28.11 51.52,-29.14 52.84,-30.16 52.00,-27.85 51.16,-25.54 51.05,-25.97 50.94,-26.41 50.94,-26.85 50.93,-27.30 51.04,-27.73 51.14,-28.17 51.34,-28.56 51.55,-28.96 51.84,-29.30 52.13,-29.63 52.50,-29.89 52.87,-30.15 53.28,-30.31 53.70,-30.47 54.14,-30.53 54.58,-30.58 55.03,-30.53 55.47,-30.48 55.89,-30.33 56.31,-30.17 56.68,-29.92 57.05,-29.67 57.34,-29.34 57.64,-29.01 57.85,-28.62 58.06,-28.22 58.11,-27.96 58.17,-27.69 58.67,-26.30 59.17,-24.90 59.59,-23.61 60.01,-22.32 60.39,-21.24 60.78,-20.16 61.35,-18.71 61.91,-17.26 62.28,-16.24 62.64,-15.22 62.99,-13.83 63.34,-12.45 63.20,-11.15 63.05,-9.86 64.71,-10.18 66.36,-10.49 67.36,-10.93 68.35,-11.37 69.33,-11.89 70.31,-12.41 71.51,-13.20 72.71,-13.98 74.04,-14.93 75.36,-15.89 76.95,-16.42 78.54,-16.95 80.43,-15.91 82.32,-14.86 82.56,-13.78 82.81,-12.69 83.08,-11.15 83.35,-9.62 83.46,-8.44 83.57,-7.25 83.69,-6.06 83.82,-4.88 83.93,-3.82 84.04,-2.76 84.12,-1.11 84.20,0.53 83.64,1.57 83.08,2.62 84.56,3.14 86.05,3.65 87.10,3.99 88.15,4.33 89.34,4.61 90.52,4.89 91.55,5.19 92.58,5.50 94.20,5.91 95.81,6.31 97.51,6.83 99.20,7.34 100.87,8.17 102.55,9.01 103.19,9.94 103.83,10.88 103.92,12.28 104.01,13.69 103.21,15.15 102.42,16.61 101.23,17.71 100.04,18.81 98.80,19.71 97.56,20.62 96.06,21.37 94.57,22.13 93.46,22.67 92.34,23.21 91.07,23.66 89.79,24.12 88.03,24.31 86.26,24.50 86.51,23.43 86.77,22.35 87.44,23.70 88.11,25.05 88.68,26.13 89.26,27.21 90.10,28.19 90.95,29.17 91.73,29.96 92.51,30.76 93.22,31.60 93.93,32.44 94.83,33.30 95.74,34.17 96.67,35.43 97.61,36.69 98.02,38.29 98.44,39.88 98.10,41.14 97.77,42.40 96.82,42.98 95.87,43.56 94.07,43.81 92.28,44.05 90.87,43.72 89.46,43.40 88.29,43.15 87.12,42.91 85.86,42.73 84.61,42.55 83.33,42.41 82.05,42.27 80.82,42.06 79.58,41.84 78.37,41.70 77.16,41.55 76.01,41.43 74.85,41.32 73.63,41.15 72.40,40.99 70.89,40.36 69.38,39.72 70.08,38.89 70.77,38.05 70.26,39.09 69.75,40.12 69.21,41.32 68.67,42.51 68.27,43.71 67.87,44.92 67.38,46.00 66.89,47.09 66.35,48.41 65.80,49.73 65.34,50.95 64.87,52.18 64.34,53.39 63.80,54.61 63.14,55.58 62.48,56.55 62.84,54.46 63.19,52.38 63.35,52.77 63.51,53.16 63.57,53.58 63.63,54.00 63.59,54.42 63.55,54.84 63.40,55.24 63.26,55.64 63.03,55.99 62.80,56.34 62.49,56.63 62.18,56.92 61.81,57.12 61.44,57.32 61.03,57.43 60.62,57.54 60.20,57.55 59.78,57.56 59.37,57.47 58.95,57.38 58.57,57.19 58.20,57.00 57.87,56.73 57.55,56.45 57.30,56.11 57.06,55.77 56.83,55.25 56.60,54.74 56.00,53.70 55.40,52.66 54.46,51.70 53.53,50.74 52.68,50.03 51.83,49.33 50.98,48.52 50.13,47.70 49.17,46.80 48.21,45.90 47.38,44.42 46.55,42.95 45.63,43.65 44.71,44.36 43.84,45.08 42.96,45.80 41.83,46.98 40.69,48.16 39.99,49.21 39.28,50.26 38.59,51.39 37.90,52.53 36.69,53.91 35.48,55.29 34.02,56.31 32.56,57.34 31.49,57.82 30.42,58.30 28.49,57.63 26.57,56.97 25.87,55.96 25.17,54.95 24.83,53.55 24.49,52.15 24.05,50.83 23.61,49.51 23.12,48.19 22.63,46.86 21.43,46.97 20.22,47.07 18.95,47.23 17.67,47.39 16.33,47.77 14.98,48.14 14.05,48.79 13.12,49.45 12.13,50.37 11.14,51.29 9.94,52.33 8.75,53.36 7.66,53.97 6.57,54.58 5.16,55.07 3.75,55.55 2.55,55.68 1.36,55.81 0.26,55.21 -0.83,54.61 -1.48,52.55 -2.13,50.49 -1.89,49.30 -1.65,48.11 -1.39,46.84 -1.14,45.57 -1.13,44.27 -1.12,42.97 -1.11,41.88 -1.11,40.80 -1.11,39.47 -1.12,38.15 -1.12,36.77 -1.13,35.39 -1.13,34.22 -1.13,33.05 -0.20,33.75 0.72,34.45 -0.67,34.45 -2.07,34.45 -3.62,34.34 -5.18,34.23 -6.54,33.69 -7.91,33.16 -9.06,33.03 -10.20,32.91 -11.42,32.90 -12.64,32.90 -14.02,32.92 -15.40,32.93 -16.77,32.91 -18.14,32.88 -17.08,32.48 -16.03,32.09 -16.42,32.31 -16.81,32.54 -17.24,32.66 -17.67,32.78 -18.12,32.80 -18.57,32.82 -19.01,32.73 -19.46,32.64 -19.86,32.45 -20.27,32.25 -20.62,31.97 -20.97,31.68 -21.24,31.32 -21.51,30.96 -21.68,30.55 -21.86,30.13 -21.93,29.69 -22.00,29.24 -21.96,28.80 -21.93,28.35 -21.78,27.92 -21.64,27.49 -21.40,27.11 -21.16,26.73 -20.83,26.42 -20.51,26.11 -20.72,26.23 -20.94,26.35 -20.11,25.19 -19.28,24.04 -18.19,22.76 -17.10,21.47 -16.33,20.62 -15.55,19.77 -14.85,18.75 -14.15,17.73 -13.48,16.75 -12.81,15.77 -11.98,14.89 -11.15,14.01 -10.13,13.17 -9.10,12.33 -8.15,11.79 -7.20,11.24 -7.08,12.58 -6.96,13.91 -6.24,14.94 -5.52,15.98 -6.85,15.38 -8.17,14.79 -9.49,14.21 -10.80,13.63 -11.87,13.27 -12.94,12.90 -14.13,12.43 -15.32,11.96 -16.51,11.41 -17.70,10.87 -18.77,10.39 -19.84,9.92 -20.99,9.16 -22.14,8.41 -23.35,7.32 -24.55,6.23 -25.33,5.50 -26.10,4.76 -27.04,3.36 -27.97,1.96 -27.85,0.79 -27.74,-0.36 -26.27,-1.64 -24.80,-2.91 -23.16,-3.11 -21.51,-3.30 -20.31,-3.42 -19.11,-3.53 -17.59,-3.69 -16.06,-3.84 -14.69,-3.80 -13.33,-3.75 -12.11,-3.71 -10.89,-3.67 -9.67,-3.61 -8.45,-3.54 -7.30,-3.47 -6.15,-3.40 -5.07,-3.22 -3.99,-3.03 -2.84,-2.92 -1.70,-2.81 -0.76,-2.71 0.17,-2.61 0.48,-2.55 0.79,-2.49 1.08,-2.36 1.36,-2.23 1.61,-2.03 1.86,-1.84 2.05,-1.59 2.25,-1.34 2.37,-1.05 2.50,-0.76 2.56,-0.45 2.61,-0.14 2.59,0.17 2.57,0.48 2.47,0.78 2.38,1.09 2.21,1.36 2.05,1.62 1.82,1.85 1.60,2.07 1.33,2.23 1.06,2.39 0.75,2.48 0.45,2.58 0.14,2.59 -0.17,2.61 -0.17,2.61 L -0.17,2.61 Z"></path></g><g transform="translate(210.74035817684216 410.1038690834946) rotate(0 29.32555389404297 16.392857142857167)"><text x="29.32555389404297" y="0" font-family="Virgil, Segoe UI Emoji" font-size="26.228571428571435px" fill="#1971c2" text-anchor="middle" style="white-space: pre;" direction="ltr" dominant-baseline="text-before-edge">Feed</text></g><g transform="translate(276.16107463958906 42.989478926009724) rotate(0 189.84375 21.600000000000023)"><text x="189.84375" y="0" font-family="Cascadia, Segoe UI Emoji" font-size="36px" fill="#1e1e1e" text-anchor="middle" style="white-space: pre;" direction="ltr" dominant-baseline="text-before-edge">PeerPiper Protocol</text></g><g transform="translate(258.91155924413124 81.89985703283719) rotate(0 205.078125 12)"><text x="205.078125" y="0" font-family="Cascadia, Segoe UI Emoji" font-size="20px" fill="#2f9e44" text-anchor="middle" style="white-space: pre;" direction="ltr" dominant-baseline="text-before-edge">Stay connected, effectively forever</text></g><g transform="translate(653.7564868910954 443.0514966697424) rotate(0 60.51968104085631 59.13362288803438)" stroke="none"><path d="M8.76 40.38 C4.62 40.64, -9.85 39.59, -15.48 39.86 C-21.11 40.14, -23.88 41.82, -25.03 42.03 C-26.19 42.25, -23.37 38.89, -22.4 41.17 C-21.44 43.46, -23.56 51.55, -19.23 55.74 C-14.91 59.93, 1.02 62.24, 3.54 66.3 C6.06 70.37, -0.72 74.18, -4.14 80.11 C-7.56 86.04, -17.51 98.23, -16.97 101.88 C-16.43 105.53, -4.11 101.44, -0.91 102 C2.3 102.57, 0.28 104.92, 2.24 105.25 C4.21 105.57, 8.95 103.65, 10.88 103.97 C12.81 104.29, 13.24 101, 13.82 107.15 C14.4 113.31, 15.03 134.19, 14.35 140.91 C13.68 147.63, 9.47 146.11, 9.76 147.47 C10.05 148.84, 13.63 151.61, 16.09 149.1 C18.55 146.58, 22.35 134.73, 24.5 132.39 C26.66 130.04, 26.34 135.67, 29.03 135.05 C31.71 134.42, 38.37 129.02, 40.61 128.65 C42.86 128.27, 41.51 130.6, 42.51 132.8 C43.5 135.01, 45.32 137.84, 46.57 141.88 C47.82 145.93, 48.64 155.82, 49.99 157.06 C51.34 158.29, 53.35 150.82, 54.67 149.29 C55.98 147.76, 56.48 150.78, 57.88 147.88 C59.28 144.98, 61.51 135.99, 63.08 131.91 C64.66 127.82, 66.03 124.94, 67.32 123.37 C68.6 121.8, 67.29 119.1, 70.8 122.48 C74.31 125.86, 85.35 138.59, 88.38 143.65 C91.4 148.71, 87.1 157.42, 88.95 152.85 C90.8 148.28, 95.82 122.09, 99.48 116.25 C103.15 110.41, 106.49 116.83, 110.92 117.8 C115.36 118.77, 121.32 120.44, 126.12 122.07 C130.93 123.7, 137.94 128.16, 139.75 127.58 C141.57 126.99, 139.11 122.49, 137.04 118.56 C134.97 114.63, 130.22 109.04, 127.33 103.99 C124.44 98.94, 118.91 91.51, 119.7 88.26 C120.49 85.01, 128.96 86.83, 132.07 84.5 C135.19 82.18, 136.06 76.86, 138.41 74.32 C140.75 71.77, 144.79 71.04, 146.13 69.21 C147.48 67.38, 150.75 65.78, 146.46 63.33 C142.17 60.88, 125.36 63.01, 120.41 54.52 C115.45 46.04, 118.66 18.32, 116.73 12.44 C114.79 6.56, 111.51 16.89, 108.82 19.24 C106.13 21.59, 102.26 25.37, 100.57 26.54 C98.88 27.72, 100.19 26.04, 98.67 26.3 C97.15 26.55, 92.86 30.02, 91.45 28.1 C90.04 26.19, 91.55 22.56, 90.22 14.81 C88.88 7.06, 86.23 -15.57, 83.44 -18.4 C80.65 -21.23, 76.84 -5.5, 73.48 -2.19 C70.12 1.12, 65.52 0.82, 63.29 1.46 C61.05 2.1, 63.57 7.28, 60.04 1.64 C56.51 -3.99, 46.04 -26.26, 42.1 -32.33 C38.16 -38.41, 37.52 -35.17, 36.41 -34.81 C35.29 -34.45, 37.05 -37.18, 35.4 -30.17 C33.75 -23.16, 29.57 2.49, 26.53 7.25 C23.49 12.01, 20.2 1.34, 17.17 -1.62 C14.14 -4.58, 11.17 -8.59, 8.35 -10.52 C5.52 -12.45, 1.85 -14.36, 0.23 -13.21 C-1.4 -12.07, -0.81 -7.6, -1.4 -3.64 C-1.99 0.33, -5.06 3.46, -3.33 10.59 C-1.6 17.71, 7.17 34.19, 8.96 39.11" stroke="none" stroke-width="0" fill="#a5d8ff" fill-rule="evenodd"></path><path fill="#1971c2" d="M 8.88,43.05 Q 8.88,43.05 7.85,43.08 6.82,43.10 5.44,42.98 4.06,42.85 2.73,42.70 1.39,42.54 0.22,42.57 -0.93,42.60 -2.23,42.65 -3.52,42.69 -4.73,42.74 -5.94,42.78 -7.02,42.80 -8.09,42.82 -9.17,42.84 -10.25,42.86 -11.61,42.89 -12.96,42.91 -14.13,43.18 -15.31,43.44 -16.89,43.79 -18.47,44.14 -19.81,44.40 -21.14,44.66 -20.96,43.53 -20.77,42.40 -19.85,43.45 -18.93,44.50 -18.18,45.76 -17.43,47.02 -16.76,47.96 -16.08,48.89 -15.33,49.85 -14.58,50.82 -13.40,51.58 -12.23,52.34 -11.15,53.09 -10.06,53.85 -8.85,54.75 -7.63,55.65 -6.68,56.25 -5.73,56.84 -4.15,57.73 -2.56,58.62 -0.74,59.80 1.08,60.98 1.98,61.66 2.88,62.34 3.89,62.95 4.89,63.55 5.91,64.69 6.93,65.83 7.04,67.09 7.15,68.35 6.70,69.43 6.25,70.51 5.01,71.95 3.77,73.38 2.59,74.51 1.41,75.63 0.68,76.60 -0.04,77.57 -0.86,78.87 -1.67,80.17 -2.42,81.80 -3.16,83.44 -4.17,85.48 -5.18,87.52 -5.72,88.51 -6.26,89.50 -7.13,90.96 -7.99,92.42 -8.52,93.57 -9.06,94.72 -9.80,95.99 -10.55,97.25 -11.20,98.35 -11.84,99.46 -12.12,100.54 -12.39,101.62 -12.87,102.63 -13.36,103.63 -13.67,103.91 -13.98,104.19 -14.34,104.39 -14.71,104.59 -15.11,104.69 -15.52,104.80 -15.93,104.80 -16.35,104.81 -16.75,104.71 -17.16,104.62 -17.53,104.43 -17.90,104.24 -18.22,103.96 -18.53,103.69 -18.77,103.35 -19.01,103.01 -19.17,102.62 -19.32,102.23 -19.37,101.82 -19.43,101.41 -19.38,100.99 -19.34,100.58 -19.19,100.19 -19.05,99.80 -18.82,99.45 -18.58,99.11 -16.54,98.62 -14.50,98.13 -13.23,98.16 -11.96,98.19 -10.13,98.23 -8.30,98.26 -6.65,98.25 -5.00,98.23 -3.08,98.40 -1.17,98.57 -0.07,99.02 1.02,99.48 2.13,100.06 3.24,100.64 4.68,100.99 6.12,101.33 7.47,101.34 8.82,101.35 10.52,101.67 12.22,101.99 13.22,102.69 14.22,103.38 14.90,104.80 15.58,106.22 15.78,107.40 15.99,108.59 16.00,109.89 16.02,111.20 16.00,112.87 15.97,114.54 15.93,116.47 15.88,118.40 15.85,120.30 15.82,122.20 15.80,124.05 15.78,125.89 15.77,127.53 15.77,129.18 15.79,130.33 15.81,131.49 15.83,133.04 15.86,134.60 15.86,136.04 15.86,137.49 15.49,139.56 15.13,141.63 14.94,143.26 14.75,144.89 14.57,146.14 14.39,147.40 13.20,146.81 12.00,146.22 13.05,145.43 14.10,144.64 15.15,143.71 16.20,142.77 16.83,141.81 17.47,140.84 18.58,139.27 19.68,137.70 20.67,136.39 21.65,135.09 23.18,133.54 24.72,132.00 25.71,131.36 26.71,130.72 27.82,130.24 28.93,129.77 30.87,129.18 32.80,128.60 34.26,128.38 35.72,128.16 36.76,127.87 37.80,127.59 40.06,127.99 42.32,128.40 43.49,129.46 44.66,130.52 45.30,131.57 45.93,132.61 46.62,134.24 47.31,135.86 47.86,137.22 48.42,138.59 48.89,140.21 49.35,141.84 49.68,143.45 50.01,145.06 50.25,146.30 50.49,147.54 50.75,148.78 51.00,150.01 51.20,151.30 51.39,152.59 49.89,151.97 48.39,151.36 49.25,150.45 50.11,149.53 51.39,147.96 52.67,146.38 53.45,144.57 54.23,142.77 54.70,141.66 55.17,140.56 55.76,139.35 56.36,138.14 56.84,137.06 57.32,135.98 57.94,134.85 58.55,133.71 59.16,132.70 59.77,131.69 60.72,130.43 61.66,129.18 62.39,128.22 63.13,127.26 64.40,125.70 65.67,124.13 66.50,123.07 67.33,122.01 68.42,121.32 69.52,120.63 71.59,120.58 73.66,120.54 74.72,121.27 75.77,122.01 77.13,124.22 78.48,126.43 79.39,128.29 80.31,130.16 81.35,132.14 82.39,134.13 83.40,135.92 84.40,137.71 85.34,138.88 86.27,140.06 87.51,141.57 88.75,143.09 89.32,143.99 89.89,144.90 90.43,146.01 90.97,147.13 91.64,148.41 92.32,149.70 92.82,150.86 93.32,152.02 93.42,152.35 93.52,152.69 93.60,153.04 93.68,153.40 93.67,153.76 93.67,154.13 93.57,154.48 93.48,154.83 93.30,155.15 93.13,155.47 92.88,155.74 92.64,156.01 92.33,156.21 92.03,156.41 91.69,156.53 91.34,156.66 90.98,156.69 90.62,156.73 90.26,156.68 89.90,156.63 89.56,156.50 89.22,156.36 88.92,156.15 88.63,155.94 88.39,155.66 88.15,155.38 87.99,155.06 87.83,154.73 88.25,153.14 88.67,151.56 88.94,149.86 89.21,148.15 89.53,146.62 89.84,145.08 90.26,143.35 90.69,141.62 91.25,139.51 91.81,137.41 92.12,136.32 92.43,135.24 93.15,132.95 93.87,130.67 94.27,128.72 94.68,126.77 95.09,124.80 95.50,122.82 96.09,121.12 96.68,119.42 97.00,118.39 97.32,117.37 98.20,115.86 99.08,114.34 100.16,113.96 101.25,113.58 102.67,113.87 104.09,114.16 105.27,114.56 106.46,114.95 108.00,115.62 109.55,116.29 110.85,116.66 112.15,117.03 113.55,117.35 114.94,117.67 116.75,117.95 118.55,118.22 120.27,118.61 121.99,119.01 123.62,119.23 125.25,119.45 127.07,119.77 128.88,120.10 130.18,120.43 131.47,120.76 132.62,121.19 133.77,121.62 135.11,121.81 136.44,122.00 135.90,122.95 135.35,123.89 134.61,122.54 133.88,121.18 133.21,119.96 132.55,118.75 131.66,117.43 130.78,116.12 129.87,114.61 128.95,113.09 128.06,111.61 127.16,110.13 126.61,109.15 126.05,108.16 125.19,106.64 124.32,105.11 123.66,103.88 122.99,102.66 122.42,100.97 121.85,99.29 121.34,97.80 120.83,96.30 120.50,95.28 120.16,94.26 119.73,92.89 119.30,91.52 118.95,90.47 118.59,89.42 118.73,87.80 118.87,86.19 119.79,85.12 120.72,84.05 121.97,83.33 123.22,82.60 124.61,82.05 126.01,81.50 127.37,81.05 128.73,80.60 129.89,79.93 131.04,79.25 131.90,78.53 132.77,77.80 134.34,76.62 135.92,75.44 137.09,74.38 138.25,73.33 139.22,72.01 140.19,70.69 140.96,69.59 141.72,68.48 142.00,67.32 142.29,66.17 140.34,65.45 138.40,64.73 137.40,64.22 136.39,63.70 135.37,63.21 134.36,62.72 132.50,61.98 130.64,61.24 129.37,60.73 128.10,60.22 126.70,59.79 125.30,59.35 123.83,58.55 122.35,57.75 121.29,57.24 120.22,56.73 118.68,55.85 117.14,54.97 116.39,53.62 115.65,52.27 115.33,50.84 115.00,49.40 114.95,47.93 114.90,46.46 114.92,44.76 114.93,43.05 114.95,41.30 114.97,39.55 114.93,37.68 114.89,35.82 114.88,34.63 114.86,33.44 114.74,31.52 114.61,29.59 114.47,27.75 114.33,25.90 114.23,24.31 114.12,22.73 113.97,21.52 113.82,20.32 113.72,18.78 113.61,17.24 113.43,15.95 113.24,14.66 113.31,13.52 113.38,12.37 113.09,11.90 112.80,11.42 112.85,11.01 112.90,10.60 113.05,10.21 113.20,9.81 113.43,9.47 113.67,9.13 113.98,8.85 114.29,8.57 114.66,8.38 115.03,8.18 115.43,8.08 115.84,7.98 116.25,7.98 116.67,7.98 117.08,8.08 117.48,8.18 117.85,8.37 118.22,8.56 118.53,8.84 118.85,9.11 119.08,9.46 119.32,9.80 119.47,10.19 119.62,10.58 119.67,10.99 119.72,11.40 118.86,12.98 117.99,14.55 116.94,15.74 115.89,16.93 115.13,17.69 114.36,18.44 113.23,19.64 112.10,20.84 111.14,21.85 110.17,22.85 109.03,23.83 107.90,24.80 106.20,26.02 104.50,27.24 102.88,28.19 101.27,29.13 99.70,29.52 98.13,29.91 97.04,30.21 95.96,30.51 94.17,30.24 92.39,29.98 91.56,29.28 90.72,28.59 89.80,26.77 88.87,24.94 88.55,23.83 88.24,22.71 87.91,21.33 87.59,19.95 87.35,18.59 87.11,17.23 86.93,16.15 86.75,15.07 86.59,13.92 86.43,12.77 86.07,10.97 85.72,9.17 85.34,7.61 84.96,6.05 84.63,4.86 84.30,3.67 83.87,1.98 83.44,0.28 83.00,-1.51 82.57,-3.31 82.18,-5.06 81.80,-6.81 81.60,-7.98 81.40,-9.15 80.97,-11.03 80.54,-12.90 80.29,-14.03 80.04,-15.16 79.99,-15.54 79.94,-15.93 79.99,-16.31 80.03,-16.70 80.17,-17.07 80.31,-17.43 80.52,-17.75 80.74,-18.07 81.03,-18.33 81.32,-18.59 81.67,-18.78 82.01,-18.96 82.39,-19.06 82.77,-19.15 83.16,-19.15 83.55,-19.15 83.92,-19.06 84.30,-18.97 84.65,-18.79 84.99,-18.61 85.29,-18.36 85.58,-18.10 85.80,-17.78 86.03,-17.46 86.17,-17.10 86.31,-16.74 85.29,-14.81 84.27,-12.88 83.20,-11.13 82.13,-9.38 81.32,-8.45 80.52,-7.53 79.67,-6.50 78.83,-5.47 77.72,-3.92 76.60,-2.38 75.24,-1.12 73.89,0.13 72.75,0.93 71.62,1.72 70.29,2.40 68.97,3.08 67.97,3.94 66.97,4.79 65.56,5.64 64.14,6.50 62.42,6.39 60.69,6.28 59.15,4.97 57.61,3.66 56.87,2.40 56.14,1.14 55.60,0.10 55.06,-0.94 54.29,-2.57 53.52,-4.21 52.98,-5.13 52.43,-6.04 51.74,-7.31 51.04,-8.59 50.20,-10.13 49.37,-11.67 48.30,-13.67 47.23,-15.67 46.63,-16.67 46.03,-17.68 45.43,-18.64 44.84,-19.59 44.25,-20.53 43.67,-21.46 43.08,-22.39 42.49,-23.31 41.93,-24.32 41.37,-25.33 40.88,-26.29 40.38,-27.25 39.50,-28.88 38.62,-30.51 37.94,-31.55 37.25,-32.59 37.50,-31.29 37.75,-29.99 37.22,-28.26 36.69,-26.52 36.37,-24.94 36.05,-23.37 35.63,-21.46 35.20,-19.56 34.87,-17.86 34.55,-16.16 34.27,-15.12 34.00,-14.08 33.42,-12.03 32.83,-9.97 32.46,-8.08 32.09,-6.19 31.80,-4.60 31.50,-3.02 31.35,-1.91 31.20,-0.80 31.07,0.41 30.95,1.63 30.55,3.09 30.16,4.55 28.86,6.11 27.56,7.68 26.26,7.91 24.96,8.15 23.86,7.68 22.76,7.22 21.11,6.18 19.46,5.14 18.45,4.23 17.45,3.31 16.19,2.39 14.93,1.48 13.70,0.89 12.48,0.31 11.21,-0.78 9.94,-1.87 9.11,-2.64 8.29,-3.42 7.28,-4.31 6.28,-5.20 4.53,-5.74 2.79,-6.27 1.51,-6.73 0.23,-7.18 0.74,-8.12 1.25,-9.06 1.39,-7.26 1.53,-5.47 1.44,-4.39 1.34,-3.32 1.28,-2.18 1.22,-1.05 1.19,0.77 1.17,2.60 1.18,4.05 1.19,5.51 1.27,6.72 1.35,7.94 1.50,9.42 1.64,10.90 1.95,12.03 2.26,13.16 2.73,14.82 3.20,16.47 3.85,17.96 4.50,19.45 4.97,20.82 5.44,22.20 5.99,23.50 6.53,24.80 7.19,26.11 7.86,27.42 8.48,28.76 9.10,30.10 9.48,31.14 9.86,32.17 10.32,33.86 10.78,35.55 11.17,36.66 11.56,37.76 11.68,38.31 11.81,38.86 11.75,39.41 11.69,39.97 11.45,40.48 11.22,40.99 10.83,41.40 10.45,41.81 9.95,42.07 9.46,42.33 8.90,42.43 8.35,42.52 7.79,42.43 7.24,42.34 6.74,42.08 6.25,41.81 5.86,41.41 5.47,41.00 5.24,40.49 5.00,39.98 4.94,39.42 4.88,38.87 5.00,38.32 5.12,37.77 5.41,37.29 5.70,36.81 6.12,36.44 6.55,36.08 7.07,35.87 7.59,35.66 8.15,35.63 8.71,35.60 9.25,35.75 9.79,35.90 10.26,36.21 10.72,36.53 11.06,36.97 11.40,37.42 11.58,37.95 11.76,38.48 11.77,39.05 11.77,39.61 11.59,40.14 11.41,40.67 11.07,41.12 10.73,41.56 10.27,41.88 9.80,42.20 9.26,42.35 8.72,42.50 8.16,42.47 7.60,42.44 7.08,42.23 6.56,42.02 6.13,41.66 5.70,41.30 5.41,40.82 5.12,40.34 5.12,40.34 5.12,40.34 4.48,38.28 3.84,36.22 3.41,34.87 2.99,33.53 2.47,32.22 1.95,30.92 1.29,29.67 0.64,28.43 0.16,27.23 -0.30,26.03 -0.89,24.52 -1.47,23.00 -1.87,21.85 -2.26,20.71 -2.75,19.44 -3.23,18.17 -3.69,16.59 -4.15,15.01 -4.55,13.37 -4.95,11.72 -5.08,10.28 -5.20,8.84 -5.29,7.17 -5.38,5.50 -5.37,4.03 -5.35,2.57 -5.35,0.68 -5.34,-1.19 -5.35,-2.42 -5.36,-3.64 -5.33,-5.03 -5.31,-6.41 -5.06,-8.45 -4.81,-10.50 -4.15,-11.62 -3.48,-12.73 -1.55,-13.52 0.37,-14.32 1.50,-14.06 2.64,-13.80 3.99,-13.31 5.34,-12.82 7.06,-12.33 8.79,-11.85 9.75,-11.17 10.71,-10.49 11.75,-9.56 12.80,-8.63 13.88,-7.60 14.96,-6.57 15.89,-5.76 16.82,-4.96 17.80,-4.49 18.78,-4.02 19.75,-3.32 20.72,-2.61 22.00,-1.52 23.27,-0.44 24.59,0.49 25.91,1.42 24.88,1.83 23.84,2.25 24.18,0.95 24.52,-0.34 24.80,-1.61 25.08,-2.88 25.34,-4.31 25.61,-5.75 25.95,-7.52 26.30,-9.29 26.51,-10.37 26.72,-11.46 27.00,-12.72 27.28,-13.99 27.74,-15.64 28.21,-17.30 28.58,-19.24 28.95,-21.19 29.31,-22.88 29.67,-24.57 30.04,-26.31 30.40,-28.04 30.99,-30.13 31.58,-32.23 32.35,-34.15 33.12,-36.07 34.28,-37.52 35.44,-38.98 36.58,-39.20 37.72,-39.42 39.27,-38.93 40.83,-38.43 41.71,-37.19 42.60,-35.95 43.28,-34.77 43.97,-33.59 44.90,-31.82 45.84,-30.06 46.75,-28.36 47.66,-26.66 48.27,-25.74 48.87,-24.82 49.49,-23.89 50.10,-22.96 50.74,-22.01 51.37,-21.05 52.04,-20.04 52.72,-19.02 53.93,-17.05 55.14,-15.08 56.01,-13.54 56.88,-12.01 57.55,-10.76 58.22,-9.50 58.91,-8.25 59.60,-7.00 60.28,-5.57 60.97,-4.14 61.97,-2.45 62.98,-0.76 63.83,-1.47 64.68,-2.18 66.10,-2.85 67.53,-3.52 68.58,-4.22 69.63,-4.92 70.54,-5.70 71.46,-6.49 72.35,-7.67 73.24,-8.85 73.96,-9.65 74.68,-10.45 75.73,-11.69 76.79,-12.94 77.95,-14.68 79.11,-16.42 80.02,-17.39 80.93,-18.36 80.49,-16.76 80.04,-15.16 79.99,-15.54 79.94,-15.93 79.99,-16.31 80.03,-16.70 80.17,-17.07 80.31,-17.43 80.52,-17.75 80.74,-18.07 81.03,-18.33 81.32,-18.59 81.67,-18.78 82.01,-18.96 82.39,-19.05 82.77,-19.15 83.16,-19.15 83.55,-19.15 83.92,-19.06 84.30,-18.97 84.65,-18.79 84.99,-18.61 85.29,-18.36 85.58,-18.10 85.80,-17.78 86.03,-17.46 86.17,-17.10 86.31,-16.74 86.36,-16.19 86.42,-15.64 86.76,-14.04 87.11,-12.45 87.56,-10.45 88.02,-8.45 88.45,-6.55 88.89,-4.65 89.33,-2.86 89.78,-1.07 90.19,0.55 90.60,2.18 90.88,3.42 91.16,4.66 91.48,6.16 91.81,7.65 92.23,9.74 92.66,11.83 93.04,13.89 93.41,15.96 93.67,17.05 93.92,18.14 94.36,19.43 94.81,20.72 94.77,22.36 94.74,24.00 96.51,23.60 98.28,23.21 99.50,22.49 100.72,21.78 102.17,20.66 103.63,19.55 104.93,18.49 106.24,17.43 107.24,16.30 108.23,15.16 109.48,13.82 110.73,12.47 111.76,11.95 112.80,11.42 112.85,11.01 112.90,10.60 113.05,10.21 113.20,9.82 113.43,9.47 113.67,9.13 113.98,8.85 114.29,8.57 114.66,8.38 115.03,8.18 115.43,8.08 115.84,7.98 116.25,7.98 116.67,7.98 117.08,8.08 117.48,8.18 117.85,8.37 118.22,8.56 118.53,8.84 118.85,9.11 119.08,9.45 119.32,9.80 119.47,10.19 119.62,10.58 119.67,10.99 119.72,11.40 119.88,12.05 120.03,12.69 120.02,14.14 120.00,15.58 120.13,16.91 120.26,18.25 120.38,19.48 120.51,20.71 120.63,22.28 120.75,23.84 120.80,25.54 120.86,27.23 121.02,29.12 121.18,31.02 121.36,33.15 121.54,35.28 121.65,36.47 121.77,37.66 121.80,39.59 121.84,41.51 121.85,43.14 121.87,44.76 121.90,46.17 121.92,47.58 121.93,48.84 121.94,50.09 123.18,50.85 124.43,51.61 125.50,52.16 126.56,52.71 127.67,53.20 128.78,53.69 130.38,54.28 131.97,54.88 133.38,55.53 134.79,56.19 135.89,56.57 136.98,56.95 138.07,57.43 139.16,57.90 140.31,58.41 141.45,58.92 142.62,59.47 143.78,60.03 144.88,60.64 145.97,61.26 146.85,62.07 147.74,62.89 148.26,63.93 148.79,64.98 148.83,66.34 148.86,67.70 148.45,69.07 148.03,70.43 147.17,71.95 146.31,73.48 145.34,74.74 144.38,76.01 143.63,76.98 142.88,77.95 142.12,78.70 141.36,79.46 140.52,80.16 139.68,80.86 138.46,81.77 137.24,82.69 136.29,83.43 135.34,84.17 134.23,84.84 133.12,85.50 132.06,86.06 131.00,86.61 129.82,87.12 128.63,87.63 127.14,88.32 125.64,89.00 126.11,90.62 126.58,92.23 126.90,93.34 127.22,94.45 127.69,95.85 128.16,97.24 128.80,99.04 129.43,100.84 130.09,102.09 130.75,103.34 131.64,104.83 132.53,106.33 133.56,107.97 134.60,109.61 135.33,110.88 136.07,112.14 137.20,113.77 138.32,115.39 138.89,116.36 139.47,117.33 140.20,119.34 140.93,121.34 141.11,122.51 141.29,123.69 140.54,125.68 139.80,127.66 137.84,128.18 135.89,128.69 134.21,128.44 132.53,128.19 130.67,127.43 128.82,126.67 127.24,126.15 125.66,125.63 124.18,125.35 122.70,125.07 120.76,124.68 118.81,124.30 117.41,123.89 116.00,123.48 114.94,123.32 113.88,123.17 112.32,122.91 110.76,122.66 109.10,122.31 107.44,121.95 106.05,121.52 104.66,121.08 103.30,120.56 101.95,120.03 102.77,119.20 103.60,118.38 103.26,119.42 102.92,120.47 102.40,121.74 101.88,123.01 101.41,124.49 100.93,125.97 100.55,127.97 100.16,129.97 99.90,131.15 99.63,132.32 99.29,133.69 98.94,135.05 98.40,136.94 97.85,138.84 97.35,140.88 96.86,142.93 96.41,144.68 95.97,146.43 95.55,148.22 95.13,150.01 94.64,151.51 94.15,153.02 93.65,154.21 93.15,155.39 93.33,154.04 93.52,152.69 93.60,153.04 93.68,153.40 93.67,153.76 93.67,154.13 93.57,154.48 93.48,154.83 93.30,155.15 93.13,155.47 92.88,155.74 92.64,156.01 92.33,156.21 92.03,156.41 91.69,156.53 91.34,156.66 90.98,156.69 90.62,156.73 90.26,156.68 89.90,156.63 89.56,156.50 89.22,156.36 88.92,156.15 88.63,155.94 88.39,155.66 88.15,155.38 87.99,155.06 87.83,154.73 87.63,153.91 87.44,153.10 86.95,151.80 86.45,150.50 86.09,149.29 85.72,148.08 85.26,146.94 84.80,145.81 83.84,144.25 82.89,142.70 81.86,141.35 80.83,140.00 79.61,138.32 78.40,136.65 77.02,134.80 75.65,132.96 74.49,131.37 73.33,129.79 72.49,128.03 71.65,126.27 70.91,127.10 70.17,127.93 68.94,129.37 67.70,130.81 67.04,131.66 66.38,132.50 65.64,133.64 64.90,134.77 63.89,136.55 62.88,138.34 62.40,139.54 61.91,140.74 61.44,141.80 60.98,142.87 60.55,144.02 60.12,145.17 59.69,146.32 59.25,147.47 58.64,148.84 58.04,150.21 57.33,151.26 56.61,152.30 55.66,153.53 54.70,154.75 53.85,155.56 53.00,156.36 51.69,157.28 50.37,158.19 49.24,158.03 48.10,157.87 46.35,155.97 44.59,154.07 44.40,153.00 44.21,151.92 44.06,150.82 43.91,149.71 43.59,148.02 43.27,146.33 42.97,144.93 42.67,143.53 42.37,142.40 42.06,141.26 41.44,139.78 40.82,138.30 40.37,137.23 39.93,136.16 38.99,135.18 38.05,134.21 36.31,134.53 34.57,134.86 32.99,135.34 31.40,135.81 30.19,136.42 28.98,137.03 27.88,138.18 26.79,139.34 25.89,140.54 24.98,141.73 24.10,143.02 23.21,144.31 22.60,145.31 21.98,146.32 20.71,147.60 19.44,148.87 17.73,150.15 16.02,151.43 15.01,151.89 13.99,152.35 12.42,152.61 10.85,152.87 9.76,152.20 8.68,151.53 8.09,149.62 7.50,147.70 7.70,146.26 7.89,144.82 8.10,143.46 8.32,142.10 8.45,140.98 8.58,139.87 8.80,138.68 9.02,137.49 9.02,136.04 9.02,134.60 9.04,133.04 9.07,131.49 9.09,130.33 9.11,129.18 9.10,127.53 9.10,125.89 9.08,124.05 9.06,122.20 9.03,120.30 8.99,118.40 8.95,116.47 8.90,114.54 8.87,112.90 8.84,111.25 9.36,109.80 9.87,108.35 8.69,108.34 7.50,108.34 6.03,108.33 4.56,108.32 3.20,108.10 1.83,107.88 0.75,107.19 -0.32,106.49 -1.34,105.87 -2.36,105.24 -3.68,105.15 -5.00,105.06 -6.15,105.05 -7.30,105.04 -8.61,105.03 -9.91,105.02 -10.99,105.04 -12.07,105.06 -13.94,104.99 -15.81,104.92 -14.59,104.28 -13.36,103.63 -13.67,103.91 -13.97,104.19 -14.34,104.39 -14.71,104.59 -15.11,104.69 -15.52,104.80 -15.93,104.80 -16.35,104.81 -16.75,104.71 -17.16,104.62 -17.53,104.43 -17.90,104.24 -18.22,103.96 -18.53,103.69 -18.77,103.35 -19.01,103.01 -19.17,102.62 -19.32,102.23 -19.37,101.82 -19.43,101.41 -19.38,100.99 -19.34,100.58 -19.19,100.19 -19.05,99.80 -18.82,99.45 -18.58,99.11 -18.75,99.48 -18.92,99.86 -18.56,98.81 -18.21,97.77 -17.58,96.41 -16.96,95.05 -16.22,93.79 -15.49,92.53 -14.90,91.53 -14.32,90.53 -13.55,89.21 -12.79,87.88 -11.95,86.38 -11.11,84.87 -10.61,83.64 -10.12,82.41 -9.34,80.67 -8.57,78.93 -8.14,77.88 -7.71,76.83 -7.20,75.88 -6.68,74.93 -5.68,73.46 -4.67,72.00 -3.53,70.77 -2.39,69.54 -1.16,68.38 0.06,67.21 0.67,68.43 1.29,69.64 -0.24,68.64 -1.78,67.63 -2.61,66.69 -3.43,65.74 -4.62,65.25 -5.81,64.75 -7.29,63.98 -8.76,63.21 -9.74,62.71 -10.73,62.21 -11.86,61.37 -12.99,60.53 -14.05,59.80 -15.12,59.08 -16.13,58.43 -17.15,57.78 -18.27,56.93 -19.39,56.08 -20.15,55.16 -20.91,54.24 -21.83,53.04 -22.74,51.85 -23.72,50.34 -24.70,48.83 -25.52,47.79 -26.34,46.74 -27.15,45.09 -27.95,43.44 -27.91,42.31 -27.86,41.18 -26.41,39.70 -24.95,38.21 -23.56,38.00 -22.16,37.78 -20.41,37.50 -18.66,37.21 -17.22,36.79 -15.78,36.36 -14.37,36.20 -12.96,36.03 -11.61,36.05 -10.25,36.08 -9.17,36.10 -8.09,36.12 -7.02,36.14 -5.94,36.16 -4.72,36.21 -3.51,36.25 -2.17,36.31 -0.83,36.38 0.40,36.47 1.65,36.56 3.14,36.86 4.64,37.17 5.74,37.42 6.84,37.67 7.86,37.69 8.88,37.72 9.20,37.76 9.51,37.80 9.81,37.91 10.11,38.03 10.38,38.21 10.64,38.39 10.86,38.63 11.07,38.87 11.22,39.16 11.37,39.44 11.44,39.75 11.52,40.06 11.52,40.39 11.52,40.71 11.44,41.02 11.37,41.33 11.22,41.61 11.07,41.90 10.86,42.14 10.64,42.38 10.38,42.56 10.11,42.74 9.81,42.86 9.51,42.97 9.20,43.01 8.88,43.05 8.88,43.05 L 8.88,43.05 Z"></path></g><g transform="translate(671.5481967948081 468.02601013801245) rotate(0 47.731048583984375 49.178571428571445)"><text x="47.731048583984375" y="0" font-family="Virgil, Segoe UI Emoji" font-size="26.228571428571435px" fill="#1e1e1e" text-anchor="middle" style="white-space: pre;" direction="ltr" dominant-baseline="text-before-edge">Extend,</text><text x="47.731048583984375" y="32.78571428571429" font-family="Virgil, Segoe UI Emoji" font-size="26.228571428571435px" fill="#1e1e1e" text-anchor="middle" style="white-space: pre;" direction="ltr" dominant-baseline="text-before-edge">Prove,</text><text x="47.731048583984375" y="65.57142857142858" font-family="Virgil, Segoe UI Emoji" font-size="26.228571428571435px" fill="#1e1e1e" text-anchor="middle" style="white-space: pre;" direction="ltr" dominant-baseline="text-before-edge">Publish</text></g></svg>