<svg version="1.1" xmlns="http://www.w3.org/2000/svg" viewBox="0 0 904.6907601376515 662.9885422094088" width="904.6907601376515" height="662.9885422094088">
  <!-- svg-source:excalidraw -->
  
  <defs>
    <style class="style-fonts">
      @font-face {
        font-family: "Virgil";
        src: url("https://excalidraw.com/Virgil.woff2");
      }
      @font-face {
        font-family: "Cascadia";
        src: url("https://excalidraw.com/Cascadia.woff2");
      }
      @font-face {
        font-family: "Assistant";
        src: url("https://excalidraw.com/Assistant-Regular.woff2");
      }
    </style>
    
  </defs>
  <g stroke-linecap="round" transform="translate(10 10) rotate(0 442.34538006882576 321.4942711047044)"><path d="M32 0 C282.64 0, 533.27 0, 852.69 0 C874.02 0, 884.69 10.67, 884.69 32 C884.69 213.04, 884.69 394.07, 884.69 610.99 C884.69 632.32, 874.02 642.99, 852.69 642.99 C575.48 642.99, 298.27 642.99, 32 642.99 C10.67 642.99, 0 632.32, 0 610.99 C0 385.98, 0 160.97, 0 32 C0 10.67, 10.67 0, 32 0" stroke="none" stroke-width="0" fill="#ffffff"></path><path d="M32 0 C264.27 0, 496.53 0, 852.69 0 M32 0 C205.25 0, 378.51 0, 852.69 0 M852.69 0 C874.02 0, 884.69 10.67, 884.69 32 M852.69 0 C874.02 0, 884.69 10.67, 884.69 32 M884.69 32 C884.69 225.03, 884.69 418.05, 884.69 610.99 M884.69 32 C884.69 232.63, 884.69 433.26, 884.69 610.99 M884.69 610.99 C884.69 632.32, 874.02 642.99, 852.69 642.99 M884.69 610.99 C884.69 632.32, 874.02 642.99, 852.69 642.99 M852.69 642.99 C646.83 642.99, 440.97 642.99, 32 642.99 M852.69 642.99 C661.93 642.99, 471.16 642.99, 32 642.99 M32 642.99 C10.67 642.99, 0 632.32, 0 610.99 M32 642.99 C10.67 642.99, 0 632.32, 0 610.99 M0 610.99 C0 392.53, 0 174.08, 0 32 M0 610.99 C0 397.11, 0 183.24, 0 32 M0 32 C0 10.67, 10.67 0, 32 0 M0 32 C0 10.67, 10.67 0, 32 0" stroke="#1e1e1e" stroke-width="4" fill="none"></path></g><g stroke-linecap="round" transform="translate(333.3522370593346 144.43547349830033) rotate(0 137.53333198980454 180.35506539322276)"><path d="M32 0 C100.28 0, 168.57 0, 243.07 0 C264.4 0, 275.07 10.67, 275.07 32 C275.07 147.88, 275.07 263.77, 275.07 328.71 C275.07 350.04, 264.4 360.71, 243.07 360.71 C175.98 360.71, 108.89 360.71, 32 360.71 C10.67 360.71, 0 350.04, 0 328.71 C0 229.54, 0 130.37, 0 32 C0 10.67, 10.67 0, 32 0" stroke="none" stroke-width="0" fill="#fff9db"></path><path d="M32 0 C78.92 0, 125.84 0, 243.07 0 M243.07 0 C264.4 0, 275.07 10.67, 275.07 32 M275.07 32 C275.07 148.89, 275.07 265.77, 275.07 328.71 M275.07 328.71 C275.07 350.04, 264.4 360.71, 243.07 360.71 M243.07 360.71 C199.36 360.71, 155.65 360.71, 32 360.71 M32 360.71 C10.67 360.71, 0 350.04, 0 328.71 M0 328.71 C0 247.64, 0 166.57, 0 32 M0 32 C0 10.67, 10.67 0, 32 0" stroke="#1e1e1e" stroke-width="1.5" fill="none" stroke-dasharray="1.5 7"></path></g><g transform="translate(344.3230690491391 480.94560428474585) rotate(0 126.56250000000045 9.600000000000001)"><text x="126.5625" y="0" font-family="Cascadia, Segoe UI Emoji" font-size="16px" fill="#1e1e1e" text-anchor="middle" style="white-space: pre;" direction="ltr" dominant-baseline="text-before-edge">"content addressed network"</text></g><g stroke-linecap="round" transform="translate(336.8787327513792 146.45061389375536) rotate(0 135.01440649548522 159.69987633980892)"><path d="M32 0 C81.28 0, 130.56 0, 238.03 0 C259.36 0, 270.03 10.67, 270.03 32 C270.03 111.84, 270.03 191.68, 270.03 287.4 C270.03 308.73, 259.36 319.4, 238.03 319.4 C196.3 319.4, 154.57 319.4, 32 319.4 C10.67 319.4, 0 308.73, 0 287.4 C0 195.08, 0 102.75, 0 32 C0 10.67, 10.67 0, 32 0" stroke="none" stroke-width="0" fill="#e9ecef"></path><path d="M32 0 C77.16 0, 122.32 0, 238.03 0 M32 0 C112.68 0, 193.37 0, 238.03 0 M238.03 0 C259.36 0, 270.03 10.67, 270.03 32 M238.03 0 C259.36 0, 270.03 10.67, 270.03 32 M270.03 32 C270.03 119.24, 270.03 206.49, 270.03 287.4 M270.03 32 C270.03 95.91, 270.03 159.81, 270.03 287.4 M270.03 287.4 C270.03 308.73, 259.36 319.4, 238.03 319.4 M270.03 287.4 C270.03 308.73, 259.36 319.4, 238.03 319.4 M238.03 319.4 C195.44 319.4, 152.85 319.4, 32 319.4 M238.03 319.4 C168.24 319.4, 98.45 319.4, 32 319.4 M32 319.4 C10.67 319.4, 0 308.73, 0 287.4 M32 319.4 C10.67 319.4, 0 308.73, 0 287.4 M0 287.4 C0 208.39, 0 129.38, 0 32 M0 287.4 C0 203.03, 0 118.65, 0 32 M0 32 C0 10.67, 10.67 0, 32 0 M0 32 C0 10.67, 10.67 0, 32 0" stroke="#1e1e1e" stroke-width="1" fill="none"></path></g><g transform="translate(443.76813924686394 151.45061389375536) rotate(0 28.125 9.599999999999994)"><text x="28.125" y="0" font-family="Cascadia, Segoe UI Emoji" font-size="16px" fill="#1e1e1e" text-anchor="middle" style="white-space: pre;" direction="ltr" dominant-baseline="text-before-edge">Hashes</text></g><g stroke-linecap="round" transform="translate(131.78277042813352 201.06665434560557) rotate(0 21.5 19)"><path d="M25.7 -0.16 C30.19 0.16, 35.38 3.37, 38.32 6.52 C41.27 9.68, 43.44 14.58, 43.37 18.77 C43.3 22.97, 40.98 28.58, 37.93 31.69 C34.87 34.8, 29.6 36.72, 25.04 37.42 C20.47 38.12, 14.52 37.92, 10.54 35.89 C6.57 33.87, 2.71 29.16, 1.19 25.28 C-0.32 21.39, -0.08 16.37, 1.45 12.56 C2.97 8.75, 6.18 4.41, 10.33 2.42 C14.48 0.43, 23.59 0.82, 26.34 0.61 C29.08 0.41, 26.86 0.96, 26.78 1.2 M16.5 0.81 C20.53 -0.22, 26.65 1.11, 30.82 2.92 C35 4.72, 39.58 8.07, 41.56 11.66 C43.54 15.24, 44.23 20.6, 42.7 24.41 C41.18 28.23, 36.33 32.42, 32.39 34.56 C28.44 36.69, 23.43 37.74, 19.06 37.21 C14.68 36.68, 9.41 34.42, 6.14 31.39 C2.87 28.36, -0.28 22.92, -0.56 19.02 C-0.85 15.12, 1.4 11.09, 4.43 8.01 C7.46 4.93, 15.41 1.73, 17.61 0.53 C19.8 -0.68, 17.55 0.55, 17.6 0.78" stroke="none" stroke-width="0" fill="#f08c00"></path><path d="M24.83 0.13 C29.2 0.58, 35.42 3.98, 38.41 7.08 C41.4 10.17, 42.92 14.77, 42.78 18.71 C42.64 22.65, 40.52 27.49, 37.57 30.71 C34.63 33.93, 29.67 37.2, 25.12 38.01 C20.58 38.81, 14.21 37.59, 10.31 35.55 C6.41 33.52, 3.21 29.68, 1.73 25.8 C0.25 21.92, -0.09 16.17, 1.42 12.28 C2.93 8.38, 6.63 4.48, 10.78 2.45 C14.93 0.43, 23.59 0.42, 26.33 0.15 C29.07 -0.12, 27.4 0.53, 27.24 0.83 M21.35 -0.45 C25.62 -0.88, 31.59 1.15, 35.26 3.91 C38.94 6.67, 42.74 12.05, 43.4 16.13 C44.07 20.2, 41.72 24.92, 39.25 28.38 C36.78 31.84, 32.79 35.43, 28.57 36.88 C24.34 38.33, 18.21 38.5, 13.89 37.07 C9.56 35.64, 4.78 31.95, 2.61 28.32 C0.44 24.7, -0.06 19.28, 0.88 15.31 C1.82 11.35, 4.77 7.11, 8.24 4.55 C11.71 1.99, 19.37 0.62, 21.72 -0.02 C24.06 -0.66, 22.36 0.26, 22.32 0.7" stroke="#000000" stroke-width="1" fill="none"></path></g><g stroke-linecap="round"><g transform="translate(151.78277042813352 238.06665434560557) rotate(0 0.5 38)"><path d="M0.83 0.9 C0.92 13.46, 1.51 62.41, 1.47 75.11 M-0.19 0.32 C-0.3 13.03, 0.8 63.68, 0.78 76.18" stroke="#000000" stroke-width="1" fill="none"></path></g></g><mask></mask><g stroke-linecap="round"><g transform="translate(151.78277042813352 312.06665434560557) rotate(0 -15 23)"><path d="M0.47 -0.89 C-4.72 6.81, -25.4 39.37, -30.36 47.1 M-0.74 1.26 C-6.2 8.57, -26.68 38.01, -31.5 45.55" stroke="#000000" stroke-width="1" fill="none"></path></g></g><mask></mask><g stroke-linecap="round"><g transform="translate(183.78277042813352 360.06665434560557) rotate(0 -15 -23.5)"><path d="M-0.36 1.1 C-5.31 -6.68, -24.21 -39.35, -29.25 -47.53 M1.65 0.63 C-3.44 -6.91, -24.25 -38.3, -29.81 -46.27" stroke="#000000" stroke-width="1" fill="none"></path></g></g><mask></mask><g stroke-linecap="round"><g transform="translate(124.78277042813534 277.06665434560557) rotate(0 29 -11.5)"><path d="M0.75 -0.53 C10.37 -4.71, 48.03 -20.2, 57.38 -24 M-0.32 1.81 C9.73 -1.75, 49.86 -18.99, 59.76 -22.99" stroke="#000000" stroke-width="1" fill="none"></path></g></g><mask></mask><g stroke-linecap="round" transform="translate(763.1747979005831 307.3617492398498) rotate(0 19.005175694323043 16.795271543820178)"><path d="M15.92 0.41 C19.78 -0.39, 25.52 0.38, 28.99 2.22 C32.46 4.06, 35.44 7.95, 36.72 11.43 C38.01 14.91, 38.1 19.68, 36.68 23.09 C35.26 26.51, 31.75 30.29, 28.21 31.94 C24.67 33.59, 19.48 33.79, 15.44 33.01 C11.41 32.22, 6.54 30.07, 4.01 27.23 C1.48 24.39, 0.18 19.61, 0.25 15.96 C0.32 12.31, 1.75 8, 4.43 5.34 C7.11 2.68, 14.28 0.79, 16.35 0.01 C18.41 -0.78, 16.77 0.3, 16.84 0.65 M18.24 0.43 C22.04 0.15, 26.87 2.07, 30.17 4.28 C33.47 6.49, 37.08 10.32, 38.04 13.67 C39 17.03, 37.84 21.32, 35.92 24.39 C33.99 27.46, 30.36 30.59, 26.49 32.1 C22.62 33.62, 16.55 34.54, 12.69 33.48 C8.83 32.43, 5.31 28.94, 3.32 25.76 C1.33 22.58, 0.23 17.87, 0.74 14.4 C1.24 10.93, 3.46 7.24, 6.35 4.95 C9.23 2.66, 16.11 1.33, 18.05 0.65 C19.98 -0.02, 17.86 0.69, 17.97 0.9" stroke="none" stroke-width="0" fill="#a5d8ff"></path><path d="M22.3 -0.05 C26.24 0.21, 30.97 2.68, 33.54 5.38 C36.12 8.09, 37.8 12.46, 37.76 16.2 C37.71 19.94, 35.85 24.92, 33.26 27.83 C30.67 30.74, 26.14 33.04, 22.21 33.66 C18.29 34.28, 13.25 33.36, 9.7 31.55 C6.16 29.74, 2.31 26.23, 0.94 22.8 C-0.42 19.37, 0.16 14.33, 1.51 10.95 C2.85 7.57, 5.45 4.21, 9.04 2.52 C12.63 0.83, 20.62 1.06, 23.05 0.82 C25.47 0.57, 23.62 0.92, 23.58 1.05 M20.3 0.24 C24.11 0.1, 28.93 1.29, 31.91 3.69 C34.9 6.09, 37.76 10.85, 38.21 14.65 C38.66 18.45, 36.98 23.51, 34.61 26.48 C32.23 29.46, 27.89 31.41, 23.96 32.47 C20.02 33.54, 14.69 34.07, 10.99 32.86 C7.3 31.66, 3.55 28.46, 1.79 25.25 C0.03 22.04, -0.46 17.33, 0.45 13.62 C1.36 9.9, 4.11 5.24, 7.24 2.97 C10.38 0.69, 17.11 0.44, 19.27 -0.04 C21.43 -0.52, 20.08 -0.25, 20.22 0.08" stroke="#000000" stroke-width="1" fill="none"></path></g><g stroke-linecap="round"><g transform="translate(783.80780189695 340.06833066728905) rotate(0 -0.4419808301008743 33.590543087640384)"><path d="M0.76 -0.78 C0.5 10.59, -0.56 56.5, -0.94 67.9 M-0.3 1.43 C-0.77 12.48, -1.53 55.47, -1.92 66.15" stroke="#000000" stroke-width="1" fill="none"></path></g></g><mask></mask><g stroke-linecap="round"><g transform="translate(783.6972219374056 405.4814935221677) rotate(0 13.259424903016225 20.331118184624444)"><path d="M-0.05 0.72 C4.13 7.7, 21.63 34.54, 25.89 41.09 M-1.54 0.05 C2.98 6.73, 23.37 32.36, 28.28 39.2" stroke="#000000" stroke-width="1" fill="none"></path></g></g><mask></mask><g stroke-linecap="round"><g transform="translate(754.7978377217278 447.9116532118187) rotate(0 13.259424903016225 -20.773099014724963)"><path d="M-0.62 0.43 C3.64 -6.71, 21.15 -34.96, 25.54 -42.15 M1.25 -0.39 C5.89 -7.44, 23.25 -33.99, 27.74 -40.93" stroke="#000000" stroke-width="1" fill="none"></path></g></g><mask></mask><g stroke-linecap="round"><g transform="translate(807.1588345155942 374.54283541513047) rotate(0 -25.6348881458307 -10.165559092312222)"><path d="M-0.98 -0.61 C-9.55 -4.27, -43.84 -18.08, -52.04 -21.53 M0.71 1.69 C-7.42 -1.91, -41.22 -16.92, -49.74 -20.62" stroke="#000000" stroke-width="1" fill="none"></path></g></g><mask></mask><g stroke-linecap="round"><g transform="translate(180.12559122192852 231.48890104045682) rotate(0 72.33114957836142 0.8379089124338748)"><path d="M0 0 C11.68 0.27, 45.99 1.33, 70.1 1.61 C94.21 1.89, 132.24 1.67, 144.66 1.68 M0 0 C11.68 0.27, 45.99 1.33, 70.1 1.61 C94.21 1.89, 132.24 1.67, 144.66 1.68" stroke="#1e1e1e" stroke-width="4" fill="none"></path></g><g transform="translate(180.12559122192852 231.48890104045682) rotate(0 72.33114957836142 0.8379089124338748)"><path d="M121.19 10.27 C130.36 6.92, 139.53 3.56, 144.66 1.68 M121.19 10.27 C126.23 8.43, 131.27 6.58, 144.66 1.68" stroke="#1e1e1e" stroke-width="4" fill="none"></path></g><g transform="translate(180.12559122192852 231.48890104045682) rotate(0 72.33114957836142 0.8379089124338748)"><path d="M121.15 -6.83 C130.34 -3.51, 139.52 -0.18, 144.66 1.68 M121.15 -6.83 C126.2 -5, 131.25 -3.17, 144.66 1.68" stroke="#1e1e1e" stroke-width="4" fill="none"></path></g></g><mask></mask><g stroke-linecap="round"><g transform="translate(622.0210987082646 232.3060869204727) rotate(0 70.21925906435808 37.50097462616526)"><path d="M0 0 C14.61 1.98, 64.25 -0.62, 87.66 11.88 C111.07 24.38, 131.64 64.48, 140.44 75 M0 0 C14.61 1.98, 64.25 -0.62, 87.66 11.88 C111.07 24.38, 131.64 64.48, 140.44 75" stroke="#1e1e1e" stroke-width="4" fill="none"></path></g><g transform="translate(622.0210987082646 232.3060869204727) rotate(0 70.21925906435808 37.50097462616526)"><path d="M120.14 60.42 C127.45 65.67, 134.77 70.93, 140.44 75 M120.14 60.42 C124.74 63.73, 129.35 67.04, 140.44 75" stroke="#1e1e1e" stroke-width="4" fill="none"></path></g><g transform="translate(622.0210987082646 232.3060869204727) rotate(0 70.21925906435808 37.50097462616526)"><path d="M134.26 50.78 C136.49 59.51, 138.71 68.24, 140.44 75 M134.26 50.78 C135.66 56.28, 137.07 61.78, 140.44 75" stroke="#1e1e1e" stroke-width="4" fill="none"></path></g></g><mask></mask><g stroke-linecap="round" transform="translate(340.00822742210494 237.79326691056173) rotate(0 133.12045977922799 113)"><path d="M32 0 C75.58 -3.43, 114.01 -2.06, 234.24 0 C257.58 3.03, 269.24 9.44, 266.24 32 C267.48 94.21, 265.33 162.64, 266.24 194 C269.34 216.68, 256.03 224.73, 234.24 226 C164.26 228.74, 92.85 227.23, 32 226 C13.44 222.63, 0.81 217.42, 0 194 C0.82 146.95, 2.57 96.64, 0 32 C-0.6 8.28, 10.23 0.52, 32 0" stroke="none" stroke-width="0" fill="#ffffff"></path><path d="M32 0 C83.5 -3.14, 130.95 -1.67, 234.24 0 M234.24 0 C253.8 1.78, 265.86 11.08, 266.24 32 M266.24 32 C265.94 88.16, 266.82 140.75, 266.24 194 M266.24 194 C268.09 214.66, 255.46 226.2, 234.24 226 M234.24 226 C171.07 226.21, 107.73 227.87, 32 226 M32 226 C10.31 224.93, 0.27 215.94, 0 194 M0 194 C-0.7 133.62, 0.65 69.43, 0 32 M0 32 C1.57 10.46, 10.03 0.55, 32 0" stroke="#1e1e1e" stroke-width="4.5" fill="none" stroke-dasharray="8 12"></path></g><g transform="translate(345.00822742210494 242.79326691056173) rotate(0 98.4375 84)"><text x="0" y="0" font-family="Cascadia, Segoe UI Emoji" font-size="28px" fill="#1e1e1e" text-anchor="start" style="white-space: pre;" direction="ltr" dominant-baseline="text-before-edge"></text><text x="0" y="33.6" font-family="Cascadia, Segoe UI Emoji" font-size="28px" fill="#1e1e1e" text-anchor="start" style="white-space: pre;" direction="ltr" dominant-baseline="text-before-edge"></text><text x="0" y="67.2" font-family="Cascadia, Segoe UI Emoji" font-size="28px" fill="#1e1e1e" text-anchor="start" style="white-space: pre;" direction="ltr" dominant-baseline="text-before-edge">- new email</text><text x="0" y="100.80000000000001" font-family="Cascadia, Segoe UI Emoji" font-size="28px" fill="#1e1e1e" text-anchor="start" style="white-space: pre;" direction="ltr" dominant-baseline="text-before-edge">- phone</text><text x="0" y="134.4" font-family="Cascadia, Segoe UI Emoji" font-size="28px" fill="#1e1e1e" text-anchor="start" style="white-space: pre;" direction="ltr" dominant-baseline="text-before-edge">- keys, data</text></g><g stroke-linecap="round"><g transform="translate(769.2374631505045 352.93120223853333) rotate(0 -80.22098070455195 41.332218589445304)"><path d="M0 0 C-9.25 11.45, -28.79 54.91, -55.53 68.69 C-82.27 82.46, -142.96 80.33, -160.44 82.66 M0 0 C-9.25 11.45, -28.79 54.91, -55.53 68.69 C-82.27 82.46, -142.96 80.33, -160.44 82.66" stroke="#1e1e1e" stroke-width="4" fill="none"></path></g><g transform="translate(769.2374631505045 352.93120223853333) rotate(0 -80.22098070455195 41.332218589445304)"><path d="M-137.47 72.79 C-146.12 76.51, -154.77 80.23, -160.44 82.66 M-137.47 72.79 C-144.12 75.65, -150.76 78.5, -160.44 82.66" stroke="#1e1e1e" stroke-width="4" fill="none"></path></g><g transform="translate(769.2374631505045 352.93120223853333) rotate(0 -80.22098070455195 41.332218589445304)"><path d="M-136.5 89.86 C-145.52 87.15, -154.53 84.44, -160.44 82.66 M-136.5 89.86 C-143.43 87.78, -150.35 85.7, -160.44 82.66" stroke="#1e1e1e" stroke-width="4" fill="none"></path></g></g><mask></mask><g stroke-linecap="round" transform="translate(339.65630700634483 178.09527243401402) rotate(0 133.12045977922799 55.830408686004944)"><path d="M27.92 0 C91.09 2.54, 153.65 3.02, 238.33 0 C259.56 -1.32, 266.45 10.31, 266.24 27.92 C270.48 42.47, 267.9 51.67, 266.24 83.75 C265.93 102.84, 254.02 108.95, 238.33 111.66 C189.46 112.13, 142.47 108.39, 27.92 111.66 C10.57 108.16, 0.89 99.98, 0 83.75 C-3.02 67.64, 0.67 55.03, 0 27.92 C3.07 9.39, 8.18 -3.06, 27.92 0" stroke="none" stroke-width="0" fill="#ffffff"></path><path d="M27.92 0 C81.23 -1.07, 135.03 -1.8, 238.33 0 M27.92 0 C102.33 2.02, 176.22 1.9, 238.33 0 M238.33 0 C258.15 1.69, 265.8 8.43, 266.24 27.92 M238.33 0 C258.43 -1.92, 265.33 9.34, 266.24 27.92 M266.24 27.92 C266.72 42.07, 264.49 56.72, 266.24 83.75 M266.24 27.92 C266.19 45.47, 265.05 62.47, 266.24 83.75 M266.24 83.75 C266.14 103.52, 257.33 110.47, 238.33 111.66 M266.24 83.75 C265.51 101.75, 256.49 111.04, 238.33 111.66 M238.33 111.66 C176.69 110.08, 116.1 108.73, 27.92 111.66 M238.33 111.66 C168.58 112.41, 99.01 110.96, 27.92 111.66 M27.92 111.66 C8.72 111.37, 1.8 101.11, 0 83.75 M27.92 111.66 C8.64 109.66, -0.73 102.22, 0 83.75 M0 83.75 C-0.87 69.64, -1.83 54.98, 0 27.92 M0 83.75 C-0.73 61.07, 0.31 39.43, 0 27.92 M0 27.92 C0.56 11.28, 8.12 -1.98, 27.92 0 M0 27.92 C-0.59 8.63, 9.54 -1.27, 27.92 0" stroke="#1e1e1e" stroke-width="4" fill="none"></path></g><g transform="translate(344.65630700634483 183.09527243401402) rotate(0 57.421875 50.400000000000006)"><text x="0" y="0" font-family="Cascadia, Segoe UI Emoji" font-size="28px" fill="#1e1e1e" text-anchor="start" style="white-space: pre;" direction="ltr" dominant-baseline="text-before-edge">- name</text><text x="0" y="33.6" font-family="Cascadia, Segoe UI Emoji" font-size="28px" fill="#1e1e1e" text-anchor="start" style="white-space: pre;" direction="ltr" dominant-baseline="text-before-edge">- email</text><text x="0" y="67.2" font-family="Cascadia, Segoe UI Emoji" font-size="28px" fill="#1e1e1e" text-anchor="start" style="white-space: pre;" direction="ltr" dominant-baseline="text-before-edge">- pic</text></g><g transform="translate(213.1771475664891 179.14325838130026) rotate(0 32.462617875045 7.649237545269159)" stroke="none"><path d="M0.7 0.38 C-1.49 0.36, -10.16 -0.76, -13.63 -0.71 C-17.09 -0.65, -19.94 -0.22, -20.09 0.73 C-20.24 1.68, -17.23 3.41, -14.54 5.01 C-11.86 6.61, -4.95 8.7, -3.99 10.32 C-3.03 11.95, -6.52 12.43, -8.8 14.77 C-11.07 17.11, -19.18 22.15, -17.65 24.37 C-16.11 26.6, -2.88 25.86, 0.41 28.13 C3.7 30.39, 1.62 35.37, 2.08 37.98 C2.55 40.59, 2.83 42.98, 3.2 43.79 C3.56 44.6, 3.35 43.56, 4.25 42.85 C5.15 42.14, 6.02 40.2, 8.61 39.55 C11.21 38.89, 17.12 38.32, 19.84 38.93 C22.56 39.54, 24.27 41.92, 24.92 43.22 C25.57 44.52, 22.55 46.83, 23.75 46.75 C24.96 46.67, 30.39 44.2, 32.16 42.73 C33.94 41.27, 33.44 39.59, 34.41 37.97 C35.38 36.34, 37.33 34.02, 37.99 33 C38.64 31.97, 36.26 30.17, 38.35 31.8 C40.44 33.43, 48.48 40.5, 50.52 42.8 C52.55 45.1, 49.21 47.37, 50.55 45.61 C51.9 43.86, 53.87 33.66, 58.6 32.27 C63.33 30.88, 75.36 37.53, 78.95 37.27 C82.53 37.02, 81.3 32.83, 80.11 30.74 C78.91 28.66, 73.03 26.94, 71.8 24.75 C70.56 22.56, 70.75 19.47, 72.72 17.61 C74.69 15.74, 81.19 14.78, 83.63 13.56 C86.08 12.34, 86.66 10.58, 87.38 10.26 C88.1 9.95, 91.13 12.45, 87.93 11.68 C84.73 10.91, 71.7 9.52, 68.2 5.62 C64.7 1.73, 68.3 -10.02, 66.91 -11.71 C65.51 -13.4, 62.22 -5.68, 59.82 -4.52 C57.41 -3.36, 54.61 -1.9, 52.45 -4.74 C50.29 -7.59, 48.58 -19.51, 46.87 -21.59 C45.16 -23.68, 44.31 -18.7, 42.19 -17.25 C40.06 -15.8, 38.09 -10.57, 34.12 -12.89 C30.15 -15.21, 21.77 -28.82, 18.36 -31.19 C14.94 -33.55, 14.63 -30.15, 13.62 -27.08 C12.62 -24.01, 14.76 -14.17, 12.33 -12.75 C9.9 -11.34, 2.16 -17.16, -0.96 -18.57 C-4.09 -19.97, -5.87 -22.28, -6.41 -21.21 C-6.96 -20.15, -5.1 -15.93, -4.24 -12.17 C-3.37 -8.41, -2.09 -0.69, -1.21 1.35" stroke="none" stroke-width="0" fill="#f08c00" fill-rule="evenodd"></path><path fill="#1e1e1e" d="M -0.17,2.58 Q -0.17,2.58 -0.97,2.57 -1.78,2.56 -3.21,2.55 -4.63,2.54 -5.94,2.62 -7.24,2.70 -8.60,2.78 -9.96,2.85 -11.34,2.91 -12.73,2.96 -13.95,3.11 -15.18,3.26 -16.65,3.45 -18.12,3.64 -17.78,2.00 -17.45,0.37 -16.24,1.00 -15.03,1.64 -14.08,2.15 -13.12,2.67 -11.99,3.17 -10.87,3.68 -9.42,4.27 -7.97,4.85 -6.14,5.62 -4.31,6.38 -3.30,6.79 -2.30,7.21 -1.18,8.47 -0.07,9.74 0.10,10.94 0.28,12.13 -0.70,13.51 -1.69,14.88 -2.98,15.72 -4.28,16.55 -5.05,17.42 -5.82,18.29 -6.72,19.55 -7.62,20.81 -8.37,21.69 -9.13,22.57 -10.11,23.69 -11.09,24.81 -12.10,26.16 -13.11,27.51 -13.23,27.70 -13.36,27.90 -13.75,28.13 -14.15,28.36 -14.58,28.49 -15.02,28.61 -15.48,28.63 -15.93,28.65 -16.38,28.56 -16.82,28.46 -17.23,28.27 -17.64,28.07 -18.00,27.78 -18.35,27.50 -18.62,27.13 -18.90,26.77 -19.07,26.35 -19.25,25.93 -19.32,25.48 -19.40,25.03 -19.36,24.58 -19.32,24.12 -19.18,23.69 -19.03,23.26 -18.79,22.88 -18.55,22.49 -18.22,22.18 -17.89,21.86 -16.26,21.53 -14.64,21.20 -13.21,21.23 -11.79,21.25 -10.26,21.25 -8.72,21.26 -7.50,21.33 -6.27,21.40 -5.15,21.71 -4.03,22.03 -2.88,22.28 -1.72,22.54 -0.54,22.54 0.62,22.55 2.37,23.17 4.12,23.80 4.76,24.67 5.40,25.54 5.71,26.90 6.01,28.27 6.02,29.63 6.02,30.98 6.02,32.18 6.02,33.39 6.02,34.46 6.02,35.53 6.02,36.74 6.03,37.96 5.95,39.44 5.88,40.93 5.60,42.05 5.33,43.18 4.45,42.53 3.56,41.87 3.86,40.69 4.16,39.52 5.08,38.59 6.01,37.67 7.05,36.80 8.09,35.94 9.49,35.24 10.88,34.53 12.30,34.18 13.72,33.83 14.93,33.66 16.14,33.49 17.46,33.35 18.78,33.20 20.00,33.40 21.22,33.60 22.17,34.16 23.12,34.71 23.95,35.65 24.77,36.58 25.40,37.58 26.02,38.57 26.56,39.80 27.10,41.03 27.41,42.11 27.72,43.19 28.07,44.27 28.43,45.34 27.47,44.44 26.51,43.54 25.45,43.22 24.40,42.91 25.54,42.08 26.68,41.26 27.21,40.33 27.74,39.40 28.41,38.43 29.09,37.46 29.99,36.42 30.89,35.37 32.03,34.37 33.18,33.36 34.03,32.70 34.88,32.04 36.13,31.29 37.37,30.54 39.00,30.43 40.62,30.32 41.75,30.81 42.87,31.31 43.80,32.24 44.73,33.18 46.12,34.74 47.50,36.29 48.66,37.41 49.82,38.54 51.02,39.69 52.22,40.85 52.86,41.79 53.49,42.74 54.03,43.62 54.57,44.50 54.73,44.90 54.90,45.31 54.96,45.74 55.02,46.17 54.98,46.60 54.93,47.03 54.79,47.44 54.64,47.85 54.40,48.21 54.16,48.57 53.85,48.87 53.53,49.16 53.15,49.37 52.77,49.58 52.35,49.70 51.93,49.81 51.49,49.82 51.06,49.83 50.63,49.73 50.21,49.64 49.82,49.44 49.43,49.25 49.10,48.97 48.77,48.69 48.52,48.34 48.26,47.98 48.79,45.74 49.32,43.49 49.55,42.16 49.79,40.84 50.19,39.73 50.59,38.63 51.24,37.17 51.89,35.70 52.39,34.14 52.89,32.58 53.47,31.52 54.04,30.45 55.11,29.21 56.18,27.96 58.08,27.86 59.98,27.75 61.73,28.18 63.48,28.61 65.13,28.88 66.78,29.16 67.92,29.29 69.06,29.41 70.14,29.58 71.22,29.76 72.54,29.87 73.86,29.97 75.09,30.17 76.32,30.37 77.53,30.64 78.73,30.91 80.05,31.06 81.37,31.22 79.68,31.98 77.99,32.74 76.51,32.35 75.02,31.97 74.28,31.19 73.54,30.41 72.52,29.25 71.49,28.10 70.75,27.02 70.01,25.95 69.49,24.95 68.98,23.96 68.46,22.83 67.94,21.69 67.86,20.61 67.77,19.53 67.91,18.38 68.05,17.22 68.98,16.42 69.90,15.61 71.68,15.02 73.46,14.44 74.71,14.11 75.97,13.78 77.20,13.16 78.43,12.54 79.60,11.91 80.77,11.29 81.65,10.52 82.53,9.76 82.73,11.20 82.94,12.64 81.44,12.24 79.94,11.83 78.82,11.52 77.69,11.21 76.58,10.89 75.47,10.57 74.27,10.31 73.07,10.05 72.05,9.70 71.04,9.34 69.90,8.97 68.76,8.61 67.57,7.75 66.37,6.89 65.79,5.51 65.22,4.14 65.16,2.98 65.10,1.82 65.09,0.74 65.09,-0.33 65.02,-1.51 64.94,-2.68 64.76,-4.19 64.58,-5.69 64.39,-7.12 64.20,-8.55 64.07,-9.69 63.95,-10.82 65.92,-9.74 67.90,-8.66 67.39,-7.71 66.87,-6.76 65.48,-5.82 64.09,-4.89 62.84,-4.23 61.60,-3.56 60.51,-3.10 59.42,-2.63 58.17,-2.30 56.91,-1.98 55.84,-1.83 54.77,-1.67 53.55,-1.79 52.34,-1.92 51.08,-2.83 49.83,-3.75 49.18,-4.88 48.53,-6.01 48.05,-7.30 47.58,-8.59 47.23,-9.99 46.87,-11.38 46.37,-12.69 45.86,-13.99 45.30,-15.47 44.73,-16.94 44.34,-18.19 43.94,-19.44 43.57,-20.53 43.20,-21.63 43.09,-22.07 42.97,-22.50 42.97,-22.96 42.97,-23.41 43.07,-23.85 43.18,-24.29 43.38,-24.70 43.59,-25.10 43.89,-25.44 44.19,-25.78 44.56,-26.04 44.93,-26.30 45.35,-26.47 45.77,-26.63 46.22,-26.69 46.67,-26.75 47.12,-26.70 47.57,-26.65 48.00,-26.49 48.42,-26.33 48.80,-26.08 49.17,-25.82 49.48,-25.49 49.78,-25.15 49.99,-24.75 50.21,-24.35 48.96,-21.86 47.71,-19.36 46.73,-18.38 45.75,-17.40 44.53,-16.39 43.32,-15.38 42.32,-14.77 41.33,-14.17 39.88,-13.61 38.43,-13.05 37.45,-12.55 36.47,-12.05 35.31,-11.72 34.15,-11.39 32.73,-11.71 31.32,-12.03 30.05,-13.09 28.79,-14.15 28.09,-15.03 27.39,-15.91 26.60,-16.89 25.81,-17.87 24.80,-19.06 23.78,-20.25 22.70,-21.40 21.61,-22.55 20.45,-23.78 19.29,-25.02 18.45,-26.06 17.60,-27.10 18.64,-27.55 19.69,-28.00 19.25,-26.86 18.80,-25.72 18.43,-24.56 18.05,-23.40 17.68,-22.28 17.31,-21.15 16.88,-20.03 16.44,-18.91 16.14,-17.87 15.83,-16.84 15.52,-15.58 15.21,-14.31 13.80,-12.72 12.38,-11.13 11.24,-10.95 10.10,-10.76 8.87,-11.12 7.65,-11.49 6.27,-12.19 4.90,-12.89 3.43,-13.47 1.96,-14.06 1.03,-14.58 0.09,-15.11 -0.97,-15.74 -2.04,-16.37 -3.40,-16.63 -4.76,-16.89 -3.78,-18.12 -2.80,-19.34 -2.95,-18.08 -3.10,-16.81 -3.11,-15.52 -3.12,-14.22 -2.77,-12.94 -2.42,-11.66 -1.72,-10.35 -1.01,-9.05 -0.35,-8.09 0.31,-7.13 0.99,-6.13 1.67,-5.12 2.28,-3.83 2.90,-2.54 3.13,-1.97 3.37,-1.40 3.41,-0.78 3.45,-0.17 3.29,0.41 3.13,1.01 2.79,1.52 2.45,2.04 1.96,2.41 1.48,2.79 0.90,2.99 0.32,3.20 -0.29,3.20 -0.91,3.21 -1.49,3.02 -2.08,2.83 -2.57,2.46 -3.06,2.10 -3.42,1.59 -3.77,1.08 -3.94,0.49 -4.11,-0.09 -4.08,-0.70 -4.05,-1.32 -3.83,-1.89 -3.61,-2.47 -3.22,-2.94 -2.82,-3.41 -2.30,-3.74 -1.78,-4.06 -1.18,-4.20 -0.58,-4.34 0.02,-4.28 0.64,-4.22 1.20,-3.96 1.76,-3.71 2.21,-3.29 2.66,-2.87 2.96,-2.33 3.25,-1.79 3.36,-1.19 3.46,-0.58 3.37,0.02 3.28,0.63 2.99,1.17 2.71,1.72 2.27,2.15 1.83,2.58 1.27,2.84 0.72,3.10 0.10,3.18 -0.50,3.25 -1.10,3.12 -1.70,3.00 -2.23,2.69 -2.76,2.38 -3.17,1.91 -3.57,1.45 -3.57,1.45 -3.57,1.45 -4.69,-0.56 -5.81,-2.58 -6.41,-3.47 -7.01,-4.35 -7.71,-5.59 -8.42,-6.82 -9.03,-8.01 -9.64,-9.19 -10.06,-10.73 -10.49,-12.27 -10.58,-13.86 -10.66,-15.45 -10.64,-16.82 -10.61,-18.19 -10.32,-19.90 -10.04,-21.61 -9.30,-22.40 -8.56,-23.19 -6.80,-23.90 -5.03,-24.60 -3.61,-24.33 -2.19,-24.06 -1.01,-23.84 0.16,-23.63 1.29,-23.07 2.42,-22.52 3.40,-21.88 4.37,-21.24 5.47,-20.83 6.57,-20.41 7.60,-19.90 8.63,-19.39 9.67,-18.84 10.71,-18.29 9.49,-17.79 8.27,-17.29 8.57,-18.48 8.88,-19.67 9.26,-20.92 9.63,-22.17 10.08,-23.24 10.53,-24.31 10.90,-25.41 11.26,-26.50 11.63,-27.71 12.00,-28.92 12.47,-29.96 12.94,-31.00 13.58,-31.98 14.21,-32.97 15.29,-33.84 16.37,-34.71 17.57,-34.82 18.76,-34.93 20.47,-33.99 22.18,-33.05 23.03,-32.12 23.88,-31.18 24.63,-30.24 25.38,-29.30 26.14,-28.54 26.91,-27.78 27.73,-26.95 28.56,-26.12 29.65,-24.91 30.75,-23.70 31.60,-22.68 32.46,-21.66 33.05,-20.33 33.64,-18.99 35.04,-19.59 36.44,-20.18 37.51,-20.69 38.59,-21.20 39.57,-22.01 40.56,-22.81 41.53,-23.64 42.51,-24.47 43.74,-25.41 44.97,-26.34 44.09,-23.99 43.20,-21.63 43.09,-22.06 42.97,-22.50 42.97,-22.96 42.97,-23.41 43.07,-23.85 43.18,-24.29 43.38,-24.70 43.59,-25.10 43.89,-25.44 44.19,-25.78 44.56,-26.04 44.93,-26.30 45.35,-26.47 45.77,-26.63 46.22,-26.69 46.67,-26.75 47.12,-26.70 47.57,-26.65 48.00,-26.49 48.42,-26.33 48.80,-26.08 49.17,-25.82 49.48,-25.49 49.78,-25.15 49.99,-24.75 50.21,-24.35 50.39,-23.74 50.58,-23.13 50.93,-22.07 51.27,-21.01 51.64,-19.93 52.00,-18.85 52.46,-17.71 52.92,-16.57 53.31,-15.48 53.71,-14.39 54.12,-12.98 54.53,-11.57 54.83,-10.45 55.12,-9.34 56.25,-9.61 57.38,-9.89 58.60,-10.50 59.82,-11.11 60.83,-11.78 61.84,-12.44 62.97,-13.25 64.10,-14.05 65.60,-14.52 67.11,-14.98 69.24,-13.01 71.37,-11.04 71.62,-9.54 71.87,-8.03 71.97,-6.94 72.07,-5.85 72.25,-4.46 72.43,-3.06 72.51,-1.70 72.59,-0.34 71.88,0.65 71.17,1.66 72.70,2.20 74.23,2.75 75.36,3.03 76.50,3.32 77.90,3.71 79.31,4.11 80.71,4.46 82.12,4.82 83.57,5.27 85.03,5.72 86.57,6.50 88.10,7.28 88.72,8.19 89.34,9.11 89.43,10.48 89.52,11.86 88.78,13.23 88.03,14.60 86.98,15.57 85.94,16.54 84.82,17.35 83.71,18.16 82.45,18.80 81.18,19.44 80.18,19.92 79.19,20.41 78.06,20.81 76.93,21.21 75.59,21.24 74.24,21.26 74.46,20.02 74.67,18.77 75.23,19.84 75.79,20.91 76.28,21.89 76.77,22.87 77.66,23.91 78.55,24.95 79.63,26.12 80.71,27.29 81.51,28.06 82.31,28.83 83.16,29.99 84.01,31.14 84.39,32.64 84.76,34.14 84.43,35.35 84.10,36.57 83.14,37.14 82.19,37.72 81.01,38.02 79.83,38.32 78.72,38.21 77.62,38.10 76.02,37.69 74.42,37.29 73.34,37.14 72.27,37.00 71.17,36.88 70.07,36.76 68.67,36.52 67.28,36.27 65.60,36.11 63.91,35.95 62.84,35.80 61.77,35.65 60.69,35.06 59.61,34.48 60.34,33.61 61.08,32.73 60.39,34.02 59.71,35.32 59.35,36.40 59.00,37.49 58.38,39.00 57.75,40.50 57.29,41.61 56.84,42.71 56.44,43.76 56.04,44.81 55.59,45.86 55.13,46.91 54.47,47.86 53.81,48.81 54.19,46.65 54.57,44.50 54.73,44.90 54.90,45.31 54.96,45.74 55.02,46.17 54.98,46.60 54.93,47.03 54.79,47.44 54.64,47.85 54.40,48.21 54.16,48.57 53.85,48.87 53.53,49.16 53.15,49.37 52.77,49.58 52.35,49.70 51.93,49.81 51.49,49.82 51.06,49.83 50.64,49.73 50.21,49.64 49.82,49.44 49.43,49.25 49.10,48.97 48.77,48.69 48.52,48.34 48.26,47.98 48.15,47.70 48.04,47.42 47.47,46.43 46.90,45.44 46.13,44.66 45.36,43.88 43.88,42.56 42.41,41.24 41.59,40.45 40.77,39.67 40.06,38.76 39.35,37.86 38.25,38.73 37.15,39.61 36.23,40.57 35.31,41.52 34.71,42.41 34.10,43.29 33.51,44.27 32.91,45.25 31.81,46.50 30.71,47.75 29.42,48.65 28.14,49.55 27.12,49.99 26.11,50.42 24.23,49.80 22.36,49.18 21.67,48.19 20.98,47.19 20.68,46.00 20.39,44.80 20.04,43.73 19.69,42.66 19.10,41.65 18.50,40.63 17.38,40.78 16.26,40.93 15.00,41.19 13.73,41.45 12.68,42.09 11.62,42.72 10.79,43.50 9.96,44.27 8.86,45.21 7.76,46.16 6.80,46.69 5.84,47.22 4.58,47.65 3.31,48.09 2.20,48.20 1.08,48.31 0.00,47.70 -1.07,47.10 -1.75,45.73 -2.44,44.36 -2.21,42.71 -1.99,41.05 -1.77,39.50 -1.55,37.96 -1.55,36.74 -1.54,35.53 -1.54,34.46 -1.54,33.39 -1.54,32.19 -1.55,30.99 -1.55,29.66 -1.54,28.33 -0.79,29.19 -0.04,30.05 -1.38,30.05 -2.72,30.05 -4.08,29.79 -5.44,29.54 -6.56,29.14 -7.68,28.73 -9.25,28.73 -10.81,28.73 -11.99,28.74 -13.17,28.75 -14.38,28.72 -15.58,28.69 -14.47,28.30 -13.36,27.90 -13.75,28.13 -14.15,28.36 -14.58,28.48 -15.02,28.61 -15.48,28.63 -15.93,28.65 -16.38,28.56 -16.82,28.46 -17.23,28.27 -17.64,28.07 -18.00,27.78 -18.35,27.50 -18.62,27.13 -18.90,26.77 -19.07,26.35 -19.25,25.93 -19.32,25.48 -19.40,25.03 -19.36,24.58 -19.32,24.12 -19.18,23.69 -19.03,23.26 -18.79,22.88 -18.55,22.49 -18.22,22.18 -17.89,21.86 -18.17,22.08 -18.44,22.30 -17.31,20.86 -16.18,19.42 -15.41,18.48 -14.64,17.53 -13.85,16.52 -13.07,15.52 -12.23,14.32 -11.39,13.12 -10.27,11.99 -9.15,10.86 -8.03,10.54 -6.91,10.22 -6.74,11.89 -6.56,13.56 -7.60,13.01 -8.65,12.45 -9.94,12.01 -11.23,11.56 -12.29,11.14 -13.34,10.72 -14.43,10.19 -15.52,9.66 -16.87,9.04 -18.21,8.43 -19.34,7.49 -20.46,6.56 -21.55,5.51 -22.64,4.47 -23.52,3.12 -24.41,1.77 -24.29,0.64 -24.17,-0.49 -23.26,-1.40 -22.35,-2.32 -21.25,-2.74 -20.14,-3.16 -18.98,-3.24 -17.81,-3.32 -16.66,-3.48 -15.52,-3.64 -14.32,-3.68 -13.13,-3.73 -11.90,-3.68 -10.67,-3.63 -9.51,-3.57 -8.35,-3.52 -7.22,-3.44 -6.10,-3.37 -4.89,-3.24 -3.68,-3.11 -2.55,-2.95 -1.43,-2.78 -0.62,-2.68 0.17,-2.58 0.47,-2.53 0.78,-2.47 1.07,-2.34 1.35,-2.21 1.60,-2.01 1.84,-1.82 2.03,-1.57 2.22,-1.32 2.35,-1.04 2.48,-0.75 2.53,-0.44 2.59,-0.14 2.57,0.17 2.54,0.48 2.45,0.78 2.35,1.07 2.19,1.34 2.03,1.61 1.81,1.83 1.58,2.05 1.31,2.21 1.05,2.37 0.75,2.46 0.45,2.55 0.13,2.57 -0.17,2.58 -0.17,2.58 L -0.17,2.58 Z"></path></g><g transform="translate(212.30421644941362 175.97162330155447) rotate(0 32.10828399658203 14.01870039465797)"><text x="32.10828399658203" y="0" font-family="Virgil, Segoe UI Emoji" font-size="22.429920631452774px" fill="#1e1e1e" text-anchor="middle" style="white-space: pre;" direction="ltr" dominant-baseline="text-before-edge">Invite</text></g><g stroke-linecap="round"><g transform="translate(327.8106009718331 436.3633317611862) rotate(0 -73.04883933524388 -24.417970766234163)"><path d="M0 0 C-12.93 0.21, -53.23 9.63, -77.58 1.28 C-101.93 -7.08, -134.68 -41.55, -146.1 -50.11" stroke="#1e1e1e" stroke-width="4.5" fill="none" stroke-dasharray="8 12"></path></g><g transform="translate(327.8106009718331 436.3633317611862) rotate(0 -73.04883933524388 -24.417970766234163)"><path d="M-122.78 -41.1 C-128.18 -43.19, -133.58 -45.28, -146.1 -50.11" stroke="#1e1e1e" stroke-width="4.5" fill="none"></path></g><g transform="translate(327.8106009718331 436.3633317611862) rotate(0 -73.04883933524388 -24.417970766234163)"><path d="M-134.02 -28.22 C-136.82 -33.29, -139.62 -38.36, -146.1 -50.11" stroke="#1e1e1e" stroke-width="4.5" fill="none"></path></g></g><mask></mask><g transform="translate(186.07050036276632 456.90568163102614) rotate(0 37.960370243133184 8.944684942347365)" stroke="none"><path d="M1.44 2.29 C-1.64 2.54, -13.7 1.57, -17.7 1.17 C-21.7 0.77, -22.39 -1.14, -22.54 -0.12 C-22.7 0.9, -22.15 4.82, -18.64 7.28 C-15.14 9.73, -2.82 12.84, -1.51 14.59 C-0.19 16.34, -7.67 15.74, -10.76 17.78 C-13.84 19.81, -20.42 24.84, -20.02 26.81 C-19.61 28.79, -10.78 28.63, -8.33 29.62 C-5.88 30.6, -7.37 32.24, -5.31 32.72 C-3.24 33.21, 2.4 32.51, 4.06 32.53 C5.71 32.55, 4.82 30.73, 4.61 32.84 C4.4 34.94, 3.64 42.06, 2.79 45.18 C1.95 48.29, -1.37 50.43, -0.48 51.55 C0.4 52.67, 5.56 53.29, 8.12 51.91 C10.67 50.52, 12.17 44.44, 14.84 43.25 C17.51 42.06, 22.03 44.32, 24.14 44.78 C26.25 45.25, 26.65 44.65, 27.49 46.04 C28.32 47.43, 27.93 52.66, 29.15 53.13 C30.37 53.59, 33.05 50.49, 34.81 48.83 C36.57 47.18, 38.26 44.93, 39.7 43.21 C41.14 41.49, 42.41 38.98, 43.42 38.51 C44.44 38.05, 43.31 38.68, 45.8 40.42 C48.28 42.17, 55.59 47, 58.32 48.98 C61.04 50.97, 60.62 54.63, 62.16 52.31 C63.7 50, 61.87 37.32, 67.54 35.12 C73.21 32.92, 91.47 38.43, 96.18 39.12 C100.89 39.81, 97.23 40.99, 95.79 39.27 C94.36 37.55, 90.04 31.9, 87.56 28.78 C85.09 25.65, 79.75 22.23, 80.93 20.52 C82.11 18.81, 91.55 19.56, 94.65 18.52 C97.75 17.48, 98.6 15.57, 99.53 14.28 C100.47 12.98, 103.2 11.81, 100.27 10.75 C97.33 9.69, 85.08 12.24, 81.9 7.92 C78.72 3.6, 83.5 -12.24, 81.18 -15.18 C78.86 -18.13, 70.75 -10.8, 67.97 -9.74 C65.2 -8.67, 66.96 -5.93, 64.56 -8.79 C62.15 -11.64, 56.42 -24.83, 53.55 -26.87 C50.69 -28.91, 49.59 -22.97, 47.38 -21.05 C45.16 -19.12, 44.32 -12.58, 40.26 -15.34 C36.19 -18.11, 26.43 -35.16, 22.99 -37.66 C19.55 -40.16, 21.05 -34.09, 19.64 -30.32 C18.22 -26.56, 17.67 -16.5, 14.49 -15.05 C11.32 -13.6, 4.21 -19.8, 0.58 -21.62 C-3.05 -23.43, -6.01 -27.3, -7.31 -25.96 C-8.6 -24.62, -8.34 -17.59, -7.17 -13.57 C-6.01 -9.55, -1.54 -4.45, -0.32 -1.84" stroke="none" stroke-width="0" fill="#f08c00" fill-rule="evenodd"></path><path fill="#1e1e1e" d="M -0.17,2.61 Q -0.17,2.61 -1.11,2.58 -2.06,2.56 -3.70,2.53 -5.34,2.51 -6.58,2.57 -7.83,2.64 -9.06,2.70 -10.30,2.77 -11.39,2.81 -12.48,2.86 -13.68,2.89 -14.88,2.93 -16.37,3.10 -17.85,3.27 -19.00,3.45 -20.15,3.62 -21.47,3.79 -22.80,3.95 -22.06,3.04 -21.32,2.14 -21.28,0.87 -21.25,-0.39 -20.04,0.64 -18.84,1.67 -17.88,2.45 -16.93,3.23 -15.63,3.76 -14.34,4.28 -13.21,4.80 -12.09,5.31 -10.82,5.80 -9.55,6.28 -8.37,6.67 -7.20,7.06 -5.74,7.79 -4.28,8.52 -2.46,10.06 -0.64,11.60 -0.47,12.81 -0.29,14.02 -0.82,14.97 -1.35,15.92 -2.48,16.80 -3.61,17.69 -4.62,18.38 -5.64,19.06 -6.39,19.83 -7.15,20.59 -7.95,21.76 -8.75,22.92 -9.57,23.99 -10.38,25.05 -11.19,25.97 -12.00,26.89 -12.72,27.70 -13.44,28.51 -14.06,29.40 -14.68,30.30 -15.35,31.19 -16.03,32.09 -16.42,32.31 -16.81,32.54 -17.24,32.66 -17.67,32.78 -18.12,32.80 -18.57,32.82 -19.01,32.73 -19.46,32.64 -19.86,32.45 -20.27,32.25 -20.62,31.97 -20.97,31.68 -21.24,31.32 -21.51,30.96 -21.68,30.55 -21.86,30.13 -21.93,29.69 -22.00,29.24 -21.96,28.79 -21.93,28.35 -21.78,27.92 -21.64,27.49 -21.40,27.11 -21.16,26.73 -20.83,26.42 -20.51,26.11 -18.86,25.79 -17.20,25.47 -15.50,25.51 -13.79,25.54 -12.55,25.54 -11.32,25.54 -10.15,25.55 -8.97,25.56 -7.37,25.86 -5.76,26.16 -4.60,26.59 -3.44,27.02 -2.21,27.04 -0.98,27.06 0.10,27.06 1.19,27.05 2.76,27.69 4.34,28.33 5.03,29.26 5.72,30.19 6.01,31.23 6.30,32.26 6.33,33.40 6.36,34.54 6.36,35.88 6.35,37.22 6.35,38.57 6.35,39.92 6.35,41.14 6.35,42.37 6.36,43.66 6.37,44.95 6.28,46.35 6.20,47.75 5.88,49.06 5.56,50.37 5.30,51.45 5.04,52.54 4.39,50.99 3.74,49.43 4.47,48.13 5.19,46.82 6.34,45.70 7.48,44.58 8.69,43.58 9.90,42.58 11.45,41.80 12.99,41.03 14.59,40.64 16.19,40.26 17.57,40.06 18.94,39.87 20.10,39.71 21.27,39.55 22.93,39.75 24.59,39.95 25.60,40.55 26.61,41.15 27.51,42.17 28.41,43.19 29.13,44.34 29.84,45.48 30.30,46.47 30.76,47.46 31.11,48.49 31.46,49.52 31.73,50.58 32.00,51.65 30.56,51.26 29.13,50.87 29.99,50.18 30.85,49.49 31.62,48.48 32.39,47.47 33.19,46.31 33.99,45.14 34.83,44.01 35.67,42.89 36.89,41.71 38.10,40.53 39.19,39.64 40.28,38.76 41.42,37.87 42.56,36.98 44.04,36.47 45.52,35.97 47.59,36.55 49.66,37.13 50.74,38.22 51.81,39.30 52.59,40.21 53.38,41.11 54.19,42.03 55.01,42.96 55.79,43.80 56.57,44.64 57.64,45.55 58.72,46.45 59.61,47.35 60.51,48.25 61.22,49.29 61.93,50.34 62.56,51.36 63.19,52.38 63.35,52.77 63.51,53.16 63.57,53.58 63.63,54.00 63.59,54.42 63.55,54.84 63.40,55.24 63.26,55.64 63.03,55.99 62.80,56.34 62.49,56.63 62.18,56.92 61.81,57.12 61.44,57.32 61.03,57.43 60.62,57.54 60.20,57.55 59.78,57.56 59.36,57.47 58.95,57.38 58.57,57.19 58.20,57.00 57.87,56.73 57.55,56.45 57.30,56.11 57.06,55.77 57.59,53.57 58.12,51.38 58.26,50.26 58.40,49.14 58.94,47.74 59.48,46.35 59.90,45.29 60.31,44.23 60.82,43.13 61.32,42.03 61.67,40.84 62.02,39.65 62.54,38.45 63.06,37.25 63.82,35.88 64.58,34.52 66.21,33.67 67.83,32.83 68.92,32.97 70.00,33.12 72.03,33.63 74.06,34.15 76.03,34.49 78.00,34.83 79.32,34.97 80.64,35.12 81.91,35.32 83.17,35.51 84.36,35.62 85.55,35.74 86.91,35.90 88.27,36.07 90.05,36.43 91.83,36.80 93.42,36.99 95.00,37.18 93.39,37.91 91.78,38.64 90.48,38.29 89.18,37.94 88.44,37.15 87.70,36.37 86.59,35.17 85.48,33.97 84.64,33.01 83.79,32.05 83.13,31.04 82.48,30.03 81.88,28.89 81.29,27.74 80.70,26.45 80.10,25.17 79.96,24.00 79.83,22.84 79.98,21.67 80.13,20.50 81.10,19.67 82.07,18.85 84.08,18.20 86.09,17.56 87.58,17.17 89.06,16.78 90.55,16.03 92.04,15.28 93.09,14.77 94.14,14.26 95.09,13.48 96.03,12.69 96.75,13.49 97.47,14.28 96.32,13.97 95.17,13.65 93.68,13.17 92.19,12.69 90.83,12.33 89.47,11.97 88.05,11.62 86.64,11.28 85.39,10.93 84.14,10.59 82.96,10.18 81.78,9.77 80.58,9.30 79.38,8.84 78.55,7.88 77.72,6.93 77.33,5.83 76.94,4.73 76.87,3.43 76.81,2.13 76.80,0.86 76.80,-0.39 76.72,-1.78 76.63,-3.17 76.47,-4.33 76.32,-5.48 76.24,-6.61 76.17,-7.73 75.97,-8.90 75.76,-10.07 75.61,-11.37 75.46,-12.67 77.40,-11.68 79.33,-10.69 78.58,-9.59 77.82,-8.49 76.84,-7.78 75.86,-7.07 74.41,-6.24 72.96,-5.40 71.68,-4.81 70.41,-4.21 69.19,-3.75 67.97,-3.29 66.78,-3.11 65.60,-2.92 64.52,-2.77 63.44,-2.62 61.67,-3.17 59.90,-3.72 58.95,-4.88 58.00,-6.04 57.40,-7.36 56.80,-8.69 56.40,-10.02 55.99,-11.35 55.74,-12.41 55.49,-13.48 55.11,-14.49 54.72,-15.51 54.17,-16.90 53.62,-18.30 53.15,-19.67 52.68,-21.04 52.25,-22.25 51.81,-23.47 51.49,-24.51 51.16,-25.54 51.05,-25.97 50.94,-26.41 50.94,-26.85 50.93,-27.30 51.04,-27.73 51.14,-28.17 51.34,-28.56 51.55,-28.96 51.84,-29.30 52.14,-29.63 52.50,-29.89 52.87,-30.15 53.28,-30.31 53.70,-30.47 54.14,-30.53 54.58,-30.58 55.03,-30.53 55.47,-30.48 55.89,-30.33 56.31,-30.17 56.68,-29.92 57.05,-29.67 57.34,-29.34 57.64,-29.01 57.85,-28.62 58.06,-28.22 56.80,-25.76 55.54,-23.29 54.31,-22.10 53.08,-20.91 52.13,-20.11 51.18,-19.31 50.10,-18.53 49.02,-17.74 47.84,-17.19 46.66,-16.63 45.44,-16.18 44.22,-15.72 43.05,-15.11 41.88,-14.49 39.99,-14.35 38.10,-14.21 36.81,-14.92 35.52,-15.64 34.40,-16.87 33.27,-18.11 32.51,-19.11 31.75,-20.11 30.69,-21.37 29.63,-22.63 28.58,-23.83 27.53,-25.03 26.65,-25.95 25.77,-26.86 24.90,-27.75 24.03,-28.63 23.18,-29.66 22.32,-30.69 21.48,-31.67 20.64,-32.65 21.70,-32.99 22.76,-33.34 22.24,-32.41 21.72,-31.48 21.34,-30.19 20.96,-28.91 20.52,-27.59 20.09,-26.27 19.61,-25.12 19.13,-23.97 18.73,-22.74 18.34,-21.51 17.96,-20.15 17.58,-18.80 17.07,-17.31 16.56,-15.82 15.38,-14.73 14.20,-13.63 13.03,-13.45 11.87,-13.26 10.52,-13.68 9.17,-14.09 7.62,-14.88 6.07,-15.68 4.91,-16.14 3.74,-16.60 2.68,-17.06 1.62,-17.52 0.51,-18.22 -0.59,-18.91 -1.59,-19.47 -2.59,-20.03 -4.01,-20.23 -5.42,-20.43 -6.60,-20.67 -7.79,-20.91 -6.44,-21.57 -5.09,-22.23 -4.71,-20.96 -4.33,-19.68 -4.34,-18.49 -4.35,-17.31 -4.26,-16.13 -4.17,-14.96 -3.63,-13.68 -3.08,-12.41 -2.45,-11.36 -1.81,-10.30 -1.14,-9.23 -0.47,-8.16 0.26,-7.22 1.00,-6.27 1.90,-4.44 2.80,-2.61 3.04,-2.04 3.27,-1.48 3.31,-0.87 3.35,-0.27 3.19,0.31 3.03,0.90 2.70,1.41 2.36,1.92 1.88,2.29 1.40,2.66 0.83,2.86 0.25,3.06 -0.35,3.07 -0.96,3.08 -1.54,2.89 -2.11,2.70 -2.60,2.34 -3.09,1.97 -3.44,1.47 -3.79,0.97 -3.95,0.39 -4.12,-0.19 -4.10,-0.79 -4.07,-1.40 -3.85,-1.97 -3.63,-2.54 -3.24,-3.01 -2.85,-3.47 -2.34,-3.79 -1.82,-4.11 -1.23,-4.25 -0.63,-4.39 -0.03,-4.33 0.57,-4.27 1.12,-4.02 1.68,-3.77 2.13,-3.35 2.57,-2.94 2.86,-2.41 3.15,-1.87 3.26,-1.27 3.36,-0.67 3.27,-0.07 3.18,0.52 2.90,1.06 2.62,1.60 2.18,2.03 1.75,2.45 1.20,2.71 0.65,2.97 0.04,3.04 -0.55,3.12 -1.15,2.99 -1.74,2.87 -2.27,2.56 -2.79,2.25 -3.19,1.79 -3.59,1.33 -3.59,1.33 -3.59,1.33 -4.31,-0.14 -5.03,-1.63 -5.65,-2.54 -6.26,-3.45 -6.94,-4.45 -7.61,-5.46 -8.36,-6.76 -9.11,-8.07 -9.65,-9.09 -10.20,-10.12 -10.65,-11.12 -11.10,-12.13 -11.34,-13.31 -11.59,-14.49 -11.68,-15.91 -11.78,-17.34 -11.77,-18.63 -11.75,-19.93 -11.66,-21.40 -11.57,-22.87 -11.32,-23.97 -11.08,-25.07 -10.34,-25.89 -9.60,-26.71 -7.77,-27.39 -5.95,-28.08 -4.87,-27.89 -3.79,-27.71 -2.51,-27.49 -1.24,-27.27 -0.19,-26.94 0.85,-26.62 1.94,-26.00 3.04,-25.38 4.44,-24.55 5.84,-23.71 6.86,-23.36 7.89,-23.00 9.28,-22.27 10.67,-21.54 11.70,-21.15 12.73,-20.76 11.67,-20.94 10.61,-21.11 10.94,-22.29 11.26,-23.47 11.59,-24.57 11.92,-25.68 12.45,-26.96 12.99,-28.24 13.41,-29.53 13.84,-30.81 14.26,-32.19 14.69,-33.57 15.21,-34.74 15.74,-35.91 16.44,-37.01 17.15,-38.10 18.28,-39.02 19.42,-39.94 20.62,-40.07 21.83,-40.19 22.86,-39.86 23.89,-39.53 24.92,-38.58 25.95,-37.62 26.66,-36.82 27.36,-36.03 28.27,-34.90 29.18,-33.76 30.07,-32.88 30.97,-31.99 31.93,-31.03 32.89,-30.07 34.15,-28.67 35.42,-27.28 36.14,-26.39 36.87,-25.50 37.69,-24.49 38.50,-23.47 39.12,-22.56 39.73,-21.64 40.76,-22.17 41.78,-22.70 42.92,-23.12 44.06,-23.54 45.08,-24.11 46.10,-24.68 46.99,-25.41 47.87,-26.14 49.03,-27.12 50.19,-28.11 51.52,-29.14 52.84,-30.16 52.00,-27.85 51.16,-25.54 51.05,-25.97 50.94,-26.41 50.94,-26.85 50.93,-27.30 51.04,-27.73 51.14,-28.17 51.34,-28.56 51.55,-28.96 51.84,-29.30 52.13,-29.63 52.50,-29.89 52.87,-30.15 53.28,-30.31 53.70,-30.47 54.14,-30.53 54.58,-30.58 55.03,-30.53 55.47,-30.48 55.89,-30.33 56.31,-30.17 56.68,-29.92 57.05,-29.67 57.34,-29.34 57.64,-29.01 57.85,-28.62 58.06,-28.22 58.11,-27.96 58.17,-27.69 58.67,-26.30 59.17,-24.90 59.59,-23.61 60.01,-22.32 60.39,-21.24 60.78,-20.16 61.35,-18.71 61.91,-17.26 62.28,-16.24 62.64,-15.22 62.99,-13.83 63.34,-12.45 63.20,-11.15 63.05,-9.86 64.71,-10.18 66.36,-10.49 67.36,-10.93 68.35,-11.37 69.33,-11.89 70.31,-12.41 71.51,-13.20 72.71,-13.98 74.04,-14.93 75.36,-15.89 76.95,-16.42 78.54,-16.95 80.43,-15.91 82.32,-14.86 82.56,-13.78 82.81,-12.69 83.08,-11.15 83.35,-9.62 83.46,-8.44 83.57,-7.25 83.69,-6.06 83.82,-4.88 83.93,-3.82 84.04,-2.76 84.12,-1.11 84.20,0.53 83.64,1.57 83.08,2.62 84.56,3.14 86.05,3.65 87.10,3.99 88.15,4.33 89.34,4.61 90.52,4.89 91.55,5.19 92.58,5.50 94.20,5.91 95.81,6.31 97.51,6.83 99.20,7.34 100.87,8.17 102.55,9.01 103.19,9.94 103.83,10.88 103.92,12.28 104.01,13.69 103.21,15.15 102.42,16.61 101.23,17.71 100.04,18.81 98.80,19.71 97.56,20.62 96.06,21.37 94.57,22.13 93.46,22.67 92.34,23.21 91.07,23.66 89.79,24.12 88.03,24.31 86.26,24.50 86.51,23.43 86.77,22.35 87.44,23.70 88.11,25.05 88.68,26.13 89.26,27.21 90.10,28.19 90.95,29.17 91.73,29.96 92.51,30.76 93.22,31.60 93.93,32.44 94.83,33.30 95.74,34.17 96.67,35.43 97.61,36.69 98.02,38.29 98.44,39.88 98.10,41.14 97.77,42.40 96.82,42.98 95.87,43.56 94.07,43.81 92.28,44.05 90.87,43.72 89.46,43.40 88.29,43.15 87.12,42.91 85.86,42.73 84.61,42.55 83.33,42.41 82.05,42.27 80.82,42.06 79.58,41.84 78.37,41.70 77.16,41.55 76.01,41.43 74.85,41.32 73.63,41.15 72.40,40.99 70.89,40.36 69.38,39.72 70.08,38.89 70.77,38.05 70.26,39.09 69.75,40.12 69.21,41.32 68.67,42.51 68.27,43.71 67.87,44.92 67.38,46.00 66.89,47.09 66.35,48.41 65.80,49.73 65.34,50.95 64.87,52.18 64.34,53.39 63.80,54.61 63.14,55.58 62.48,56.55 62.84,54.46 63.19,52.38 63.35,52.77 63.51,53.16 63.57,53.58 63.63,54.00 63.59,54.42 63.55,54.84 63.40,55.24 63.26,55.64 63.03,55.99 62.80,56.34 62.49,56.63 62.18,56.92 61.81,57.12 61.44,57.32 61.03,57.43 60.62,57.54 60.20,57.55 59.78,57.56 59.37,57.47 58.95,57.38 58.57,57.19 58.20,57.00 57.87,56.73 57.55,56.45 57.30,56.11 57.06,55.77 56.83,55.25 56.60,54.74 56.00,53.70 55.40,52.66 54.46,51.70 53.53,50.74 52.68,50.03 51.83,49.33 50.98,48.52 50.13,47.70 49.17,46.80 48.21,45.90 47.38,44.42 46.55,42.95 45.63,43.65 44.71,44.36 43.84,45.08 42.96,45.80 41.83,46.98 40.69,48.16 39.99,49.21 39.28,50.26 38.59,51.39 37.90,52.53 36.69,53.91 35.48,55.29 34.02,56.31 32.56,57.34 31.49,57.82 30.42,58.30 28.49,57.63 26.57,56.97 25.87,55.96 25.17,54.95 24.83,53.55 24.49,52.15 24.05,50.83 23.61,49.51 23.12,48.19 22.63,46.86 21.43,46.97 20.22,47.07 18.95,47.23 17.67,47.39 16.33,47.77 14.98,48.14 14.05,48.79 13.12,49.45 12.13,50.37 11.14,51.29 9.94,52.33 8.75,53.36 7.66,53.97 6.57,54.58 5.16,55.07 3.75,55.55 2.55,55.68 1.36,55.81 0.26,55.21 -0.83,54.61 -1.48,52.55 -2.13,50.49 -1.89,49.30 -1.65,48.11 -1.39,46.84 -1.14,45.57 -1.13,44.27 -1.12,42.97 -1.11,41.88 -1.11,40.80 -1.11,39.47 -1.12,38.15 -1.12,36.77 -1.13,35.39 -1.13,34.22 -1.13,33.05 -0.20,33.75 0.72,34.45 -0.67,34.45 -2.07,34.45 -3.62,34.34 -5.18,34.23 -6.54,33.69 -7.91,33.16 -9.06,33.03 -10.20,32.91 -11.42,32.90 -12.64,32.90 -14.02,32.92 -15.40,32.93 -16.77,32.91 -18.14,32.88 -17.08,32.48 -16.03,32.09 -16.42,32.31 -16.81,32.54 -17.24,32.66 -17.67,32.78 -18.12,32.80 -18.57,32.82 -19.01,32.73 -19.46,32.64 -19.86,32.45 -20.27,32.25 -20.62,31.97 -20.97,31.68 -21.24,31.32 -21.51,30.96 -21.68,30.55 -21.86,30.13 -21.93,29.69 -22.00,29.24 -21.96,28.80 -21.93,28.35 -21.78,27.92 -21.64,27.49 -21.40,27.11 -21.16,26.73 -20.83,26.42 -20.51,26.11 -20.72,26.23 -20.94,26.35 -20.11,25.19 -19.28,24.04 -18.19,22.76 -17.10,21.47 -16.33,20.62 -15.55,19.77 -14.85,18.75 -14.15,17.73 -13.48,16.75 -12.81,15.77 -11.98,14.89 -11.15,14.01 -10.13,13.17 -9.10,12.33 -8.15,11.79 -7.20,11.24 -7.08,12.58 -6.96,13.91 -6.24,14.94 -5.52,15.98 -6.85,15.38 -8.17,14.79 -9.49,14.21 -10.80,13.63 -11.87,13.27 -12.94,12.90 -14.13,12.43 -15.32,11.96 -16.51,11.41 -17.70,10.87 -18.77,10.39 -19.84,9.92 -20.99,9.16 -22.14,8.41 -23.35,7.32 -24.55,6.23 -25.33,5.50 -26.10,4.76 -27.04,3.36 -27.97,1.96 -27.85,0.79 -27.74,-0.36 -26.27,-1.64 -24.80,-2.91 -23.16,-3.11 -21.51,-3.30 -20.31,-3.42 -19.11,-3.53 -17.59,-3.69 -16.06,-3.84 -14.69,-3.80 -13.33,-3.75 -12.11,-3.71 -10.89,-3.67 -9.67,-3.61 -8.45,-3.54 -7.30,-3.47 -6.15,-3.40 -5.07,-3.22 -3.99,-3.03 -2.84,-2.92 -1.70,-2.81 -0.76,-2.71 0.17,-2.61 0.48,-2.55 0.79,-2.49 1.08,-2.36 1.36,-2.23 1.61,-2.03 1.86,-1.84 2.05,-1.59 2.25,-1.34 2.37,-1.05 2.50,-0.76 2.56,-0.45 2.61,-0.14 2.59,0.17 2.57,0.48 2.47,0.78 2.38,1.09 2.21,1.36 2.05,1.62 1.82,1.85 1.60,2.07 1.33,2.23 1.06,2.39 0.75,2.48 0.45,2.58 0.14,2.59 -0.17,2.61 -0.17,2.61 L -0.17,2.61 Z"></path></g><g transform="translate(193.27020652461215 453.1969098256625) rotate(0 29.32555389404297 16.392857142857146)"><text x="29.32555389404297" y="0" font-family="Virgil, Segoe UI Emoji" font-size="26.228571428571435px" fill="#1e1e1e" text-anchor="middle" style="white-space: pre;" direction="ltr" dominant-baseline="text-before-edge">Feed</text></g><g transform="translate(274.99639786277385 44.154155702825165) rotate(0 189.84375000000045 21.600000000000023)"><text x="189.84375" y="0" font-family="Cascadia, Segoe UI Emoji" font-size="36px" fill="#1e1e1e" text-anchor="middle" style="white-space: pre;" direction="ltr" dominant-baseline="text-before-edge">PeerPiper Protocol</text></g><g transform="translate(257.746882467316 83.0645338096524) rotate(0 205.078125 12)"><text x="205.078125" y="0" font-family="Cascadia, Segoe UI Emoji" font-size="20px" fill="#2f9e44" text-anchor="middle" style="white-space: pre;" direction="ltr" dominant-baseline="text-before-edge">Stay connected, effectively forever</text></g><g transform="translate(658.4151939983567 447.7102037770038) rotate(0 57.6079890988176 56.80426933440363)" stroke="none"><path d="M8.99 38.04 C5.1 37.81, -9.53 35.48, -15.27 35.87 C-21 36.26, -23.69 39.51, -25.42 40.38 C-27.15 41.24, -27.11 39.56, -25.66 41.06 C-24.2 42.56, -21.41 45.5, -16.68 49.39 C-11.95 53.28, 0.98 60.03, 2.74 64.38 C4.51 68.73, -2.64 69.71, -6.08 75.48 C-9.52 81.25, -18.82 95.47, -17.91 99.02 C-17 102.57, -3.6 96.04, -0.62 96.79 C2.36 97.53, -1.73 102.83, -0.01 103.5 C1.72 104.17, 7.81 100.26, 9.73 100.81 C11.65 101.35, 11.42 101.13, 11.51 106.77 C11.59 112.41, 10.39 128.2, 10.25 134.65 C10.1 141.1, 9.94 144.11, 10.65 145.48 C11.35 146.85, 12.2 145.5, 14.47 142.84 C16.75 140.19, 21.82 132.04, 24.27 129.52 C26.72 127, 26.55 127.8, 29.17 127.72 C31.8 127.65, 37.83 127.94, 40.03 129.07 C42.23 130.19, 41.44 130.54, 42.37 134.47 C43.31 138.4, 44.07 151.7, 45.63 152.67 C47.18 153.63, 49.39 144.04, 51.71 140.27 C54.03 136.5, 57.09 133.77, 59.56 130.04 C62.02 126.31, 64.78 119.75, 66.48 117.89 C68.18 116.02, 66.72 114.84, 69.74 118.86 C72.75 122.89, 81.55 136.59, 84.58 142.03 C87.61 147.47, 85.73 156.63, 87.89 151.51 C90.06 146.38, 89.89 116.04, 97.56 111.27 C105.24 106.51, 128.33 122.23, 133.93 122.9 C139.53 123.58, 133.68 119.54, 131.16 115.32 C128.65 111.11, 121.63 102.79, 118.85 97.61 C116.06 92.43, 113.07 87.5, 114.47 84.25 C115.87 81, 124.18 80.17, 127.25 78.11 C130.32 76.06, 131.19 73.71, 132.87 71.94 C134.55 70.16, 136.16 69.38, 137.33 67.47 C138.49 65.56, 143.91 63.46, 139.83 60.47 C135.76 57.47, 117.27 57.64, 112.89 49.51 C108.51 41.37, 115.9 16.18, 113.56 11.67 C111.22 7.16, 101.8 19.81, 98.84 22.44 C95.88 25.08, 97.7 26.97, 95.81 27.47 C93.91 27.98, 89.01 27.14, 87.47 25.46 C85.94 23.77, 88.27 24.77, 86.6 17.36 C84.93 9.96, 79.95 -15.14, 77.45 -18.98 C74.94 -22.81, 74.4 -8.93, 71.56 -5.66 C68.72 -2.39, 62.68 -0.63, 60.39 0.64 C58.11 1.91, 61.38 7.17, 57.88 1.96 C54.37 -3.26, 43.07 -24.01, 39.38 -30.65 C35.7 -37.3, 37.48 -38.72, 35.77 -37.91 C34.07 -37.1, 31.02 -32.74, 29.14 -25.79 C27.26 -18.85, 27.46 -0.25, 24.51 3.79 C21.57 7.83, 14.54 1.08, 11.46 -1.54 C8.38 -4.16, 8.22 -9.93, 6.04 -11.93 C3.85 -13.92, -0.19 -14.87, -1.64 -13.53 C-3.1 -12.2, -2.73 -7.71, -2.67 -3.89 C-2.62 -0.07, -3.11 2.17, -1.31 9.41 C0.49 16.64, 6.54 34.77, 8.15 39.54" stroke="none" stroke-width="0" fill="#a5d8ff" fill-rule="evenodd"></path><path fill="#1e1e1e" d="M 7.73,41.17 Q 7.73,41.17 6.74,41.20 5.74,41.23 4.40,41.11 3.06,40.99 1.77,40.84 0.47,40.69 -0.64,40.72 -1.75,40.75 -3.00,40.79 -4.24,40.84 -5.41,40.88 -6.58,40.93 -8.18,40.96 -9.78,40.99 -11.11,41.02 -12.44,41.05 -14.01,41.31 -15.58,41.58 -17.12,41.92 -18.66,42.27 -19.95,42.52 -21.23,42.77 -21.05,41.71 -20.87,40.66 -19.94,41.57 -19.01,42.48 -18.28,43.72 -17.56,44.96 -16.91,45.86 -16.26,46.77 -15.53,47.70 -14.81,48.64 -13.69,49.37 -12.57,50.09 -11.52,50.83 -10.48,51.57 -9.29,52.45 -8.11,53.34 -7.21,53.91 -6.31,54.48 -4.77,55.35 -3.24,56.22 -1.46,57.39 0.32,58.56 1.18,59.21 2.05,59.87 3.01,60.45 3.97,61.04 4.97,62.17 5.97,63.30 6.09,64.55 6.20,65.80 5.76,66.87 5.32,67.94 4.11,69.35 2.90,70.77 1.76,71.87 0.63,72.97 -0.06,73.90 -0.75,74.84 -1.54,76.11 -2.33,77.37 -3.05,78.96 -3.76,80.55 -4.74,82.54 -5.71,84.53 -6.23,85.51 -6.75,86.48 -7.59,87.90 -8.43,89.33 -8.94,90.45 -9.45,91.57 -10.18,92.80 -10.90,94.03 -11.53,95.11 -12.16,96.19 -12.42,97.23 -12.68,98.28 -13.15,99.28 -13.63,100.28 -13.94,100.56 -14.25,100.84 -14.61,101.04 -14.98,101.24 -15.39,101.35 -15.79,101.46 -16.21,101.46 -16.63,101.47 -17.04,101.38 -17.45,101.28 -17.82,101.10 -18.19,100.91 -18.51,100.63 -18.83,100.36 -19.07,100.02 -19.32,99.68 -19.47,99.29 -19.63,98.90 -19.68,98.49 -19.74,98.07 -19.70,97.66 -19.65,97.24 -19.51,96.84 -19.37,96.45 -19.14,96.10 -18.91,95.75 -16.86,95.25 -14.82,94.76 -13.60,94.78 -12.39,94.81 -10.62,94.84 -8.86,94.88 -7.26,94.86 -5.67,94.85 -3.80,95.01 -1.94,95.18 -0.85,95.63 0.22,96.08 1.30,96.65 2.38,97.22 3.73,97.55 5.07,97.87 6.37,97.88 7.68,97.89 9.35,98.22 11.02,98.55 12.02,99.25 13.02,99.94 13.68,101.33 14.34,102.72 14.54,103.89 14.73,105.05 14.75,106.33 14.77,107.60 14.74,109.23 14.72,110.86 14.68,112.75 14.64,114.63 14.61,116.49 14.58,118.34 14.56,120.14 14.54,121.94 14.53,123.54 14.53,125.15 14.55,126.28 14.56,127.41 14.59,128.92 14.61,130.44 14.61,131.85 14.61,133.26 14.26,135.29 13.91,137.32 13.72,138.90 13.54,140.48 13.37,141.71 13.19,142.93 11.98,142.31 10.77,141.68 11.73,140.92 12.68,140.16 13.69,139.25 14.70,138.35 15.30,137.42 15.90,136.49 16.97,134.95 18.04,133.41 18.99,132.13 19.95,130.86 21.44,129.34 22.93,127.83 23.90,127.20 24.86,126.57 25.95,126.10 27.04,125.62 28.91,125.05 30.79,124.48 32.21,124.26 33.64,124.04 35.12,123.74 36.60,123.44 38.35,123.87 40.11,124.30 41.26,125.35 42.41,126.40 43.03,127.43 43.64,128.46 44.31,130.05 44.98,131.64 45.52,132.97 46.05,134.30 46.51,135.89 46.96,137.48 47.27,139.06 47.59,140.64 47.83,141.85 48.06,143.06 48.30,144.26 48.55,145.46 48.74,146.72 48.92,147.98 47.39,147.34 45.85,146.71 46.65,145.83 47.45,144.94 48.67,143.41 49.90,141.88 50.65,140.13 51.39,138.37 51.85,137.30 52.30,136.22 52.87,135.04 53.45,133.86 53.91,132.80 54.38,131.75 54.97,130.64 55.57,129.53 56.16,128.54 56.76,127.55 57.67,126.32 58.58,125.09 59.29,124.15 60.00,123.22 61.23,121.69 62.46,120.16 63.27,119.12 64.07,118.09 65.15,117.40 66.22,116.72 68.29,116.68 70.36,116.65 71.41,117.38 72.46,118.10 73.77,120.26 75.08,122.42 75.97,124.23 76.85,126.05 77.85,127.99 78.84,129.93 79.82,131.67 80.80,133.42 81.70,134.56 82.60,135.70 83.79,137.19 84.99,138.67 85.84,140.15 86.70,141.64 87.27,142.82 87.84,143.99 88.41,145.18 88.98,146.36 89.29,147.21 89.60,148.07 89.68,148.42 89.76,148.78 89.75,149.15 89.74,149.52 89.65,149.87 89.55,150.23 89.38,150.55 89.20,150.87 88.95,151.14 88.70,151.41 88.39,151.61 88.09,151.81 87.74,151.93 87.39,152.06 87.03,152.09 86.66,152.13 86.30,152.08 85.94,152.03 85.60,151.89 85.26,151.75 84.96,151.54 84.66,151.32 84.42,151.04 84.19,150.76 84.02,150.43 83.86,150.10 84.28,148.52 84.69,146.94 84.94,145.29 85.20,143.64 85.50,142.15 85.80,140.65 86.21,138.96 86.61,137.27 87.15,135.22 87.69,133.16 87.99,132.10 88.29,131.04 88.99,128.81 89.68,126.58 90.07,124.68 90.46,122.78 90.86,120.86 91.26,118.93 91.83,117.26 92.40,115.60 92.72,114.44 93.04,113.28 93.90,111.94 94.76,110.60 95.85,110.22 96.93,109.83 98.34,110.12 99.74,110.41 100.88,110.79 102.02,111.17 103.52,111.82 105.03,112.46 106.27,112.82 107.51,113.18 108.86,113.49 110.21,113.80 111.95,114.07 113.69,114.33 115.36,114.72 117.02,115.11 118.59,115.33 120.17,115.54 121.94,115.87 123.71,116.20 124.95,116.52 126.19,116.84 127.31,117.27 128.43,117.69 129.69,117.87 130.95,118.04 130.36,119.00 129.76,119.96 129.04,118.66 128.32,117.36 127.69,116.19 127.05,115.01 126.20,113.73 125.34,112.46 124.46,110.98 123.57,109.49 122.71,108.05 121.85,106.61 121.31,105.65 120.77,104.69 119.93,103.19 119.10,101.70 118.46,100.50 117.81,99.30 117.26,97.66 116.71,96.01 116.22,94.55 115.73,93.09 115.28,91.59 114.84,90.09 114.36,88.69 113.88,87.30 113.86,85.24 113.83,83.18 114.74,82.12 115.65,81.05 116.86,80.34 118.08,79.62 119.44,79.08 120.79,78.53 122.11,78.09 123.42,77.64 124.53,76.99 125.63,76.35 126.45,75.65 127.27,74.95 128.81,73.79 130.34,72.63 131.45,71.61 132.57,70.58 133.50,69.31 134.43,68.03 135.17,66.96 135.90,65.88 136.17,64.77 136.44,63.66 134.60,63.01 132.75,62.36 131.78,61.86 130.81,61.36 129.83,60.89 128.85,60.41 127.05,59.68 125.26,58.96 124.04,58.47 122.82,57.97 121.47,57.55 120.12,57.12 118.68,56.33 117.24,55.54 116.21,55.04 115.18,54.54 113.68,53.67 112.18,52.80 111.45,51.47 110.72,50.14 110.41,48.72 110.09,47.31 110.04,45.87 109.99,44.44 110.01,42.78 110.02,41.11 110.04,39.40 110.06,37.70 110.02,35.88 109.98,34.06 109.97,32.90 109.95,31.74 109.83,29.86 109.71,27.98 109.58,26.18 109.44,24.38 109.34,22.83 109.24,21.29 109.09,20.12 108.95,18.94 108.85,17.44 108.75,15.93 108.57,14.67 108.39,13.41 108.46,12.30 108.53,11.19 108.25,10.72 107.97,10.25 108.02,9.84 108.07,9.42 108.22,9.03 108.36,8.64 108.60,8.29 108.84,7.95 109.15,7.67 109.46,7.39 109.83,7.19 110.20,7.00 110.61,6.89 111.02,6.79 111.44,6.79 111.86,6.79 112.26,6.89 112.67,6.99 113.04,7.18 113.41,7.38 113.73,7.65 114.04,7.93 114.28,8.27 114.52,8.62 114.67,9.01 114.82,9.40 114.87,9.82 114.92,10.23 114.07,11.80 113.22,13.36 112.21,14.52 111.20,15.68 109.89,17.04 108.58,18.39 107.78,19.33 106.98,20.27 105.99,21.19 105.01,22.12 103.42,23.37 101.84,24.62 100.23,25.69 98.63,26.77 96.86,27.48 95.08,28.20 94.06,28.48 93.04,28.76 91.68,28.89 90.32,29.03 88.49,28.04 86.66,27.05 85.76,25.26 84.86,23.47 84.55,22.38 84.24,21.29 83.93,19.94 83.61,18.59 83.38,17.26 83.15,15.93 82.97,14.88 82.80,13.83 82.64,12.70 82.49,11.58 82.15,9.83 81.80,8.08 81.44,6.55 81.07,5.02 80.75,3.87 80.44,2.71 80.02,1.05 79.60,-0.59 79.18,-2.35 78.76,-4.11 78.39,-5.82 78.03,-7.52 77.83,-8.67 77.63,-9.81 77.22,-11.64 76.81,-13.47 76.57,-14.56 76.33,-15.66 76.28,-16.05 76.23,-16.44 76.28,-16.83 76.32,-17.22 76.46,-17.59 76.60,-17.96 76.82,-18.28 77.04,-18.61 77.34,-18.87 77.63,-19.13 77.98,-19.31 78.32,-19.50 78.70,-19.59 79.09,-19.69 79.48,-19.69 79.87,-19.69 80.25,-19.59 80.63,-19.50 80.98,-19.32 81.33,-19.14 81.62,-18.88 81.92,-18.62 82.14,-18.30 82.37,-17.97 82.51,-17.61 82.65,-17.24 81.64,-15.31 80.63,-13.38 79.62,-11.69 78.60,-10.00 77.82,-9.09 77.04,-8.18 76.22,-7.18 75.40,-6.17 74.33,-4.67 73.26,-3.17 71.94,-1.93 70.62,-0.69 69.52,0.08 68.42,0.86 67.13,1.53 65.85,2.20 64.89,3.02 63.93,3.85 62.55,4.70 61.16,5.54 59.43,5.43 57.71,5.32 56.20,4.02 54.69,2.73 53.97,1.49 53.25,0.26 52.73,-0.75 52.21,-1.77 51.46,-3.37 50.72,-4.97 49.84,-6.57 48.95,-8.18 48.20,-9.57 47.45,-10.96 46.63,-12.50 45.80,-14.03 45.22,-15.09 44.64,-16.14 44.06,-17.12 43.48,-18.10 42.91,-19.03 42.34,-19.96 41.77,-20.88 41.20,-21.79 40.63,-22.69 40.07,-23.59 39.52,-24.58 38.98,-25.57 38.05,-27.41 37.13,-29.26 36.38,-30.48 35.64,-31.70 34.94,-32.76 34.25,-33.81 35.58,-33.65 36.91,-33.49 36.33,-31.81 35.75,-30.13 35.24,-28.44 34.73,-26.76 34.42,-25.22 34.11,-23.68 33.70,-21.82 33.29,-19.96 32.98,-18.30 32.66,-16.65 32.11,-14.69 31.57,-12.73 31.29,-11.67 31.01,-10.61 30.65,-8.76 30.29,-6.92 30.00,-5.37 29.72,-3.83 29.57,-2.74 29.42,-1.66 29.30,-0.47 29.18,0.70 28.80,2.13 28.41,3.57 27.12,5.12 25.82,6.68 24.53,6.92 23.24,7.15 22.15,6.69 21.06,6.22 19.46,5.21 17.86,4.20 16.88,3.30 15.90,2.40 14.69,1.51 13.48,0.63 12.30,0.05 11.12,-0.51 9.88,-1.59 8.64,-2.66 7.85,-3.41 7.06,-4.16 6.09,-5.03 5.12,-5.90 3.46,-6.41 1.80,-6.92 0.56,-7.36 -0.67,-7.81 -0.10,-8.75 0.46,-9.69 0.62,-7.95 0.77,-6.22 0.63,-4.07 0.48,-1.92 0.45,-0.13 0.42,1.65 0.43,3.06 0.45,4.48 0.52,5.66 0.60,6.84 0.74,8.28 0.88,9.73 1.18,10.83 1.47,11.93 1.93,13.54 2.38,15.16 3.01,16.61 3.64,18.05 4.09,19.40 4.55,20.74 5.07,22.01 5.59,23.27 6.23,24.55 6.87,25.82 7.47,27.14 8.07,28.45 8.44,29.46 8.81,30.48 9.25,32.13 9.70,33.79 10.08,34.86 10.46,35.92 10.58,36.47 10.70,37.03 10.63,37.59 10.57,38.15 10.33,38.66 10.10,39.17 9.71,39.58 9.32,39.99 8.82,40.25 8.32,40.51 7.76,40.60 7.21,40.69 6.65,40.60 6.09,40.51 5.60,40.24 5.10,39.98 4.71,39.57 4.33,39.16 4.09,38.65 3.85,38.13 3.79,37.57 3.73,37.01 3.86,36.46 3.98,35.91 4.27,35.43 4.56,34.95 4.99,34.58 5.42,34.22 5.95,34.01 6.47,33.80 7.04,33.77 7.60,33.74 8.14,33.89 8.68,34.05 9.15,34.36 9.62,34.68 9.96,35.13 10.30,35.58 10.48,36.12 10.66,36.65 10.65,37.21 10.65,37.78 10.47,38.31 10.29,38.85 9.95,39.30 9.61,39.74 9.14,40.06 8.67,40.37 8.13,40.52 7.58,40.67 7.02,40.64 6.46,40.61 5.93,40.40 5.41,40.19 4.98,39.82 4.55,39.46 4.26,38.97 3.97,38.49 3.97,38.49 3.97,38.49 3.35,36.48 2.74,34.46 2.32,33.16 1.91,31.85 1.41,30.58 0.91,29.31 0.27,28.09 -0.35,26.87 -0.81,25.70 -1.26,24.54 -1.83,23.05 -2.40,21.57 -2.78,20.45 -3.16,19.33 -3.63,18.09 -4.10,16.85 -4.54,15.31 -4.99,13.77 -5.38,12.16 -5.76,10.55 -5.88,9.15 -6.01,7.74 -6.09,6.11 -6.18,4.47 -6.17,3.04 -6.15,1.61 -6.15,-0.22 -6.14,-2.06 -6.15,-3.26 -6.16,-4.45 -6.13,-5.80 -6.11,-7.15 -5.87,-9.15 -5.63,-11.16 -4.96,-12.26 -4.30,-13.36 -2.37,-14.16 -0.44,-14.96 0.66,-14.70 1.76,-14.45 3.05,-13.98 4.34,-13.51 6.03,-13.02 7.72,-12.54 8.66,-11.87 9.60,-11.20 10.61,-10.29 11.62,-9.38 12.67,-8.37 13.71,-7.36 14.59,-6.59 15.47,-5.82 16.43,-5.36 17.39,-4.90 18.33,-4.21 19.28,-3.51 20.50,-2.46 21.72,-1.40 22.96,-0.50 24.20,0.39 23.13,0.83 22.06,1.27 22.38,0.01 22.70,-1.24 22.97,-2.47 23.24,-3.71 23.50,-5.11 23.76,-6.52 24.09,-8.24 24.42,-9.97 24.62,-11.03 24.83,-12.10 25.10,-13.33 25.37,-14.57 25.82,-16.18 26.26,-17.79 26.62,-19.69 26.98,-21.59 27.33,-23.23 27.68,-24.88 28.03,-26.58 28.38,-28.27 28.96,-30.32 29.53,-32.36 30.27,-34.24 31.02,-36.12 32.16,-37.56 33.30,-39.00 34.43,-39.22 35.55,-39.44 37.13,-38.95 38.71,-38.46 39.56,-37.24 40.42,-36.02 41.09,-34.87 41.75,-33.71 42.66,-31.99 43.56,-30.27 44.44,-28.61 45.32,-26.96 45.90,-26.06 46.49,-25.17 47.08,-24.26 47.68,-23.35 48.29,-22.42 48.90,-21.48 49.55,-20.49 50.20,-19.50 51.37,-17.57 52.54,-15.65 53.38,-14.15 54.22,-12.65 54.86,-11.43 55.51,-10.21 56.18,-8.98 56.85,-7.76 57.51,-6.36 58.17,-4.97 59.03,-3.34 59.89,-1.71 60.71,-2.40 61.54,-3.10 62.91,-3.75 64.28,-4.40 65.77,-5.49 67.26,-6.57 68.08,-7.45 68.90,-8.33 70.03,-9.74 71.16,-11.14 72.18,-12.35 73.20,-13.57 74.32,-15.27 75.45,-16.97 76.34,-17.93 77.24,-18.89 76.78,-17.28 76.33,-15.66 76.28,-16.05 76.23,-16.44 76.28,-16.83 76.32,-17.22 76.46,-17.59 76.60,-17.96 76.82,-18.28 77.04,-18.61 77.34,-18.87 77.63,-19.13 77.98,-19.31 78.32,-19.49 78.70,-19.59 79.09,-19.69 79.48,-19.69 79.87,-19.69 80.25,-19.59 80.63,-19.50 80.98,-19.32 81.33,-19.14 81.62,-18.88 81.92,-18.62 82.14,-18.30 82.37,-17.98 82.51,-17.61 82.65,-17.24 82.70,-16.71 82.76,-16.17 83.09,-14.62 83.42,-13.06 83.86,-11.11 84.30,-9.16 84.72,-7.30 85.14,-5.45 85.57,-3.70 86.00,-1.95 86.40,-0.36 86.79,1.22 87.07,2.42 87.34,3.63 87.65,5.09 87.96,6.55 88.38,8.59 88.79,10.63 89.15,12.65 89.51,14.66 89.76,15.72 90.01,16.78 90.43,18.04 90.86,19.30 90.71,20.87 90.57,22.44 92.29,22.05 94.01,21.66 95.17,20.97 96.34,20.28 97.74,19.19 99.14,18.11 100.39,17.09 101.64,16.06 102.61,14.95 103.57,13.84 104.78,12.53 105.98,11.22 106.98,10.74 107.97,10.25 108.02,9.84 108.07,9.42 108.22,9.03 108.36,8.64 108.60,8.29 108.84,7.95 109.15,7.67 109.46,7.39 109.83,7.19 110.20,7.00 110.61,6.90 111.02,6.79 111.44,6.79 111.85,6.79 112.26,6.89 112.67,6.99 113.04,7.18 113.41,7.38 113.73,7.65 114.04,7.93 114.28,8.27 114.52,8.62 114.67,9.01 114.82,9.40 114.87,9.82 114.92,10.23 115.07,10.86 115.22,11.49 115.21,12.89 115.19,14.29 115.32,15.60 115.44,16.90 115.56,18.11 115.68,19.31 115.80,20.84 115.91,22.37 115.97,24.02 116.03,25.67 116.18,27.51 116.33,29.36 116.51,31.44 116.68,33.52 116.79,34.69 116.90,35.85 116.93,37.73 116.96,39.61 116.98,41.19 117.00,42.78 117.02,44.16 117.05,45.53 117.01,46.71 116.98,47.88 118.18,48.62 119.39,49.36 120.43,49.90 121.48,50.45 122.54,50.92 123.59,51.39 125.14,51.97 126.69,52.55 128.04,53.19 129.40,53.82 130.47,54.20 131.53,54.58 132.58,55.04 133.64,55.50 134.74,56.00 135.85,56.50 136.98,57.05 138.11,57.59 139.17,58.20 140.24,58.81 141.10,59.62 141.97,60.43 142.48,61.46 143.00,62.49 143.03,63.83 143.07,65.18 142.66,66.52 142.26,67.86 141.42,69.36 140.58,70.86 139.65,72.09 138.72,73.33 137.25,75.02 135.79,76.72 134.97,77.40 134.16,78.08 132.99,78.97 131.82,79.86 130.89,80.59 129.97,81.32 128.89,81.98 127.81,82.63 126.77,83.18 125.74,83.72 124.60,84.21 123.46,84.70 122.05,85.31 120.63,85.93 121.09,87.50 121.54,89.08 121.85,90.16 122.17,91.24 122.62,92.60 123.07,93.96 123.68,95.71 124.30,97.46 124.93,98.67 125.57,99.89 126.42,101.35 127.28,102.80 128.28,104.41 129.28,106.02 129.99,107.24 130.70,108.47 131.79,110.07 132.87,111.66 133.43,112.61 133.99,113.56 134.70,115.52 135.41,117.49 135.58,118.64 135.75,119.80 135.02,121.75 134.29,123.71 132.34,124.24 130.38,124.78 128.74,124.53 127.11,124.28 125.32,123.54 123.53,122.81 122.02,122.30 120.50,121.80 119.07,121.53 117.64,121.25 116.58,121.11 115.52,120.97 113.91,120.52 112.29,120.07 110.70,119.74 109.11,119.41 107.60,119.16 106.08,118.91 104.47,118.56 102.86,118.20 101.53,117.78 100.19,117.35 98.91,116.84 97.63,116.32 98.49,115.47 99.35,114.62 99.02,115.65 98.69,116.68 98.19,117.92 97.69,119.16 97.23,120.59 96.77,122.03 96.40,123.99 96.03,125.94 95.77,127.09 95.52,128.24 95.19,129.57 94.85,130.90 94.32,132.75 93.79,134.59 93.31,136.58 92.83,138.58 92.40,140.29 91.97,142.00 91.57,143.75 91.16,145.49 90.68,146.96 90.21,148.43 89.72,149.61 89.22,150.78 89.41,149.42 89.60,148.07 89.68,148.42 89.76,148.78 89.75,149.15 89.74,149.52 89.65,149.87 89.55,150.22 89.38,150.55 89.20,150.87 88.95,151.14 88.70,151.41 88.39,151.61 88.09,151.81 87.74,151.93 87.40,152.06 87.03,152.09 86.66,152.13 86.30,152.08 85.94,152.03 85.60,151.89 85.26,151.75 84.96,151.54 84.66,151.32 84.42,151.04 84.19,150.76 84.02,150.43 83.86,150.10 83.67,149.31 83.49,148.51 83.01,147.24 82.53,145.98 82.18,144.80 81.82,143.62 81.38,142.53 80.94,141.43 80.02,139.92 79.10,138.40 78.10,137.08 77.10,135.76 75.93,134.12 74.76,132.48 73.42,130.69 72.08,128.89 70.97,127.34 69.86,125.80 68.94,124.29 68.02,122.78 66.94,124.07 65.87,125.36 64.64,126.91 63.40,128.45 62.69,129.55 61.97,130.65 61.00,132.39 60.03,134.12 59.56,135.29 59.09,136.47 58.64,137.50 58.19,138.54 57.78,139.66 57.36,140.78 56.94,141.91 56.52,143.03 55.93,144.38 55.34,145.73 54.65,146.75 53.96,147.77 53.02,148.97 52.09,150.17 51.27,150.95 50.45,151.74 49.15,152.64 47.86,153.55 46.74,153.39 45.61,153.23 43.85,151.34 42.09,149.45 41.91,148.40 41.72,147.35 41.58,146.27 41.43,145.20 41.12,143.55 40.81,141.89 40.52,140.53 40.23,139.17 39.94,138.07 39.65,136.97 39.05,135.52 38.44,134.07 38.02,133.03 37.60,132.00 36.78,131.08 35.97,130.15 34.28,130.48 32.59,130.80 31.07,131.26 29.55,131.72 28.40,132.30 27.25,132.88 26.20,134.00 25.15,135.12 24.28,136.29 23.41,137.45 22.56,138.71 21.71,139.96 21.10,140.94 20.50,141.93 19.27,143.18 18.04,144.43 16.37,145.69 14.70,146.95 13.71,147.40 12.72,147.86 11.17,148.11 9.61,148.37 8.53,147.69 7.45,147.02 6.86,145.11 6.27,143.21 6.46,141.80 6.64,140.40 6.85,139.07 7.05,137.75 7.18,136.65 7.31,135.56 7.52,134.41 7.73,133.26 7.73,131.85 7.73,130.44 7.75,128.92 7.78,127.41 7.80,126.28 7.81,125.15 7.81,123.54 7.80,121.94 7.78,120.14 7.76,118.34 7.73,116.49 7.70,114.63 7.66,112.75 7.62,110.87 7.59,109.26 7.56,107.66 8.12,106.29 8.69,104.93 7.55,104.92 6.40,104.92 4.98,104.91 3.56,104.90 2.21,104.68 0.86,104.46 -0.18,103.78 -1.24,103.10 -2.20,102.50 -3.15,101.90 -4.41,101.81 -5.67,101.72 -7.28,101.70 -8.88,101.68 -10.69,101.70 -12.50,101.72 -14.32,101.65 -16.15,101.58 -14.89,100.93 -13.63,100.28 -13.94,100.56 -14.25,100.84 -14.61,101.04 -14.98,101.24 -15.39,101.35 -15.79,101.46 -16.21,101.46 -16.63,101.47 -17.04,101.38 -17.45,101.28 -17.82,101.10 -18.19,100.91 -18.51,100.63 -18.83,100.36 -19.07,100.02 -19.32,99.68 -19.47,99.29 -19.63,98.90 -19.68,98.49 -19.74,98.07 -19.70,97.66 -19.65,97.24 -19.51,96.84 -19.37,96.45 -19.14,96.10 -18.91,95.75 -19.08,96.14 -19.25,96.52 -18.90,95.50 -18.56,94.48 -17.96,93.15 -17.35,91.81 -16.64,90.58 -15.92,89.35 -15.36,88.38 -14.80,87.40 -14.06,86.11 -13.33,84.81 -12.52,83.35 -11.71,81.88 -11.23,80.68 -10.75,79.48 -10.00,77.79 -9.26,76.09 -8.34,74.13 -7.42,72.17 -6.45,70.73 -5.48,69.30 -4.37,68.10 -3.27,66.90 -2.09,65.79 -0.92,64.68 -0.28,65.91 0.35,67.15 -1.15,66.16 -2.67,65.16 -3.44,64.25 -4.22,63.34 -5.38,62.86 -6.54,62.38 -7.96,61.62 -9.37,60.87 -10.34,60.37 -11.30,59.88 -12.39,59.06 -13.48,58.24 -14.51,57.53 -15.54,56.82 -16.52,56.18 -17.50,55.55 -18.59,54.71 -19.68,53.88 -20.42,52.98 -21.15,52.08 -22.04,50.91 -22.93,49.74 -23.87,48.27 -24.82,46.80 -25.60,45.78 -26.39,44.76 -27.18,43.13 -27.97,41.50 -27.92,40.38 -27.87,39.26 -26.44,37.78 -25.00,36.31 -23.65,36.10 -22.30,35.88 -20.60,35.61 -18.91,35.33 -17.51,34.92 -16.12,34.50 -14.28,34.35 -12.44,34.19 -11.11,34.22 -9.78,34.25 -8.18,34.28 -6.58,34.31 -5.41,34.35 -4.23,34.40 -2.93,34.46 -1.64,34.52 -0.43,34.61 0.76,34.70 2.21,35.00 3.65,35.30 4.71,35.55 5.76,35.79 6.75,35.82 7.73,35.85 8.05,35.89 8.37,35.93 8.67,36.04 8.97,36.16 9.23,36.34 9.49,36.52 9.71,36.76 9.92,37.00 10.07,37.28 10.22,37.57 10.29,37.88 10.37,38.19 10.37,38.51 10.37,38.83 10.29,39.14 10.22,39.45 10.07,39.74 9.92,40.02 9.71,40.26 9.49,40.50 9.23,40.68 8.97,40.87 8.67,40.98 8.37,41.09 8.05,41.13 7.73,41.17 7.73,41.17 L 7.73,41.17 Z"></path></g><g transform="translate(670.3835200179929 469.19068691482784) rotate(0 47.731048583984375 49.17857142857144)"><text x="47.731048583984375" y="0" font-family="Virgil, Segoe UI Emoji" font-size="26.228571428571435px" fill="#1e1e1e" text-anchor="middle" style="white-space: pre;" direction="ltr" dominant-baseline="text-before-edge">Extend,</text><text x="47.731048583984375" y="32.78571428571429" font-family="Virgil, Segoe UI Emoji" font-size="26.228571428571435px" fill="#1e1e1e" text-anchor="middle" style="white-space: pre;" direction="ltr" dominant-baseline="text-before-edge">Prove,</text><text x="47.731048583984375" y="65.57142857142858" font-family="Virgil, Segoe UI Emoji" font-size="26.228571428571435px" fill="#1e1e1e" text-anchor="middle" style="white-space: pre;" direction="ltr" dominant-baseline="text-before-edge">Publish</text></g></svg>