<svg version="1.1" xmlns="http://www.w3.org/2000/svg" viewBox="0 0 863.0240934709841 712.9885422094088" width="863.0240934709841" height="712.9885422094088">
  <!-- svg-source:excalidraw -->
  
  <defs>
    <style class="style-fonts">
      @font-face {
        font-family: "Virgil";
        src: url("https://excalidraw.com/Virgil.woff2");
      }
      @font-face {
        font-family: "Cascadia";
        src: url("https://excalidraw.com/Cascadia.woff2");
      }
      @font-face {
        font-family: "Assistant";
        src: url("https://excalidraw.com/Assistant-Regular.woff2");
      }
    </style>
    
  </defs>
  <rect x="0" y="0" width="863.0240934709841" height="712.9885422094088" fill="#ffffff"></rect><g stroke-linecap="round" transform="translate(10 10) rotate(0 421.51204673549205 346.4942711047044)"><path d="M32 0 C269.91 0, 507.82 0, 811.02 0 C832.36 0, 843.02 10.67, 843.02 32 C843.02 228.67, 843.02 425.34, 843.02 660.99 C843.02 682.32, 832.36 692.99, 811.02 692.99 C547.89 692.99, 284.75 692.99, 32 692.99 C10.67 692.99, 0 682.32, 0 660.99 C0 416.55, 0 172.11, 0 32 C0 10.67, 10.67 0, 32 0" stroke="none" stroke-width="0" fill="#ffffff"></path><path d="M32 0 C252.47 0, 472.95 0, 811.02 0 M32 0 C196.46 0, 360.91 0, 811.02 0 M811.02 0 C832.36 0, 843.02 10.67, 843.02 32 M811.02 0 C832.36 0, 843.02 10.67, 843.02 32 M843.02 32 C843.02 241.7, 843.02 451.39, 843.02 660.99 M843.02 32 C843.02 249.95, 843.02 467.91, 843.02 660.99 M843.02 660.99 C843.02 682.32, 832.36 692.99, 811.02 692.99 M843.02 660.99 C843.02 682.32, 832.36 692.99, 811.02 692.99 M811.02 692.99 C615.61 692.99, 420.2 692.99, 32 692.99 M811.02 692.99 C629.95 692.99, 448.87 692.99, 32 692.99 M32 692.99 C10.67 692.99, 0 682.32, 0 660.99 M32 692.99 C10.67 692.99, 0 682.32, 0 660.99 M0 660.99 C0 423.67, 0 186.35, 0 32 M0 660.99 C0 428.64, 0 196.3, 0 32 M0 32 C0 10.67, 10.67 0, 32 0 M0 32 C0 10.67, 10.67 0, 32 0" stroke="#1e1e1e" stroke-width="4" fill="none"></path></g><g stroke-linecap="round" transform="translate(288.030843065108 134.95736228666487) rotate(0 146.26840781591955 186.17844927729948)"><path d="M32 0 C105.93 0, 179.87 0, 260.54 0 C281.87 0, 292.54 10.67, 292.54 32 C292.54 152.43, 292.54 272.86, 292.54 340.36 C292.54 361.69, 281.87 372.36, 260.54 372.36 C187.9 372.36, 115.25 372.36, 32 372.36 C10.67 372.36, 0 361.69, 0 340.36 C0 237.29, 0 134.23, 0 32 C0 10.67, 10.67 0, 32 0" stroke="none" stroke-width="0" fill="#fff9db"></path><path d="M32 0 C82.8 0, 133.6 0, 260.54 0 M260.54 0 C281.87 0, 292.54 10.67, 292.54 32 M292.54 32 C292.54 153.47, 292.54 274.95, 292.54 340.36 M292.54 340.36 C292.54 361.69, 281.87 372.36, 260.54 372.36 M260.54 372.36 C213.21 372.36, 165.89 372.36, 32 372.36 M32 372.36 C10.67 372.36, 0 361.69, 0 340.36 M0 340.36 C0 256.11, 0 171.86, 0 32 M0 32 C0 10.67, 10.67 0, 32 0" stroke="#1e1e1e" stroke-width="1.5" fill="none" stroke-dasharray="1.5 7"></path></g><g transform="translate(307.73675088102755 483.1142608412638) rotate(0 126.5625 9.600000000000023)"><text x="126.5625" y="15.45" font-family="Cascadia, Segoe UI Emoji" font-size="16px" fill="#1e1e1e" text-anchor="middle" style="white-space: pre;" direction="ltr" dominant-baseline="alphabetic">"content addressed network"</text></g><g stroke-linecap="round" transform="translate(94.61411387161434 203.2353109021235) rotate(0 21.5 19)"><path d="M25.7 -0.16 C30.19 0.16, 35.38 3.37, 38.32 6.52 C41.27 9.68, 43.44 14.58, 43.37 18.77 C43.3 22.97, 40.98 28.58, 37.93 31.69 C34.87 34.8, 29.6 36.72, 25.04 37.42 C20.47 38.12, 14.52 37.92, 10.54 35.89 C6.57 33.87, 2.71 29.16, 1.19 25.28 C-0.32 21.39, -0.08 16.37, 1.45 12.56 C2.97 8.75, 6.18 4.41, 10.33 2.42 C14.48 0.43, 23.59 0.82, 26.34 0.61 C29.08 0.41, 26.86 0.96, 26.78 1.2 M16.5 0.81 C20.53 -0.22, 26.65 1.11, 30.82 2.92 C35 4.72, 39.58 8.07, 41.56 11.66 C43.54 15.24, 44.23 20.6, 42.7 24.41 C41.18 28.23, 36.33 32.42, 32.39 34.56 C28.44 36.69, 23.43 37.74, 19.06 37.21 C14.68 36.68, 9.41 34.42, 6.14 31.39 C2.87 28.36, -0.28 22.92, -0.56 19.02 C-0.85 15.12, 1.4 11.09, 4.43 8.01 C7.46 4.93, 15.41 1.73, 17.61 0.53 C19.8 -0.68, 17.55 0.55, 17.6 0.78" stroke="none" stroke-width="0" fill="#f08c00"></path><path d="M24.83 0.13 C29.2 0.58, 35.42 3.98, 38.41 7.08 C41.4 10.17, 42.92 14.77, 42.78 18.71 C42.64 22.65, 40.52 27.49, 37.57 30.71 C34.63 33.93, 29.67 37.2, 25.12 38.01 C20.58 38.81, 14.21 37.59, 10.31 35.55 C6.41 33.52, 3.21 29.68, 1.73 25.8 C0.25 21.92, -0.09 16.17, 1.42 12.28 C2.93 8.38, 6.63 4.48, 10.78 2.45 C14.93 0.43, 23.59 0.42, 26.33 0.15 C29.07 -0.12, 27.4 0.53, 27.24 0.83 M21.35 -0.45 C25.62 -0.88, 31.59 1.15, 35.26 3.91 C38.94 6.67, 42.74 12.05, 43.4 16.13 C44.07 20.2, 41.72 24.92, 39.25 28.38 C36.78 31.84, 32.79 35.43, 28.57 36.88 C24.34 38.33, 18.21 38.5, 13.89 37.07 C9.56 35.64, 4.78 31.95, 2.61 28.32 C0.44 24.7, -0.06 19.28, 0.88 15.31 C1.82 11.35, 4.77 7.11, 8.24 4.55 C11.71 1.99, 19.37 0.62, 21.72 -0.02 C24.06 -0.66, 22.36 0.26, 22.32 0.7" stroke="#000000" stroke-width="1" fill="none"></path></g><g stroke-linecap="round"><g transform="translate(114.61411387161434 240.2353109021235) rotate(0 0.6380652852570847 38.2524710658472)"><path d="M0.83 0.9 C0.92 13.46, 1.51 62.41, 1.47 75.11 M-0.19 0.32 C-0.3 13.03, 0.8 63.68, 0.78 76.18" stroke="#000000" stroke-width="1" fill="none"></path></g></g><mask></mask><g stroke-linecap="round"><g transform="translate(114.61411387161434 314.2353109021235) rotate(0 -15.510823005451812 23.105657510459423)"><path d="M0.47 -0.89 C-4.72 6.81, -25.4 39.37, -30.36 47.1 M-0.74 1.26 C-6.2 8.57, -26.68 38.01, -31.5 45.55" stroke="#000000" stroke-width="1" fill="none"></path></g></g><mask></mask><g stroke-linecap="round"><g transform="translate(146.61411387161434 362.2353109021235) rotate(0 -14.078218831596928 -23.21615125685929)"><path d="M-0.36 1.1 C-5.31 -6.68, -24.21 -39.35, -29.25 -47.53 M1.65 0.63 C-3.44 -6.91, -24.25 -38.3, -29.81 -46.27" stroke="#000000" stroke-width="1" fill="none"></path></g></g><mask></mask><g stroke-linecap="round"><g transform="translate(87.61411387161615 279.2353109021235) rotate(0 29.72199512404393 -11.09885470783803)"><path d="M0.75 -0.53 C10.37 -4.71, 48.03 -20.2, 57.38 -24 M-0.32 1.81 C9.73 -1.75, 49.86 -18.99, 59.76 -22.99" stroke="#000000" stroke-width="1" fill="none"></path></g></g><mask></mask><g stroke-linecap="round" transform="translate(726.006141344064 309.53040579636775) rotate(0 19.005175694322816 16.795271543820206)"><path d="M15.92 0.41 C19.78 -0.39, 25.52 0.38, 28.99 2.22 C32.46 4.06, 35.44 7.95, 36.72 11.43 C38.01 14.91, 38.1 19.68, 36.68 23.09 C35.26 26.51, 31.75 30.29, 28.21 31.94 C24.67 33.59, 19.48 33.79, 15.44 33.01 C11.41 32.22, 6.54 30.07, 4.01 27.23 C1.48 24.39, 0.18 19.61, 0.25 15.96 C0.32 12.31, 1.75 8, 4.43 5.34 C7.11 2.68, 14.28 0.79, 16.35 0.01 C18.41 -0.78, 16.77 0.3, 16.84 0.65 M18.24 0.43 C22.04 0.15, 26.87 2.07, 30.17 4.28 C33.47 6.49, 37.08 10.32, 38.04 13.67 C39 17.03, 37.84 21.32, 35.92 24.39 C33.99 27.46, 30.36 30.59, 26.49 32.1 C22.62 33.62, 16.55 34.54, 12.69 33.48 C8.83 32.43, 5.31 28.94, 3.32 25.76 C1.33 22.58, 0.23 17.87, 0.74 14.4 C1.24 10.93, 3.46 7.24, 6.35 4.95 C9.23 2.66, 16.11 1.33, 18.05 0.65 C19.98 -0.02, 17.86 0.69, 17.97 0.9" stroke="none" stroke-width="0" fill="#a5d8ff"></path><path d="M22.3 -0.05 C26.24 0.21, 30.97 2.68, 33.54 5.38 C36.12 8.09, 37.8 12.46, 37.76 16.2 C37.71 19.94, 35.85 24.92, 33.26 27.83 C30.67 30.74, 26.14 33.04, 22.21 33.66 C18.29 34.28, 13.25 33.36, 9.7 31.55 C6.16 29.74, 2.31 26.23, 0.94 22.8 C-0.42 19.37, 0.16 14.33, 1.51 10.95 C2.85 7.57, 5.45 4.21, 9.04 2.52 C12.63 0.83, 20.62 1.06, 23.05 0.82 C25.47 0.57, 23.62 0.92, 23.58 1.05 M20.3 0.24 C24.11 0.1, 28.93 1.29, 31.91 3.69 C34.9 6.09, 37.76 10.85, 38.21 14.65 C38.66 18.45, 36.98 23.51, 34.61 26.48 C32.23 29.46, 27.89 31.41, 23.96 32.47 C20.02 33.54, 14.69 34.07, 10.99 32.86 C7.3 31.66, 3.55 28.46, 1.79 25.25 C0.03 22.04, -0.46 17.33, 0.45 13.62 C1.36 9.9, 4.11 5.24, 7.24 2.97 C10.38 0.69, 17.11 0.44, 19.27 -0.04 C21.43 -0.52, 20.08 -0.25, 20.22 0.08" stroke="#000000" stroke-width="1" fill="none"></path></g><g stroke-linecap="round"><g transform="translate(746.6391453404308 342.236987223807) rotate(0 -0.5783726959164142 33.56174858480097)"><path d="M0.76 -0.78 C0.5 10.59, -0.56 56.5, -0.94 67.9 M-0.3 1.43 C-0.77 12.48, -1.53 55.47, -1.92 66.15" stroke="#000000" stroke-width="1" fill="none"></path></g></g><mask></mask><g stroke-linecap="round"><g transform="translate(746.5285653808864 407.65015007868556) rotate(0 13.36817679810838 20.571605485731936)"><path d="M-0.05 0.72 C4.13 7.7, 21.63 34.54, 25.89 41.09 M-1.54 0.05 C2.98 6.73, 23.37 32.36, 28.28 39.2" stroke="#000000" stroke-width="1" fill="none"></path></g></g><mask></mask><g stroke-linecap="round"><g transform="translate(717.6291811652086 450.08030976833663) rotate(0 13.5596582189346 -20.860175630639674)"><path d="M-0.62 0.43 C3.64 -6.71, 21.15 -34.96, 25.54 -42.15 M1.25 -0.39 C5.89 -7.44, 23.25 -33.99, 27.74 -40.93" stroke="#000000" stroke-width="1" fill="none"></path></g></g><mask></mask><g stroke-linecap="round"><g transform="translate(769.990177959075 376.71149197164846) rotate(0 -25.66584136631377 -9.91846502313308)"><path d="M-0.98 -0.61 C-9.55 -4.27, -43.84 -18.08, -52.04 -21.53 M0.71 1.69 C-7.42 -1.91, -41.22 -16.92, -49.74 -20.62" stroke="#000000" stroke-width="1" fill="none"></path></g></g><mask></mask><g stroke-linecap="round"><g transform="translate(142.95693466540934 233.6575575969748) rotate(0 73.24024048745241 0.839265084063527)"><path d="M0 0 C11.68 0.27, 45.69 1.39, 70.1 1.61 C94.52 1.84, 133.75 1.41, 146.48 1.37 M0 0 C11.68 0.27, 45.69 1.39, 70.1 1.61 C94.52 1.84, 133.75 1.41, 146.48 1.37" stroke="#f08c00" stroke-width="4" fill="none"></path></g><g transform="translate(142.95693466540934 233.6575575969748) rotate(0 73.24024048745241 0.839265084063527)"><path d="M123.04 10.07 C132.2 6.67, 141.35 3.27, 146.48 1.37 M123.04 10.07 C128.08 8.2, 133.11 6.33, 146.48 1.37" stroke="#f08c00" stroke-width="4" fill="none"></path></g><g transform="translate(142.95693466540934 233.6575575969748) rotate(0 73.24024048745241 0.839265084063527)"><path d="M122.93 -7.03 C132.13 -3.75, 141.33 -0.47, 146.48 1.37 M122.93 -7.03 C127.99 -5.23, 133.05 -3.42, 146.48 1.37" stroke="#f08c00" stroke-width="4" fill="none"></path></g></g><mask></mask><g stroke-linecap="round"><g transform="translate(586.6706239699274 234.21435071444375) rotate(0 69.31016815526709 37.631171007438695)"><path d="M0 0 C14.31 2.02, 62.74 -0.4, 85.84 12.14 C108.94 24.68, 129.82 64.74, 138.62 75.26 M0 0 C14.31 2.02, 62.74 -0.4, 85.84 12.14 C108.94 24.68, 129.82 64.74, 138.62 75.26" stroke="#f08c00" stroke-width="4" fill="none"></path></g><g transform="translate(586.6706239699274 234.21435071444375) rotate(0 69.31016815526709 37.631171007438695)"><path d="M118.28 60.73 C125.61 65.97, 132.94 71.21, 138.62 75.26 M118.28 60.73 C122.9 64.03, 127.51 67.33, 138.62 75.26" stroke="#f08c00" stroke-width="4" fill="none"></path></g><g transform="translate(586.6706239699274 234.21435071444375) rotate(0 69.31016815526709 37.631171007438695)"><path d="M132.38 51.05 C134.63 59.78, 136.88 68.51, 138.62 75.26 M132.38 51.05 C133.8 56.55, 135.21 62.05, 138.62 75.26" stroke="#f08c00" stroke-width="4" fill="none"></path></g></g><mask></mask><g stroke-linecap="round" transform="translate(306.0400656597244 224.41800412894315) rotate(0 131.95578300241255 113)"><path d="M32 0 C75.34 -3.79, 112.93 -2.25, 231.91 0 C255.25 3.03, 266.91 9.44, 263.91 32 C265.15 94.21, 263 162.64, 263.91 194 C267.01 216.68, 253.7 224.73, 231.91 226 C163.02 229.02, 92.55 227.33, 32 226 C13.44 222.63, 0.81 217.42, 0 194 C0.82 146.95, 2.57 96.64, 0 32 C-0.6 8.28, 10.23 0.52, 32 0" stroke="none" stroke-width="0" fill="#ffffff"></path><path d="M32 0 C83.12 -3.49, 129.72 -1.84, 231.91 0 M231.91 0 C251.47 1.78, 263.53 11.08, 263.91 32 M263.91 32 C263.61 88.16, 264.49 140.75, 263.91 194 M263.91 194 C265.76 214.66, 253.13 226.2, 231.91 226 M231.91 226 C169.45 226.23, 106.8 228.08, 32 226 M32 226 C10.31 224.93, 0.27 215.94, 0 194 M0 194 C-0.7 133.62, 0.65 69.43, 0 32 M0 32 C1.57 10.46, 10.03 0.55, 32 0" stroke="#1971c2" stroke-width="4.5" fill="none" stroke-dasharray="8 12"></path></g><g transform="translate(311.0400656597244 229.41800412894315) rotate(0 90.234375 100.80000000000001)"><text x="0" y="27.0375" font-family="Cascadia, Segoe UI Emoji" font-size="28px" fill="#1971c2" text-anchor="start" style="white-space: pre;" direction="ltr" dominant-baseline="alphabetic"></text><text x="0" y="60.6375" font-family="Cascadia, Segoe UI Emoji" font-size="28px" fill="#1971c2" text-anchor="start" style="white-space: pre;" direction="ltr" dominant-baseline="alphabetic"></text><text x="0" y="94.23750000000001" font-family="Cascadia, Segoe UI Emoji" font-size="28px" fill="#1971c2" text-anchor="start" style="white-space: pre;" direction="ltr" dominant-baseline="alphabetic">- new email</text><text x="0" y="127.8375" font-family="Cascadia, Segoe UI Emoji" font-size="28px" fill="#1971c2" text-anchor="start" style="white-space: pre;" direction="ltr" dominant-baseline="alphabetic">- phone</text><text x="0" y="161.4375" font-family="Cascadia, Segoe UI Emoji" font-size="28px" fill="#1971c2" text-anchor="start" style="white-space: pre;" direction="ltr" dominant-baseline="alphabetic">- keys, </text><text x="0" y="195.0375" font-family="Cascadia, Segoe UI Emoji" font-size="28px" fill="#1971c2" text-anchor="start" style="white-space: pre;" direction="ltr" dominant-baseline="alphabetic">- data</text></g><g stroke-linecap="round"><g transform="translate(732.0688065939853 355.0998587950512) rotate(0 -79.78541008429829 35.328993204453695)"><path d="M0 0 C-10.42 7.76, -35.92 34.78, -62.52 46.56 C-89.11 58.33, -143.39 66.64, -159.57 70.66 M0 0 C-10.42 7.76, -35.92 34.78, -62.52 46.56 C-89.11 58.33, -143.39 66.64, -159.57 70.66" stroke="#1971c2" stroke-width="4" fill="none"></path></g><g transform="translate(732.0688065939853 355.0998587950512) rotate(0 -79.78541008429829 35.328993204453695)"><path d="M-138.29 57.54 C-146.3 62.48, -154.32 67.42, -159.57 70.66 M-138.29 57.54 C-144.44 61.34, -150.6 65.13, -159.57 70.66" stroke="#1971c2" stroke-width="4" fill="none"></path></g><g transform="translate(732.0688065939853 355.0998587950512) rotate(0 -79.78541008429829 35.328993204453695)"><path d="M-134.84 74.29 C-144.15 72.92, -153.46 71.56, -159.57 70.66 M-134.84 74.29 C-141.99 73.24, -149.14 72.19, -159.57 70.66" stroke="#1971c2" stroke-width="4" fill="none"></path></g></g><mask></mask><g stroke-linecap="round" transform="translate(304.30583226800763 179.35483808144113) rotate(0 133.12045977922799 55.830408686004944)"><path d="M27.92 0 C91.09 2.54, 153.65 3.02, 238.33 0 C259.56 -1.32, 266.45 10.31, 266.24 27.92 C270.48 42.47, 267.9 51.67, 266.24 83.75 C265.93 102.84, 254.02 108.95, 238.33 111.66 C189.46 112.13, 142.47 108.39, 27.92 111.66 C10.57 108.16, 0.89 99.98, 0 83.75 C-3.02 67.64, 0.67 55.03, 0 27.92 C3.07 9.39, 8.18 -3.06, 27.92 0" stroke="none" stroke-width="0" fill="#ffffff"></path><path d="M27.92 0 C81.23 -1.07, 135.03 -1.8, 238.33 0 M27.92 0 C102.33 2.02, 176.22 1.9, 238.33 0 M238.33 0 C258.15 1.69, 265.8 8.43, 266.24 27.92 M238.33 0 C258.43 -1.92, 265.33 9.34, 266.24 27.92 M266.24 27.92 C266.72 42.07, 264.49 56.72, 266.24 83.75 M266.24 27.92 C266.19 45.47, 265.05 62.47, 266.24 83.75 M266.24 83.75 C266.14 103.52, 257.33 110.47, 238.33 111.66 M266.24 83.75 C265.51 101.75, 256.49 111.04, 238.33 111.66 M238.33 111.66 C176.69 110.08, 116.1 108.73, 27.92 111.66 M238.33 111.66 C168.58 112.41, 99.01 110.96, 27.92 111.66 M27.92 111.66 C8.72 111.37, 1.8 101.11, 0 83.75 M27.92 111.66 C8.64 109.66, -0.73 102.22, 0 83.75 M0 83.75 C-0.87 69.64, -1.83 54.98, 0 27.92 M0 83.75 C-0.73 61.07, 0.31 39.43, 0 27.92 M0 27.92 C0.56 11.28, 8.12 -1.98, 27.92 0 M0 27.92 C-0.59 8.63, 9.54 -1.27, 27.92 0" stroke="#f08c00" stroke-width="4" fill="none"></path></g><g transform="translate(309.30583226800763 184.35483808144113) rotate(0 57.421875 50.39999999999998)"><text x="0" y="27.0375" font-family="Cascadia, Segoe UI Emoji" font-size="28px" fill="#f08c00" text-anchor="start" style="white-space: pre;" direction="ltr" dominant-baseline="alphabetic">- name</text><text x="0" y="60.6375" font-family="Cascadia, Segoe UI Emoji" font-size="28px" fill="#f08c00" text-anchor="start" style="white-space: pre;" direction="ltr" dominant-baseline="alphabetic">- email</text><text x="0" y="94.23750000000001" font-family="Cascadia, Segoe UI Emoji" font-size="28px" fill="#f08c00" text-anchor="start" style="white-space: pre;" direction="ltr" dominant-baseline="alphabetic">- pic</text></g><g stroke-linecap="round"><g transform="translate(300.8304998703443 377.49393310634275) rotate(0 -75.81376350912842 -30.19776649673412)"><path d="M0 0 C-13.46 -0.87, -55.51 4.98, -80.78 -5.24 C-106.05 -15.45, -139.82 -51.94, -151.63 -61.28" stroke="#1971c2" stroke-width="4.5" fill="none" stroke-dasharray="8 12"></path></g><g transform="translate(300.8304998703443 377.49393310634275) rotate(0 -75.81376350912842 -30.19776649673412)"><path d="M-128.49 -51.81 C-133.85 -54.01, -139.21 -56.2, -151.63 -61.28" stroke="#1971c2" stroke-width="4.5" fill="none"></path></g><g transform="translate(300.8304998703443 377.49393310634275) rotate(0 -75.81376350912842 -30.19776649673412)"><path d="M-139.99 -39.16 C-142.68 -44.28, -145.38 -49.4, -151.63 -61.28" stroke="#1971c2" stroke-width="4.5" fill="none"></path></g></g><mask></mask><g transform="translate(248.37461630625467 46.32281225934298) rotate(0 179.296875 21.600000000000023)"><text x="179.296875" y="34.762499999999996" font-family="Cascadia, Segoe UI Emoji" font-size="36px" fill="#1e1e1e" text-anchor="middle" style="white-space: pre;" direction="ltr" dominant-baseline="alphabetic">PeerWise Pointers</text></g><g transform="translate(220.57822591079685 85.23319036617045) rotate(0 205.078125 12)"><text x="205.078125" y="19.3125" font-family="Cascadia, Segoe UI Emoji" font-size="20px" fill="#2f9e44" text-anchor="middle" style="white-space: pre;" direction="ltr" dominant-baseline="alphabetic">Stay connected, effectively forever</text></g><g stroke-linecap="round" transform="translate(48.035287523311354 134.96806258952483) rotate(0 115.83333333333314 31)"><path d="M64.25 1.18 C77.04 -1.29, 97 -1.27, 112.97 -1.04 C128.95 -0.81, 145.91 0.82, 160.08 2.56 C174.24 4.31, 186.88 6.39, 197.96 9.42 C209.04 12.45, 221.09 16.72, 226.57 20.72 C232.04 24.72, 232.3 29.49, 230.81 33.4 C229.32 37.32, 224.69 40.81, 217.62 44.22 C210.54 47.63, 200.84 51.38, 188.34 53.86 C175.85 56.33, 158.41 57.93, 142.66 59.09 C126.91 60.24, 109 61.32, 93.86 60.78 C78.72 60.25, 64.49 57.82, 51.81 55.86 C39.12 53.9, 26.52 52.27, 17.76 49.02 C9.01 45.78, 1.34 41.07, -0.7 36.38 C-2.74 31.69, 0.94 24.99, 5.54 20.9 C10.14 16.81, 13.66 15.01, 26.92 11.84 C40.18 8.68, 71.62 3.55, 85.09 1.93 C98.56 0.32, 106.66 2.08, 107.73 2.14 M23.3 12.61 C30.49 8.98, 43.95 8.01, 57.19 5.62 C70.43 3.24, 87.15 -0.56, 102.74 -1.7 C118.32 -2.83, 135.95 -2.68, 150.69 -1.18 C165.44 0.31, 179.51 4.38, 191.2 7.26 C202.9 10.14, 214.13 12.53, 220.86 16.1 C227.58 19.67, 231.19 24.37, 231.55 28.69 C231.91 33, 228.81 37.89, 223.01 41.99 C217.22 46.09, 208.02 50.12, 196.76 53.29 C185.51 56.45, 170.3 59.98, 155.47 60.97 C140.63 61.96, 123.56 59.96, 107.74 59.22 C91.93 58.49, 74.61 57.72, 60.56 56.57 C46.52 55.42, 33.43 55.61, 23.46 52.33 C13.48 49.05, 4.3 40.97, 0.74 36.88 C-2.83 32.79, -1.72 31.3, 2.06 27.78 C5.83 24.27, 20.47 17.74, 23.39 15.78 C26.31 13.83, 18.66 16.51, 19.58 16.05" stroke="#f08c00" stroke-width="4" fill="none"></path></g><g transform="translate(90.1339603692029 149.24775237274184) rotate(0 73.828125 16.799999999999955)"><text x="73.828125" y="27.0375" font-family="Cascadia, Segoe UI Emoji" font-size="28px" fill="#f08c00" text-anchor="middle" style="white-space: pre;" direction="ltr" dominant-baseline="alphabetic">1. Invite</text></g><g stroke-linecap="round" transform="translate(598.0352875233111 459.9680625895247) rotate(0 95 102.5)"><path d="M53.48 11.28 C62.67 4.17, 76.18 0.34, 88.03 -0.54 C99.88 -1.42, 113.15 1.39, 124.58 6 C136 10.61, 147.19 18.63, 156.61 27.12 C166.03 35.6, 175.29 45.5, 181.1 56.91 C186.92 68.33, 190.6 82.09, 191.49 95.61 C192.38 109.13, 190.64 125.6, 186.43 138.04 C182.23 150.49, 174.48 160.9, 166.27 170.28 C158.07 179.65, 148.4 188.59, 137.19 194.31 C125.97 200.04, 111.06 203.6, 98.97 204.62 C86.88 205.64, 75.83 204.91, 64.62 200.43 C53.42 195.95, 40.86 186.99, 31.76 177.74 C22.65 168.48, 15.21 156.21, 9.99 144.91 C4.78 133.62, 1.54 122.86, 0.48 109.98 C-0.58 97.1, -0.15 80.28, 3.62 67.62 C7.4 54.96, 6.79 45.32, 23.12 34.02 C39.45 22.72, 81.3 2.72, 101.62 -0.16 C121.94 -3.03, 144.94 14.82, 145.03 16.78 M119.32 0.91 C130.83 3.1, 145.6 15.52, 155.2 23.78 C164.79 32.04, 171.58 39.42, 176.89 50.48 C182.2 61.54, 185.04 76.43, 187.06 90.14 C189.08 103.85, 192.1 119.7, 189 132.72 C185.91 145.75, 176.43 158.03, 168.51 168.27 C160.58 178.52, 152.03 188.16, 141.44 194.2 C130.85 200.24, 117.46 203.08, 104.98 204.5 C92.5 205.92, 77.95 206.04, 66.58 202.73 C55.22 199.43, 46.22 193.35, 36.78 184.67 C27.35 175.98, 16.23 161.83, 9.99 150.6 C3.74 139.38, 0.03 129.8, -0.69 117.33 C-1.42 104.86, 1.69 88.91, 5.64 75.78 C9.59 62.65, 15.57 48.63, 23.02 38.55 C30.46 28.47, 39.94 21.67, 50.3 15.32 C60.67 8.97, 73.83 2.54, 85.2 0.42 C96.57 -1.7, 112.88 1.84, 118.54 2.61 C124.19 3.38, 119.14 3.21, 119.11 5.05" stroke="#1971c2" stroke-width="4" fill="none"></path></g><g transform="translate(635.4382683105891 495.2896175179036) rotate(0 57.421875 67.19999999999999)"><text x="57.421875" y="27.0375" font-family="Cascadia, Segoe UI Emoji" font-size="28px" fill="#1971c2" text-anchor="middle" style="white-space: pre;" direction="ltr" dominant-baseline="alphabetic">2.</text><text x="57.421875" y="60.6375" font-family="Cascadia, Segoe UI Emoji" font-size="28px" fill="#1971c2" text-anchor="middle" style="white-space: pre;" direction="ltr" dominant-baseline="alphabetic">Extend,</text><text x="57.421875" y="94.23750000000001" font-family="Cascadia, Segoe UI Emoji" font-size="28px" fill="#1971c2" text-anchor="middle" style="white-space: pre;" direction="ltr" dominant-baseline="alphabetic">Prove,</text><text x="57.421875" y="127.8375" font-family="Cascadia, Segoe UI Emoji" font-size="28px" fill="#1971c2" text-anchor="middle" style="white-space: pre;" direction="ltr" dominant-baseline="alphabetic">Publish</text></g><g stroke-linecap="round" transform="translate(74.70195418997764 399.8013959228582) rotate(0 94.99999999999989 102.5)"><path d="M143.55 13.83 C154.28 18.95, 162.36 30.01, 169.54 40.23 C176.73 50.45, 183.64 62.55, 186.66 75.17 C189.69 87.79, 189.38 102.96, 187.69 115.96 C186 128.96, 182.39 141.95, 176.52 153.18 C170.64 164.41, 162.17 175.28, 152.45 183.34 C142.74 191.41, 129.7 197.79, 118.22 201.55 C106.75 205.31, 95.16 207.88, 83.62 205.91 C72.08 203.93, 59.49 196.49, 49 189.71 C38.51 182.92, 28.45 175.64, 20.68 165.22 C12.9 154.8, 5.35 140.06, 2.35 127.16 C-0.64 114.27, 1.23 100.36, 2.73 87.84 C4.23 75.31, 5.33 63.36, 11.35 52.02 C17.38 40.69, 29.18 28.24, 38.86 19.84 C48.54 11.43, 58.3 4.76, 69.45 1.59 C80.59 -1.58, 91.52 -2.82, 105.73 0.83 C119.95 4.47, 144.53 17.38, 154.75 23.45 C164.97 29.52, 168.29 36.23, 167.08 37.27 M157.21 25.05 C167.1 33.12, 177.81 48.88, 183.04 61 C188.28 73.13, 188.13 85.23, 188.61 97.8 C189.08 110.38, 189.58 124.56, 185.87 136.47 C182.17 148.37, 174.57 159.83, 166.35 169.23 C158.13 178.62, 147.74 187.09, 136.56 192.85 C125.38 198.6, 111.29 202.73, 99.25 203.77 C87.21 204.82, 75.93 203.54, 64.32 199.1 C52.72 194.66, 38.72 185.38, 29.62 177.15 C20.52 168.91, 14.85 161.57, 9.71 149.71 C4.57 137.84, -0.56 119.9, -1.23 105.97 C-1.89 92.04, 1.58 78.32, 5.7 66.14 C9.83 53.97, 15.61 42.45, 23.51 32.92 C31.41 23.39, 41.8 14.04, 53.1 8.96 C64.39 3.89, 79.27 3.46, 91.27 2.46 C103.27 1.45, 114.25 -0.56, 125.1 2.93 C135.95 6.42, 151.47 19.15, 156.35 23.41 C161.24 27.67, 154.71 26.35, 154.41 28.49" stroke="#1971c2" stroke-width="4" fill="none"></path></g><g transform="translate(112.10493497725565 435.1229508512371) rotate(0 57.421875 67.19999999999999)"><text x="57.421875" y="27.0375" font-family="Cascadia, Segoe UI Emoji" font-size="28px" fill="#1971c2" text-anchor="middle" style="white-space: pre;" direction="ltr" dominant-baseline="alphabetic">3.</text><text x="57.421875" y="60.6375" font-family="Cascadia, Segoe UI Emoji" font-size="28px" fill="#1971c2" text-anchor="middle" style="white-space: pre;" direction="ltr" dominant-baseline="alphabetic">Your </text><text x="57.421875" y="94.23750000000001" font-family="Cascadia, Segoe UI Emoji" font-size="28px" fill="#1971c2" text-anchor="middle" style="white-space: pre;" direction="ltr" dominant-baseline="alphabetic">Forever</text><text x="57.421875" y="127.8375" font-family="Cascadia, Segoe UI Emoji" font-size="28px" fill="#1971c2" text-anchor="middle" style="white-space: pre;" direction="ltr" dominant-baseline="alphabetic">Feed</text></g></svg>